<svg viewBox="0 0 24 24" xmlns="http://www.w3.org/2000/svg"><path d="M11.76 2.981c-.033.007-.195.033-.36.059-1.192.189-2.275.779-2.85 1.555-.413.556-.74 1.605-.589 1.887a.35.35 0 0 0 .12.119c.078.041 1.895.277 2.146.278.173.001.349-.18.409-.422a1.8 1.8 0 0 1 .421-.765c.203-.227.563-.403 1.002-.493.715-.145 1.48.21 1.637.761q.142.498.143 1.204l.001.425-.37.027c-.976.071-2.589.353-3.251.567-1.399.453-2.319 1.442-2.597 2.793-.04.194-.065.509-.065.82.001 1.6.656 2.654 1.937 3.117.488.177.855.223 1.559.195 1.219-.047 1.969-.369 2.898-1.245.153-.144.287-.263.298-.263.01 0 .139.17.286.377.29.409.775.891 1.007 1.001.218.104.382.056.651-.19.125-.115.518-.464.874-.777.686-.605.755-.701.646-.909a9 9 0 0 0-.318-.491c-.579-.851-.555-.679-.555-4.025 0-2.612-.002-2.696-.084-2.987a10 10 0 0 1-.137-.544c-.066-.306-.213-.521-.679-.995-.599-.609-1.269-.921-2.273-1.057-.273-.038-1.743-.054-1.907-.022m2.069 7.129c-.023.924-.076 1.208-.311 1.675-.315.627-.644.943-1.2 1.156-.325.124-.549.117-.885-.028-.906-.389-1.068-2.001-.286-2.837.487-.521 1.158-.739 2.307-.752l.394-.004zm6.671 6.436c-.788.066-1.508.22-1.777.382-.228.136-.483.353-.483.41 0 .127.104.148.446.086.63-.112 1.267-.154 1.669-.109.392.044.519.098.631.269.138.21-.06 1.092-.452 2.014-.203.477-.209.576-.037.595.101.012.161-.032.442-.321.256-.264.369-.422.534-.742a4.5 4.5 0 0 0 .475-1.715c.03-.534.011-.603-.199-.694-.247-.107-.926-.202-1.249-.175m-18.402.432c-.037.056-.054.132-.04.177.033.102.851.782 1.428 1.187 2.315 1.626 4.862 2.513 7.754 2.701 1.682.109 3.536-.169 5.503-.824 1.247-.415 2.717-1.169 3.296-1.69.209-.188.217-.202.17-.305a.4.4 0 0 0-.196-.17c-.145-.06-.153-.058-.55.119-1.409.63-3.773 1.189-5.703 1.35-.697.058-2.472.058-3.14 0-2.213-.191-4.15-.657-6.08-1.463-.674-.281-1.866-.871-2.151-1.064-.206-.14-.211-.14-.291-.018" fill-rule="evenodd"/></svg>