<?xml version="1.0" encoding="utf-8"?>
<svg viewBox="0 0 24 24" xmlns="http://www.w3.org/2000/svg">
  <rect class="st0" width="24" height="24" style="fill: none;" y="2.514" x="7.054"/>
  <path d="M 21.434 6.543 L 25.477 6.543 C 25.874 6.565 26.329 6.745 26.585 7.001 C 26.841 7.257 27.044 7.712 27.044 8.11 C 27.044 8.507 26.841 8.962 26.585 9.218 C 26.329 9.474 25.874 9.655 25.477 9.677 L 22.054 9.677 C 21.743 10.486 21.339 10.978 20.64 11.389 L 20.64 20.418 L 25.477 20.418 C 25.874 20.44 26.329 20.621 26.585 20.877 C 26.842 21.133 27.044 21.589 27.044 21.986 C 27.044 22.383 26.841 22.838 26.585 23.094 C 26.329 23.35 25.874 23.53 25.477 23.552 L 12.668 23.552 C 12.271 23.53 11.816 23.35 11.56 23.094 C 11.304 22.838 11.101 22.383 11.101 21.986 C 11.101 21.589 11.304 21.133 11.56 20.877 C 11.816 20.621 12.271 20.44 12.668 20.418 L 17.505 20.418 L 17.505 11.383 C 16.764 10.925 16.362 10.435 16.087 9.677 L 12.668 9.677 C 12.271 9.655 11.816 9.474 11.56 9.218 C 11.304 8.962 11.101 8.507 11.101 8.11 C 11.101 7.712 11.304 7.257 11.56 7.001 C 11.816 6.745 12.271 6.565 12.668 6.543 L 16.711 6.543 C 17.291 5.931 18.08 5.475 19.073 5.475 C 20.065 5.475 20.854 5.926 21.434 6.543 Z M 20.948 7.543 L 20.808 7.344 C 20.401 6.766 19.827 6.475 19.073 6.475 C 18.318 6.475 17.744 6.766 17.336 7.344 L 17.196 7.543 L 12.668 7.543 C 12.475 7.521 12.396 7.579 12.267 7.709 C 12.137 7.838 12.101 7.917 12.101 8.11 C 12.101 8.303 12.137 8.381 12.267 8.511 C 12.397 8.641 12.475 8.699 12.668 8.677 L 16.883 8.677 L 16.948 9.078 C 17.068 9.825 17.514 10.356 18.205 10.63 L 18.505 10.748 L 18.505 21.418 L 12.668 21.418 C 12.475 21.396 12.397 21.454 12.267 21.584 C 12.137 21.714 12.101 21.792 12.101 21.986 C 12.101 22.179 12.137 22.257 12.267 22.386 C 12.396 22.516 12.475 22.574 12.668 22.552 L 25.477 22.552 C 25.67 22.574 25.749 22.516 25.878 22.386 C 26.008 22.257 26.044 22.179 26.044 21.986 C 26.044 21.792 26.008 21.714 25.878 21.584 C 25.748 21.454 25.67 21.396 25.477 21.418 L 19.64 21.418 L 19.64 10.747 L 19.941 10.629 C 20.632 10.359 21.077 9.828 21.197 9.078 L 21.261 8.677 L 25.477 8.677 C 25.67 8.699 25.748 8.641 25.878 8.511 C 26.008 8.381 26.044 8.303 26.044 8.11 C 26.044 7.917 26.008 7.838 25.878 7.709 C 25.749 7.579 25.67 7.521 25.477 7.543 L 20.948 7.543 Z M 28.761 17.148 L 22.192 17.148 L 25.477 11.512 L 28.761 17.148 Z M 23.932 16.148 L 27.021 16.148 L 25.477 13.498 L 23.932 16.148 Z M 25.477 20.35 C 24.357 20.35 23.258 20.026 22.457 19.518 C 21.645 19.004 21.016 18.179 20.787 17.333 C 20.706 16.834 20.853 16.274 21.065 15.896 L 24.241 10.454 C 24.501 10.075 25.023 9.745 25.477 9.745 C 25.931 9.745 26.455 10.079 26.713 10.453 L 29.889 15.897 C 30.101 16.275 30.246 16.836 30.165 17.336 C 29.937 18.182 29.309 19.004 28.497 19.518 C 27.696 20.026 26.596 20.35 25.477 20.35 Z M 27.962 18.673 C 28.637 18.246 29.06 17.754 29.192 17.104 C 29.283 16.87 29.191 16.677 29.023 16.399 L 25.849 10.957 C 25.773 10.763 25.683 10.745 25.477 10.745 C 25.269 10.745 25.179 10.761 25.105 10.956 L 21.929 16.4 C 21.761 16.678 21.67 16.87 21.761 17.104 C 21.894 17.754 22.317 18.246 22.992 18.673 C 23.677 19.107 24.499 19.35 25.477 19.35 C 26.455 19.35 27.276 19.107 27.962 18.673 Z M 9.343 17.148 L 12.628 11.513 L 15.918 17.148 L 9.343 17.148 Z M 12.628 13.497 L 11.083 16.148 L 14.176 16.148 L 12.628 13.497 Z M 7.942 17.334 C 7.861 16.833 8.01 16.272 8.22 15.896 L 11.395 10.455 C 11.655 10.075 12.178 9.745 12.631 9.745 C 13.086 9.745 13.609 10.078 13.867 10.453 L 17.044 15.897 C 17.256 16.275 17.402 16.836 17.32 17.337 C 17.091 18.183 16.462 19.004 15.649 19.518 C 14.848 20.026 13.748 20.35 12.628 20.35 C 11.508 20.35 10.409 20.026 9.609 19.518 C 8.798 19.004 8.17 18.18 7.942 17.334 Z M 10.144 18.674 C 10.829 19.107 11.65 19.35 12.628 19.35 C 13.607 19.35 14.429 19.107 15.115 18.673 C 15.79 18.246 16.214 17.754 16.348 17.103 C 16.439 16.87 16.347 16.677 16.178 16.399 L 13.003 10.957 C 12.929 10.764 12.838 10.745 12.631 10.745 C 12.424 10.745 12.333 10.761 12.261 10.955 L 9.084 16.4 C 8.916 16.68 8.823 16.871 8.915 17.103 C 9.048 17.754 9.471 18.247 10.144 18.674 Z" style="fill: none;"/>
  <path d="M 21.434 6.543 L 25.477 6.543 C 25.874 6.565 26.329 6.745 26.585 7.001 C 26.841 7.257 27.044 7.712 27.044 8.11 C 27.044 8.507 26.841 8.962 26.585 9.218 C 26.329 9.474 25.874 9.655 25.477 9.677 L 22.054 9.677 C 21.743 10.486 21.339 10.978 20.64 11.389 L 20.64 20.418 L 25.477 20.418 C 25.874 20.44 26.329 20.621 26.585 20.877 C 26.842 21.133 27.044 21.589 27.044 21.986 C 27.044 22.383 26.841 22.838 26.585 23.094 C 26.329 23.35 25.874 23.53 25.477 23.552 L 12.668 23.552 C 12.271 23.53 11.816 23.35 11.56 23.094 C 11.304 22.838 11.101 22.383 11.101 21.986 C 11.101 21.589 11.304 21.133 11.56 20.877 C 11.816 20.621 12.271 20.44 12.668 20.418 L 17.505 20.418 L 17.505 11.383 C 16.764 10.925 16.362 10.435 16.087 9.677 L 12.668 9.677 C 12.271 9.655 11.816 9.474 11.56 9.218 C 11.304 8.962 11.101 8.507 11.101 8.11 C 11.101 7.712 11.304 7.257 11.56 7.001 C 11.816 6.745 12.271 6.565 12.668 6.543 L 16.711 6.543 C 17.291 5.931 18.08 5.475 19.073 5.475 C 20.065 5.475 20.854 5.926 21.434 6.543 Z M 20.948 7.543 L 20.808 7.344 C 20.401 6.766 19.827 6.475 19.073 6.475 C 18.318 6.475 17.744 6.766 17.336 7.344 L 17.196 7.543 L 12.668 7.543 C 12.475 7.521 12.396 7.579 12.267 7.709 C 12.137 7.838 12.101 7.917 12.101 8.11 C 12.101 8.303 12.137 8.381 12.267 8.511 C 12.397 8.641 12.475 8.699 12.668 8.677 L 16.883 8.677 L 16.948 9.078 C 17.068 9.825 17.514 10.356 18.205 10.63 L 18.505 10.748 L 18.505 21.418 L 12.668 21.418 C 12.475 21.396 12.397 21.454 12.267 21.584 C 12.137 21.714 12.101 21.792 12.101 21.986 C 12.101 22.179 12.137 22.257 12.267 22.386 C 12.396 22.516 12.475 22.574 12.668 22.552 L 25.477 22.552 C 25.67 22.574 25.749 22.516 25.878 22.386 C 26.008 22.257 26.044 22.179 26.044 21.986 C 26.044 21.792 26.008 21.714 25.878 21.584 C 25.748 21.454 25.67 21.396 25.477 21.418 L 19.64 21.418 L 19.64 10.747 L 19.941 10.629 C 20.632 10.359 21.077 9.828 21.197 9.078 L 21.261 8.677 L 25.477 8.677 C 25.67 8.699 25.748 8.641 25.878 8.511 C 26.008 8.381 26.044 8.303 26.044 8.11 C 26.044 7.917 26.008 7.838 25.878 7.709 C 25.749 7.579 25.67 7.521 25.477 7.543 L 20.948 7.543 Z M 28.761 17.148 L 22.192 17.148 L 25.477 11.512 L 28.761 17.148 Z M 23.932 16.148 L 27.021 16.148 L 25.477 13.498 L 23.932 16.148 Z M 25.477 20.35 C 24.357 20.35 23.258 20.026 22.457 19.518 C 21.645 19.004 21.016 18.179 20.787 17.333 C 20.706 16.834 20.853 16.274 21.065 15.896 L 24.241 10.454 C 24.501 10.075 25.023 9.745 25.477 9.745 C 25.931 9.745 26.455 10.079 26.713 10.453 L 29.889 15.897 C 30.101 16.275 30.246 16.836 30.165 17.336 C 29.937 18.182 29.309 19.004 28.497 19.518 C 27.696 20.026 26.596 20.35 25.477 20.35 Z M 27.962 18.673 C 28.637 18.246 29.06 17.754 29.192 17.104 C 29.283 16.87 29.191 16.677 29.023 16.399 L 25.849 10.957 C 25.773 10.763 25.683 10.745 25.477 10.745 C 25.269 10.745 25.179 10.761 25.105 10.956 L 21.929 16.4 C 21.761 16.678 21.67 16.87 21.761 17.104 C 21.894 17.754 22.317 18.246 22.992 18.673 C 23.677 19.107 24.499 19.35 25.477 19.35 C 26.455 19.35 27.276 19.107 27.962 18.673 Z M 9.343 17.148 L 12.628 11.513 L 15.918 17.148 L 9.343 17.148 Z M 12.628 13.497 L 11.083 16.148 L 14.176 16.148 L 12.628 13.497 Z M 7.942 17.334 C 7.861 16.833 8.01 16.272 8.22 15.896 L 11.395 10.455 C 11.655 10.075 12.178 9.745 12.631 9.745 C 13.086 9.745 13.609 10.078 13.867 10.453 L 17.044 15.897 C 17.256 16.275 17.402 16.836 17.32 17.337 C 17.091 18.183 16.462 19.004 15.649 19.518 C 14.848 20.026 13.748 20.35 12.628 20.35 C 11.508 20.35 10.409 20.026 9.609 19.518 C 8.798 19.004 8.17 18.18 7.942 17.334 Z M 10.144 18.674 C 10.829 19.107 11.65 19.35 12.628 19.35 C 13.607 19.35 14.429 19.107 15.115 18.673 C 15.79 18.246 16.214 17.754 16.348 17.103 C 16.439 16.87 16.347 16.677 16.178 16.399 L 13.003 10.957 C 12.929 10.764 12.838 10.745 12.631 10.745 C 12.424 10.745 12.333 10.761 12.261 10.955 L 9.084 16.4 C 8.916 16.68 8.823 16.871 8.915 17.103 C 9.048 17.754 9.471 18.247 10.144 18.674 Z" style="fill: none;"/>
  <path d="M 31.029 6.411 C 32.27 7.681 32.979 9.403 32.979 11.197 C 32.979 13.008 32.267 14.715 31.043 15.95 C 29.725 17.222 27.953 17.966 26.209 17.966 C 24.464 17.966 22.724 17.221 21.441 15.964 C 20.184 14.68 19.457 12.958 19.457 11.197 C 19.457 9.453 20.201 7.697 21.456 6.397 C 22.705 5.157 24.394 4.427 26.209 4.427 C 28.022 4.427 29.744 5.155 31.029 6.411 Z M 26.209 5.427 C 24.588 5.427 23.255 5.969 22.168 7.099 C 21.019 8.239 20.457 9.643 20.457 11.197 C 20.457 12.768 21 14.136 22.149 15.257 C 23.27 16.406 24.656 16.966 26.209 16.966 C 27.763 16.966 29.185 16.404 30.341 15.238 C 31.453 14.171 31.979 12.82 31.979 11.197 C 31.979 9.589 31.452 8.221 30.321 7.119 C 29.2 5.971 27.832 5.427 26.209 5.427 Z M 26.226 5.561 C 27.733 5.561 29.175 6.173 30.222 7.219 C 30.89 7.887 31.373 8.736 31.631 9.655 L 31.79 9.655 L 31.651 9.728 C 31.778 10.205 31.844 10.7 31.844 11.197 C 31.844 12.698 31.254 14.114 30.235 15.144 C 29.141 16.193 27.661 16.816 26.226 16.816 C 24.772 16.816 23.311 16.203 22.265 15.158 C 21.221 14.113 20.59 12.635 20.59 11.197 C 20.59 9.742 21.232 8.279 22.262 7.205 C 23.307 6.17 24.722 5.561 26.226 5.561 Z M 22.976 7.905 C 22.048 8.825 21.59 9.938 21.59 11.197 C 21.59 12.439 22.059 13.537 22.973 14.45 C 23.885 15.363 24.966 15.816 26.226 15.816 C 27.471 15.816 28.601 15.373 29.535 14.43 C 30.44 13.57 30.844 12.512 30.844 11.197 C 30.844 10.85 30.813 10.518 30.75 10.202 L 28.921 11.162 L 30.492 11.962 L 30.218 12.408 C 29.803 13.085 28.981 13.641 28.137 13.641 C 27.497 13.641 26.837 13.392 26.435 12.988 C 26.383 12.936 26.333 12.879 26.286 12.818 C 25.837 13.296 25.186 13.641 24.521 13.641 C 23.881 13.641 23.22 13.392 22.818 12.988 C 22.419 12.587 22.153 11.91 22.153 11.197 C 22.153 10.49 22.435 9.815 22.832 9.415 C 23.233 9.01 23.884 8.753 24.486 8.753 C 25.151 8.753 25.832 9.034 26.316 9.563 C 26.358 9.51 26.403 9.46 26.448 9.414 C 26.85 9.01 27.501 8.753 28.103 8.753 C 28.902 8.753 29.725 9.16 30.2 9.914 L 30.037 9.655 L 30.605 9.655 C 30.389 9.013 30.027 8.439 29.514 7.927 C 28.601 7.013 27.537 6.561 26.226 6.561 C 24.914 6.561 23.855 6.982 22.976 7.905 Z M 24.859 10.804 C 24.815 10.67 24.78 10.66 24.703 10.615 C 24.648 10.583 24.657 10.585 24.618 10.585 C 24.433 10.585 24.452 10.576 24.381 10.682 C 24.301 10.802 24.277 10.93 24.277 11.197 C 24.277 11.455 24.306 11.58 24.392 11.704 C 24.469 11.814 24.454 11.808 24.618 11.808 C 24.733 11.808 24.738 11.808 24.792 11.773 C 24.856 11.732 24.877 11.721 24.928 11.573 L 25.021 11.301 Z M 25.304 11.162 L 25.776 11.402 C 25.771 11.334 25.769 11.266 25.769 11.197 C 25.769 11.1 25.774 11.004 25.784 10.91 Z M 25.52 9.919 L 25.454 9.954 C 25.568 10.071 25.52 9.919 25.52 9.919 Z M 23.588 10.074 C 23.572 10.088 23.557 10.103 23.542 10.119 C 23.277 10.385 23.153 10.682 23.153 11.197 C 23.153 11.727 23.268 12.022 23.527 12.283 C 23.59 12.346 23.654 12.399 23.721 12.444 C 23.663 12.391 23.612 12.334 23.571 12.275 C 23.381 12.001 23.277 11.571 23.277 11.197 C 23.277 10.832 23.364 10.404 23.55 10.126 C 23.562 10.109 23.574 10.091 23.588 10.074 Z M 28.476 10.804 C 28.432 10.67 28.397 10.66 28.32 10.615 C 28.265 10.583 28.273 10.585 28.234 10.585 C 28.049 10.585 28.069 10.575 27.998 10.681 C 27.918 10.801 27.894 10.93 27.894 11.197 C 27.894 11.455 27.923 11.581 28.009 11.704 C 28.085 11.815 28.07 11.808 28.234 11.808 C 28.35 11.808 28.355 11.808 28.409 11.773 C 28.473 11.732 28.494 11.721 28.545 11.573 L 28.638 11.301 Z M 27.204 10.074 C 27.189 10.089 27.173 10.104 27.158 10.119 C 26.893 10.386 26.769 10.682 26.769 11.197 C 26.769 11.727 26.884 12.022 27.143 12.282 C 27.206 12.345 27.27 12.399 27.337 12.444 C 27.279 12.391 27.228 12.333 27.187 12.275 C 26.997 12.001 26.894 11.571 26.894 11.197 C 26.894 10.832 26.981 10.405 27.166 10.127 C 27.178 10.109 27.191 10.091 27.204 10.074 Z" style="fill: none;"/>
  <rect class="st0" width="24" height="24" style="fill: none;" x="-22.522" y="-1.649"/>
  <g style="" transform="matrix(0.05355200543999672, 0, 0, 0.05355200543999672, 3.6890900135040283, 2.089000940322876)">
    <g fill="#100a09" fill-opacity="1">
      <g transform="translate(26.35976, 180.621122)">
        <g/>
      </g>
    </g>
    <g fill="#100a09" fill-opacity="1">
      <g transform="translate(35.75088, 293.983485)">
        <g/>
      </g>
    </g>
    <g fill="#100a09" fill-opacity="1">
      <g transform="translate(113.826287, 181.172678)">
        <g/>
      </g>
    </g>
    <g fill="#100a09" fill-opacity="1">
      <g transform="translate(125.551652, 299.102251)">
        <g/>
      </g>
    </g>
    <g fill="#100a09" fill-opacity="1">
      <g transform="translate(172.264212, 162.304483)">
        <g/>
      </g>
    </g>
    <g fill="#100a09" fill-opacity="1">
      <g transform="translate(148.375528, 286.714407)">
        <g/>
      </g>
    </g>
    <g fill="#100a09" fill-opacity="1">
      <g transform="translate(241.695267, 188.600774)">
        <g/>
      </g>
    </g>
    <g fill="#100a09" fill-opacity="1">
      <g transform="translate(231.358993, 297.358502)">
        <g/>
      </g>
    </g>
  </g>
  <g style="" transform="matrix(0.05355200543999672, 0, 0, 0.05355200543999672, 1.8740689754486084, 2.0479869842529297)">
    <g fill="#100a09" fill-opacity="1">
      <g transform="translate(26.35976, 180.621122)">
        <g/>
      </g>
    </g>
    <g fill="#100a09" fill-opacity="1">
      <g transform="translate(35.75088, 293.983485)">
        <g/>
      </g>
    </g>
    <g fill="#100a09" fill-opacity="1">
      <g transform="translate(113.826287, 181.172678)">
        <g/>
      </g>
    </g>
    <g fill="#100a09" fill-opacity="1">
      <g transform="translate(125.551652, 299.102251)">
        <g/>
      </g>
    </g>
    <g fill="#100a09" fill-opacity="1">
      <g transform="translate(172.264212, 162.304483)">
        <g/>
      </g>
    </g>
    <g fill="#100a09" fill-opacity="1">
      <g transform="translate(148.375528, 286.714407)">
        <g/>
      </g>
    </g>
    <g fill="#100a09" fill-opacity="1">
      <g transform="translate(241.695267, 188.600774)">
        <g/>
      </g>
    </g>
    <g fill="#100a09" fill-opacity="1">
      <g transform="translate(231.358993, 297.358502)">
        <g/>
      </g>
    </g>
  </g>
  <g style="" transform="matrix(0.046598002314567566, 0, 0, 0.046598002314567566, 3.1889729499816895, 3.3403079509735107)">
    <g fill="#100a09" fill-opacity="1">
      <g transform="translate(26.35976, 180.621122)">
        <g/>
      </g>
    </g>
    <g fill="#100a09" fill-opacity="1">
      <g transform="translate(35.75088, 293.983485)">
        <g/>
      </g>
    </g>
    <g fill="#100a09" fill-opacity="1">
      <g transform="translate(113.826287, 181.172678)">
        <g/>
      </g>
    </g>
    <g fill="#100a09" fill-opacity="1">
      <g transform="translate(125.551652, 299.102251)">
        <g/>
      </g>
    </g>
    <g fill="#100a09" fill-opacity="1">
      <g transform="translate(172.264212, 162.304483)">
        <g/>
      </g>
    </g>
    <g fill="#100a09" fill-opacity="1">
      <g transform="translate(148.375528, 286.714407)">
        <g/>
      </g>
    </g>
    <g fill="#100a09" fill-opacity="1">
      <g transform="translate(241.695267, 188.600774)">
        <g/>
      </g>
    </g>
    <g fill="#100a09" fill-opacity="1">
      <g transform="translate(231.358993, 297.358502)">
        <g/>
      </g>
    </g>
  </g>
  <g style="" transform="matrix(0.623481035232544, 0, 0, 0.623481035232544, 2.0864388942718506, 2.759536027908325)"/>
  <g id="g-1" transform="matrix(0.4793580174446106, 0, 0, -0.4793580174446106, 6.601039886474609, 5.541322231292725)" style="">
    <path d="M 0 -0.5 C 1.897 -0.497 3.762 -0.193 5.202 0.591 C 6.652 1.38 7.766 2.769 8.191 4.715 C 8.936 8.386 13.788 32.002 13.788 32.002 L 13.911 32.603 L -47.214 32.603 C -49.119 32.599 -50.99 32.247 -52.428 31.442 C -53.876 30.631 -54.987 29.246 -55.405 27.394 C -56.139 23.904 -60.988 0.105 -60.988 0.105 L -61.11 -0.495 C -61.11 -0.495 0 -0.5 0 -0.5 Z M -59.886 0.505 C -59.129 4.219 -55.159 23.702 -54.427 27.188 C -54.113 28.825 -53.231 29.846 -51.94 30.569 C -50.639 31.297 -49.025 31.607 -47.214 31.603 L 12.685 31.603 C 11.924 27.901 7.956 8.586 7.211 4.913 C 6.89 3.187 6.01 2.169 4.724 1.469 C 3.429 0.764 1.816 0.497 0 0.5 C 0 0.5 -59.886 0.505 -59.886 0.505 Z" style="fill: none;"/>
  </g>
  <path d="M 3.38 13.957 C 3.444 13.839 3.526 13.819 3.653 13.887 C 3.947 14.044 4.235 14.208 4.534 14.358 C 5.678 14.928 6.884 15.367 8.127 15.664 C 8.716 15.805 9.31 15.917 9.91 15.997 C 10.798 16.116 11.694 16.165 12.59 16.143 C 13.081 16.132 13.572 16.092 14.06 16.036 C 15.644 15.851 17.195 15.445 18.666 14.829 C 18.748 14.795 18.833 14.772 18.922 14.795 C 19.112 14.846 19.176 15.048 19.039 15.187 C 18.954 15.265 18.863 15.334 18.768 15.396 C 17.901 15.991 16.956 16.423 15.958 16.747 C 15.267 16.97 14.558 17.136 13.84 17.243 C 13.342 17.32 12.842 17.365 12.339 17.379 C 12.315 17.38 12.292 17.383 12.268 17.387 L 11.672 17.387 C 11.65 17.383 11.627 17.38 11.603 17.379 C 11.501 17.373 11.4 17.37 11.301 17.367 C 10.825 17.346 10.35 17.296 9.879 17.217 C 9.106 17.092 8.347 16.894 7.611 16.628 C 6.097 16.082 4.702 15.249 3.503 14.174 C 3.453 14.129 3.419 14.067 3.38 14.014 L 3.38 13.957 Z M 7.837 6.617 L 7.716 6.634 C 7.328 6.682 6.959 6.829 6.644 7.06 C 6.576 7.108 6.514 7.159 6.443 7.213 C 6.438 7.2 6.433 7.187 6.432 7.173 C 6.42 7.097 6.409 7.018 6.395 6.941 C 6.376 6.812 6.311 6.755 6.181 6.755 L 5.856 6.755 C 5.662 6.755 5.626 6.792 5.626 6.986 L 5.626 12.891 C 5.626 12.919 5.626 12.948 5.627 12.975 C 5.634 13.06 5.685 13.114 5.766 13.116 C 5.964 13.119 6.164 13.119 6.361 13.116 C 6.443 13.116 6.494 13.06 6.503 12.975 C 6.505 12.948 6.505 12.919 6.505 12.891 L 6.505 10.848 C 6.536 10.873 6.553 10.888 6.567 10.902 C 7.072 11.322 7.653 11.461 8.288 11.336 C 8.864 11.223 9.264 10.871 9.523 10.352 C 9.721 9.96 9.802 9.542 9.814 9.108 C 9.829 8.626 9.78 8.152 9.586 7.704 C 9.346 7.15 8.948 6.787 8.347 6.663 C 8.257 6.642 8.164 6.634 8.071 6.62 C 7.992 6.617 7.915 6.617 7.837 6.617 Z M 6.5 7.799 C 6.496 7.762 6.515 7.725 6.547 7.706 C 6.934 7.438 7.36 7.297 7.834 7.334 C 8.254 7.365 8.598 7.571 8.779 8.064 C 8.889 8.366 8.917 8.679 8.917 8.995 C 8.917 9.288 8.894 9.576 8.804 9.858 C 8.612 10.459 8.172 10.687 7.602 10.663 C 7.208 10.646 6.863 10.493 6.547 10.27 C 6.516 10.25 6.497 10.215 6.5 10.177 C 6.503 9.779 6.5 9.385 6.5 8.986 C 6.5 8.588 6.503 8.198 6.5 7.799 Z M 12.302 6.617 C 12.274 6.62 12.246 6.625 12.221 6.628 C 11.945 6.64 11.672 6.679 11.405 6.743 C 11.233 6.789 11.066 6.851 10.9 6.907 C 10.798 6.941 10.748 7.015 10.751 7.125 C 10.753 7.218 10.748 7.311 10.751 7.404 C 10.753 7.54 10.81 7.576 10.943 7.543 C 11.162 7.485 11.382 7.424 11.605 7.381 C 11.953 7.317 12.302 7.288 12.655 7.342 C 12.838 7.37 13.01 7.424 13.128 7.579 C 13.232 7.714 13.272 7.875 13.278 8.042 C 13.287 8.276 13.284 8.51 13.287 8.744 C 13.286 8.758 13.284 8.771 13.281 8.783 C 13.267 8.78 13.255 8.783 13.245 8.78 C 12.948 8.708 12.646 8.661 12.341 8.643 C 12.023 8.626 11.707 8.644 11.403 8.752 C 11.038 8.88 10.745 9.1 10.573 9.455 C 10.44 9.731 10.421 10.025 10.463 10.321 C 10.519 10.716 10.717 11.021 11.066 11.214 C 11.403 11.401 11.766 11.423 12.136 11.367 C 12.562 11.303 12.939 11.122 13.272 10.848 C 13.286 10.836 13.301 10.826 13.318 10.817 C 13.335 10.924 13.349 11.026 13.368 11.127 C 13.385 11.214 13.439 11.272 13.521 11.274 C 13.673 11.277 13.828 11.277 13.98 11.274 C 14.054 11.274 14.114 11.214 14.116 11.141 C 14.118 11.116 14.12 11.089 14.119 11.063 L 14.119 8.073 C 14.12 7.951 14.111 7.829 14.094 7.708 C 14.039 7.345 13.885 7.045 13.558 6.851 C 13.368 6.738 13.159 6.682 12.942 6.651 C 12.841 6.637 12.739 6.628 12.638 6.614 C 12.528 6.617 12.415 6.617 12.302 6.617 Z M 13.29 10.219 C 13.292 10.253 13.276 10.285 13.247 10.304 C 12.931 10.532 12.584 10.685 12.192 10.724 C 12.031 10.741 11.871 10.736 11.718 10.673 C 11.548 10.612 11.419 10.472 11.369 10.298 C 11.313 10.12 11.312 9.93 11.365 9.751 C 11.436 9.517 11.603 9.385 11.828 9.312 C 12.055 9.243 12.293 9.222 12.528 9.249 C 12.765 9.268 12.995 9.313 13.232 9.345 C 13.278 9.351 13.292 9.372 13.292 9.418 C 13.29 9.554 13.292 9.686 13.292 9.821 C 13.292 9.957 13.287 10.087 13.29 10.219 Z M 20.621 13.87 C 20.592 13.728 20.485 13.675 20.364 13.636 C 20.172 13.575 19.973 13.538 19.772 13.525 C 19.403 13.494 19.03 13.512 18.666 13.579 C 18.263 13.655 17.879 13.784 17.538 14.019 C 17.497 14.045 17.462 14.079 17.433 14.118 C 17.413 14.152 17.408 14.193 17.42 14.23 C 17.43 14.274 17.479 14.284 17.521 14.282 C 17.541 14.282 17.562 14.281 17.583 14.278 C 17.803 14.256 18.02 14.23 18.239 14.208 C 18.562 14.177 18.886 14.157 19.207 14.183 C 19.345 14.194 19.482 14.22 19.614 14.259 C 19.758 14.299 19.823 14.406 19.828 14.552 C 19.84 14.778 19.789 14.995 19.729 15.21 C 19.614 15.643 19.447 16.064 19.283 16.482 C 19.272 16.509 19.263 16.537 19.256 16.566 C 19.241 16.649 19.29 16.701 19.371 16.682 C 19.422 16.671 19.468 16.647 19.507 16.611 C 19.634 16.493 19.754 16.367 19.865 16.234 C 20.226 15.771 20.437 15.238 20.561 14.665 C 20.584 14.564 20.601 14.459 20.621 14.358 L 20.621 13.87 Z M 16.895 10.395 C 16.53 9.387 16.167 8.379 15.802 7.37 C 15.746 7.21 15.684 7.052 15.625 6.893 C 15.594 6.812 15.535 6.758 15.445 6.758 C 15.23 6.755 15.015 6.753 14.798 6.755 C 14.728 6.755 14.694 6.812 14.708 6.882 C 14.722 6.941 14.74 6.998 14.762 7.055 C 15.315 8.422 15.871 9.79 16.429 11.158 C 16.477 11.274 16.488 11.373 16.435 11.492 C 16.341 11.698 16.268 11.914 16.173 12.121 C 16.088 12.304 15.947 12.442 15.743 12.496 C 15.602 12.533 15.455 12.543 15.309 12.527 C 15.239 12.522 15.168 12.505 15.097 12.498 C 15.001 12.493 14.954 12.536 14.951 12.634 C 14.949 12.728 14.949 12.821 14.951 12.913 C 14.954 13.069 15.007 13.139 15.16 13.164 C 15.317 13.195 15.476 13.214 15.637 13.22 C 16.119 13.232 16.502 13.038 16.751 12.617 C 16.85 12.451 16.937 12.278 17.01 12.098 C 17.679 10.412 18.343 8.722 19.001 7.032 C 19.022 6.982 19.038 6.93 19.047 6.876 C 19.058 6.798 19.022 6.753 18.942 6.753 C 18.757 6.75 18.567 6.753 18.381 6.753 C 18.283 6.745 18.194 6.806 18.164 6.899 C 18.15 6.938 18.133 6.976 18.119 7.015 L 17.138 9.836 C 17.066 10.04 16.993 10.245 16.92 10.462 C 16.908 10.43 16.903 10.414 16.895 10.395 Z" style=""/>
</svg>