<?xml version="1.0" encoding="utf-8"?>
<svg viewBox="0 0 24 24" xmlns="http://www.w3.org/2000/svg">
  <defs/>
  <rect class="st0" width="24" height="24" style="fill: none;" y="2.514" x="7.054"/>
  <path d="M 21.434 6.543 L 25.477 6.543 C 25.874 6.565 26.329 6.745 26.585 7.001 C 26.841 7.257 27.044 7.712 27.044 8.11 C 27.044 8.507 26.841 8.962 26.585 9.218 C 26.329 9.474 25.874 9.655 25.477 9.677 L 22.054 9.677 C 21.743 10.486 21.339 10.978 20.64 11.389 L 20.64 20.418 L 25.477 20.418 C 25.874 20.44 26.329 20.621 26.585 20.877 C 26.842 21.133 27.044 21.589 27.044 21.986 C 27.044 22.383 26.841 22.838 26.585 23.094 C 26.329 23.35 25.874 23.53 25.477 23.552 L 12.668 23.552 C 12.271 23.53 11.816 23.35 11.56 23.094 C 11.304 22.838 11.101 22.383 11.101 21.986 C 11.101 21.589 11.304 21.133 11.56 20.877 C 11.816 20.621 12.271 20.44 12.668 20.418 L 17.505 20.418 L 17.505 11.383 C 16.764 10.925 16.362 10.435 16.087 9.677 L 12.668 9.677 C 12.271 9.655 11.816 9.474 11.56 9.218 C 11.304 8.962 11.101 8.507 11.101 8.11 C 11.101 7.712 11.304 7.257 11.56 7.001 C 11.816 6.745 12.271 6.565 12.668 6.543 L 16.711 6.543 C 17.291 5.931 18.08 5.475 19.073 5.475 C 20.065 5.475 20.854 5.926 21.434 6.543 Z M 20.948 7.543 L 20.808 7.344 C 20.401 6.766 19.827 6.475 19.073 6.475 C 18.318 6.475 17.744 6.766 17.336 7.344 L 17.196 7.543 L 12.668 7.543 C 12.475 7.521 12.396 7.579 12.267 7.709 C 12.137 7.838 12.101 7.917 12.101 8.11 C 12.101 8.303 12.137 8.381 12.267 8.511 C 12.397 8.641 12.475 8.699 12.668 8.677 L 16.883 8.677 L 16.948 9.078 C 17.068 9.825 17.514 10.356 18.205 10.63 L 18.505 10.748 L 18.505 21.418 L 12.668 21.418 C 12.475 21.396 12.397 21.454 12.267 21.584 C 12.137 21.714 12.101 21.792 12.101 21.986 C 12.101 22.179 12.137 22.257 12.267 22.386 C 12.396 22.516 12.475 22.574 12.668 22.552 L 25.477 22.552 C 25.67 22.574 25.749 22.516 25.878 22.386 C 26.008 22.257 26.044 22.179 26.044 21.986 C 26.044 21.792 26.008 21.714 25.878 21.584 C 25.748 21.454 25.67 21.396 25.477 21.418 L 19.64 21.418 L 19.64 10.747 L 19.941 10.629 C 20.632 10.359 21.077 9.828 21.197 9.078 L 21.261 8.677 L 25.477 8.677 C 25.67 8.699 25.748 8.641 25.878 8.511 C 26.008 8.381 26.044 8.303 26.044 8.11 C 26.044 7.917 26.008 7.838 25.878 7.709 C 25.749 7.579 25.67 7.521 25.477 7.543 L 20.948 7.543 Z M 28.761 17.148 L 22.192 17.148 L 25.477 11.512 L 28.761 17.148 Z M 23.932 16.148 L 27.021 16.148 L 25.477 13.498 L 23.932 16.148 Z M 25.477 20.35 C 24.357 20.35 23.258 20.026 22.457 19.518 C 21.645 19.004 21.016 18.179 20.787 17.333 C 20.706 16.834 20.853 16.274 21.065 15.896 L 24.241 10.454 C 24.501 10.075 25.023 9.745 25.477 9.745 C 25.931 9.745 26.455 10.079 26.713 10.453 L 29.889 15.897 C 30.101 16.275 30.246 16.836 30.165 17.336 C 29.937 18.182 29.309 19.004 28.497 19.518 C 27.696 20.026 26.596 20.35 25.477 20.35 Z M 27.962 18.673 C 28.637 18.246 29.06 17.754 29.192 17.104 C 29.283 16.87 29.191 16.677 29.023 16.399 L 25.849 10.957 C 25.773 10.763 25.683 10.745 25.477 10.745 C 25.269 10.745 25.179 10.761 25.105 10.956 L 21.929 16.4 C 21.761 16.678 21.67 16.87 21.761 17.104 C 21.894 17.754 22.317 18.246 22.992 18.673 C 23.677 19.107 24.499 19.35 25.477 19.35 C 26.455 19.35 27.276 19.107 27.962 18.673 Z M 9.343 17.148 L 12.628 11.513 L 15.918 17.148 L 9.343 17.148 Z M 12.628 13.497 L 11.083 16.148 L 14.176 16.148 L 12.628 13.497 Z M 7.942 17.334 C 7.861 16.833 8.01 16.272 8.22 15.896 L 11.395 10.455 C 11.655 10.075 12.178 9.745 12.631 9.745 C 13.086 9.745 13.609 10.078 13.867 10.453 L 17.044 15.897 C 17.256 16.275 17.402 16.836 17.32 17.337 C 17.091 18.183 16.462 19.004 15.649 19.518 C 14.848 20.026 13.748 20.35 12.628 20.35 C 11.508 20.35 10.409 20.026 9.609 19.518 C 8.798 19.004 8.17 18.18 7.942 17.334 Z M 10.144 18.674 C 10.829 19.107 11.65 19.35 12.628 19.35 C 13.607 19.35 14.429 19.107 15.115 18.673 C 15.79 18.246 16.214 17.754 16.348 17.103 C 16.439 16.87 16.347 16.677 16.178 16.399 L 13.003 10.957 C 12.929 10.764 12.838 10.745 12.631 10.745 C 12.424 10.745 12.333 10.761 12.261 10.955 L 9.084 16.4 C 8.916 16.68 8.823 16.871 8.915 17.103 C 9.048 17.754 9.471 18.247 10.144 18.674 Z" style="fill: none;"/>
  <path d="M 21.434 6.543 L 25.477 6.543 C 25.874 6.565 26.329 6.745 26.585 7.001 C 26.841 7.257 27.044 7.712 27.044 8.11 C 27.044 8.507 26.841 8.962 26.585 9.218 C 26.329 9.474 25.874 9.655 25.477 9.677 L 22.054 9.677 C 21.743 10.486 21.339 10.978 20.64 11.389 L 20.64 20.418 L 25.477 20.418 C 25.874 20.44 26.329 20.621 26.585 20.877 C 26.842 21.133 27.044 21.589 27.044 21.986 C 27.044 22.383 26.841 22.838 26.585 23.094 C 26.329 23.35 25.874 23.53 25.477 23.552 L 12.668 23.552 C 12.271 23.53 11.816 23.35 11.56 23.094 C 11.304 22.838 11.101 22.383 11.101 21.986 C 11.101 21.589 11.304 21.133 11.56 20.877 C 11.816 20.621 12.271 20.44 12.668 20.418 L 17.505 20.418 L 17.505 11.383 C 16.764 10.925 16.362 10.435 16.087 9.677 L 12.668 9.677 C 12.271 9.655 11.816 9.474 11.56 9.218 C 11.304 8.962 11.101 8.507 11.101 8.11 C 11.101 7.712 11.304 7.257 11.56 7.001 C 11.816 6.745 12.271 6.565 12.668 6.543 L 16.711 6.543 C 17.291 5.931 18.08 5.475 19.073 5.475 C 20.065 5.475 20.854 5.926 21.434 6.543 Z M 20.948 7.543 L 20.808 7.344 C 20.401 6.766 19.827 6.475 19.073 6.475 C 18.318 6.475 17.744 6.766 17.336 7.344 L 17.196 7.543 L 12.668 7.543 C 12.475 7.521 12.396 7.579 12.267 7.709 C 12.137 7.838 12.101 7.917 12.101 8.11 C 12.101 8.303 12.137 8.381 12.267 8.511 C 12.397 8.641 12.475 8.699 12.668 8.677 L 16.883 8.677 L 16.948 9.078 C 17.068 9.825 17.514 10.356 18.205 10.63 L 18.505 10.748 L 18.505 21.418 L 12.668 21.418 C 12.475 21.396 12.397 21.454 12.267 21.584 C 12.137 21.714 12.101 21.792 12.101 21.986 C 12.101 22.179 12.137 22.257 12.267 22.386 C 12.396 22.516 12.475 22.574 12.668 22.552 L 25.477 22.552 C 25.67 22.574 25.749 22.516 25.878 22.386 C 26.008 22.257 26.044 22.179 26.044 21.986 C 26.044 21.792 26.008 21.714 25.878 21.584 C 25.748 21.454 25.67 21.396 25.477 21.418 L 19.64 21.418 L 19.64 10.747 L 19.941 10.629 C 20.632 10.359 21.077 9.828 21.197 9.078 L 21.261 8.677 L 25.477 8.677 C 25.67 8.699 25.748 8.641 25.878 8.511 C 26.008 8.381 26.044 8.303 26.044 8.11 C 26.044 7.917 26.008 7.838 25.878 7.709 C 25.749 7.579 25.67 7.521 25.477 7.543 L 20.948 7.543 Z M 28.761 17.148 L 22.192 17.148 L 25.477 11.512 L 28.761 17.148 Z M 23.932 16.148 L 27.021 16.148 L 25.477 13.498 L 23.932 16.148 Z M 25.477 20.35 C 24.357 20.35 23.258 20.026 22.457 19.518 C 21.645 19.004 21.016 18.179 20.787 17.333 C 20.706 16.834 20.853 16.274 21.065 15.896 L 24.241 10.454 C 24.501 10.075 25.023 9.745 25.477 9.745 C 25.931 9.745 26.455 10.079 26.713 10.453 L 29.889 15.897 C 30.101 16.275 30.246 16.836 30.165 17.336 C 29.937 18.182 29.309 19.004 28.497 19.518 C 27.696 20.026 26.596 20.35 25.477 20.35 Z M 27.962 18.673 C 28.637 18.246 29.06 17.754 29.192 17.104 C 29.283 16.87 29.191 16.677 29.023 16.399 L 25.849 10.957 C 25.773 10.763 25.683 10.745 25.477 10.745 C 25.269 10.745 25.179 10.761 25.105 10.956 L 21.929 16.4 C 21.761 16.678 21.67 16.87 21.761 17.104 C 21.894 17.754 22.317 18.246 22.992 18.673 C 23.677 19.107 24.499 19.35 25.477 19.35 C 26.455 19.35 27.276 19.107 27.962 18.673 Z M 9.343 17.148 L 12.628 11.513 L 15.918 17.148 L 9.343 17.148 Z M 12.628 13.497 L 11.083 16.148 L 14.176 16.148 L 12.628 13.497 Z M 7.942 17.334 C 7.861 16.833 8.01 16.272 8.22 15.896 L 11.395 10.455 C 11.655 10.075 12.178 9.745 12.631 9.745 C 13.086 9.745 13.609 10.078 13.867 10.453 L 17.044 15.897 C 17.256 16.275 17.402 16.836 17.32 17.337 C 17.091 18.183 16.462 19.004 15.649 19.518 C 14.848 20.026 13.748 20.35 12.628 20.35 C 11.508 20.35 10.409 20.026 9.609 19.518 C 8.798 19.004 8.17 18.18 7.942 17.334 Z M 10.144 18.674 C 10.829 19.107 11.65 19.35 12.628 19.35 C 13.607 19.35 14.429 19.107 15.115 18.673 C 15.79 18.246 16.214 17.754 16.348 17.103 C 16.439 16.87 16.347 16.677 16.178 16.399 L 13.003 10.957 C 12.929 10.764 12.838 10.745 12.631 10.745 C 12.424 10.745 12.333 10.761 12.261 10.955 L 9.084 16.4 C 8.916 16.68 8.823 16.871 8.915 17.103 C 9.048 17.754 9.471 18.247 10.144 18.674 Z" style="fill: none;"/>
  <path d="M 31.029 6.411 C 32.27 7.681 32.979 9.403 32.979 11.197 C 32.979 13.008 32.267 14.715 31.043 15.95 C 29.725 17.222 27.953 17.966 26.209 17.966 C 24.464 17.966 22.724 17.221 21.441 15.964 C 20.184 14.68 19.457 12.958 19.457 11.197 C 19.457 9.453 20.201 7.697 21.456 6.397 C 22.705 5.157 24.394 4.427 26.209 4.427 C 28.022 4.427 29.744 5.155 31.029 6.411 Z M 26.209 5.427 C 24.588 5.427 23.255 5.969 22.168 7.099 C 21.019 8.239 20.457 9.643 20.457 11.197 C 20.457 12.768 21 14.136 22.149 15.257 C 23.27 16.406 24.656 16.966 26.209 16.966 C 27.763 16.966 29.185 16.404 30.341 15.238 C 31.453 14.171 31.979 12.82 31.979 11.197 C 31.979 9.589 31.452 8.221 30.321 7.119 C 29.2 5.971 27.832 5.427 26.209 5.427 Z M 26.226 5.561 C 27.733 5.561 29.175 6.173 30.222 7.219 C 30.89 7.887 31.373 8.736 31.631 9.655 L 31.79 9.655 L 31.651 9.728 C 31.778 10.205 31.844 10.7 31.844 11.197 C 31.844 12.698 31.254 14.114 30.235 15.144 C 29.141 16.193 27.661 16.816 26.226 16.816 C 24.772 16.816 23.311 16.203 22.265 15.158 C 21.221 14.113 20.59 12.635 20.59 11.197 C 20.59 9.742 21.232 8.279 22.262 7.205 C 23.307 6.17 24.722 5.561 26.226 5.561 Z M 22.976 7.905 C 22.048 8.825 21.59 9.938 21.59 11.197 C 21.59 12.439 22.059 13.537 22.973 14.45 C 23.885 15.363 24.966 15.816 26.226 15.816 C 27.471 15.816 28.601 15.373 29.535 14.43 C 30.44 13.57 30.844 12.512 30.844 11.197 C 30.844 10.85 30.813 10.518 30.75 10.202 L 28.921 11.162 L 30.492 11.962 L 30.218 12.408 C 29.803 13.085 28.981 13.641 28.137 13.641 C 27.497 13.641 26.837 13.392 26.435 12.988 C 26.383 12.936 26.333 12.879 26.286 12.818 C 25.837 13.296 25.186 13.641 24.521 13.641 C 23.881 13.641 23.22 13.392 22.818 12.988 C 22.419 12.587 22.153 11.91 22.153 11.197 C 22.153 10.49 22.435 9.815 22.832 9.415 C 23.233 9.01 23.884 8.753 24.486 8.753 C 25.151 8.753 25.832 9.034 26.316 9.563 C 26.358 9.51 26.403 9.46 26.448 9.414 C 26.85 9.01 27.501 8.753 28.103 8.753 C 28.902 8.753 29.725 9.16 30.2 9.914 L 30.037 9.655 L 30.605 9.655 C 30.389 9.013 30.027 8.439 29.514 7.927 C 28.601 7.013 27.537 6.561 26.226 6.561 C 24.914 6.561 23.855 6.982 22.976 7.905 Z M 24.859 10.804 C 24.815 10.67 24.78 10.66 24.703 10.615 C 24.648 10.583 24.657 10.585 24.618 10.585 C 24.433 10.585 24.452 10.576 24.381 10.682 C 24.301 10.802 24.277 10.93 24.277 11.197 C 24.277 11.455 24.306 11.58 24.392 11.704 C 24.469 11.814 24.454 11.808 24.618 11.808 C 24.733 11.808 24.738 11.808 24.792 11.773 C 24.856 11.732 24.877 11.721 24.928 11.573 L 25.021 11.301 Z M 25.304 11.162 L 25.776 11.402 C 25.771 11.334 25.769 11.266 25.769 11.197 C 25.769 11.1 25.774 11.004 25.784 10.91 Z M 25.52 9.919 L 25.454 9.954 C 25.568 10.071 25.52 9.919 25.52 9.919 Z M 23.588 10.074 C 23.572 10.088 23.557 10.103 23.542 10.119 C 23.277 10.385 23.153 10.682 23.153 11.197 C 23.153 11.727 23.268 12.022 23.527 12.283 C 23.59 12.346 23.654 12.399 23.721 12.444 C 23.663 12.391 23.612 12.334 23.571 12.275 C 23.381 12.001 23.277 11.571 23.277 11.197 C 23.277 10.832 23.364 10.404 23.55 10.126 C 23.562 10.109 23.574 10.091 23.588 10.074 Z M 28.476 10.804 C 28.432 10.67 28.397 10.66 28.32 10.615 C 28.265 10.583 28.273 10.585 28.234 10.585 C 28.049 10.585 28.069 10.575 27.998 10.681 C 27.918 10.801 27.894 10.93 27.894 11.197 C 27.894 11.455 27.923 11.581 28.009 11.704 C 28.085 11.815 28.07 11.808 28.234 11.808 C 28.35 11.808 28.355 11.808 28.409 11.773 C 28.473 11.732 28.494 11.721 28.545 11.573 L 28.638 11.301 Z M 27.204 10.074 C 27.189 10.089 27.173 10.104 27.158 10.119 C 26.893 10.386 26.769 10.682 26.769 11.197 C 26.769 11.727 26.884 12.022 27.143 12.282 C 27.206 12.345 27.27 12.399 27.337 12.444 C 27.279 12.391 27.228 12.333 27.187 12.275 C 26.997 12.001 26.894 11.571 26.894 11.197 C 26.894 10.832 26.981 10.405 27.166 10.127 C 27.178 10.109 27.191 10.091 27.204 10.074 Z" style="fill: none;"/>
  <rect class="st0" width="24" height="24" style="fill: none;" x="-22.522" y="-1.649"/>
  <g style="" transform="matrix(0.05355200543999672, 0, 0, 0.05355200543999672, 3.6890900135040283, 2.089000940322876)">
    <g fill="#100a09" fill-opacity="1">
      <g transform="translate(26.35976, 180.621122)">
        <g/>
      </g>
    </g>
    <g fill="#100a09" fill-opacity="1">
      <g transform="translate(35.75088, 293.983485)">
        <g/>
      </g>
    </g>
    <g fill="#100a09" fill-opacity="1">
      <g transform="translate(113.826287, 181.172678)">
        <g/>
      </g>
    </g>
    <g fill="#100a09" fill-opacity="1">
      <g transform="translate(125.551652, 299.102251)">
        <g/>
      </g>
    </g>
    <g fill="#100a09" fill-opacity="1">
      <g transform="translate(172.264212, 162.304483)">
        <g/>
      </g>
    </g>
    <g fill="#100a09" fill-opacity="1">
      <g transform="translate(148.375528, 286.714407)">
        <g/>
      </g>
    </g>
    <g fill="#100a09" fill-opacity="1">
      <g transform="translate(241.695267, 188.600774)">
        <g/>
      </g>
    </g>
    <g fill="#100a09" fill-opacity="1">
      <g transform="translate(231.358993, 297.358502)">
        <g/>
      </g>
    </g>
  </g>
  <g style="" transform="matrix(0.05355200543999672, 0, 0, 0.05355200543999672, 1.8740689754486084, 2.0479869842529297)">
    <g fill="#100a09" fill-opacity="1">
      <g transform="translate(26.35976, 180.621122)">
        <g/>
      </g>
    </g>
    <g fill="#100a09" fill-opacity="1">
      <g transform="translate(35.75088, 293.983485)">
        <g/>
      </g>
    </g>
    <g fill="#100a09" fill-opacity="1">
      <g transform="translate(113.826287, 181.172678)">
        <g/>
      </g>
    </g>
    <g fill="#100a09" fill-opacity="1">
      <g transform="translate(125.551652, 299.102251)">
        <g/>
      </g>
    </g>
    <g fill="#100a09" fill-opacity="1">
      <g transform="translate(172.264212, 162.304483)">
        <g/>
      </g>
    </g>
    <g fill="#100a09" fill-opacity="1">
      <g transform="translate(148.375528, 286.714407)">
        <g/>
      </g>
    </g>
    <g fill="#100a09" fill-opacity="1">
      <g transform="translate(241.695267, 188.600774)">
        <g/>
      </g>
    </g>
    <g fill="#100a09" fill-opacity="1">
      <g transform="translate(231.358993, 297.358502)">
        <g/>
      </g>
    </g>
  </g>
  <g style="" transform="matrix(0.046598002314567566, 0, 0, 0.046598002314567566, 3.1889729499816895, 3.3403079509735107)">
    <g fill="#100a09" fill-opacity="1">
      <g transform="translate(26.35976, 180.621122)">
        <g/>
      </g>
    </g>
    <g fill="#100a09" fill-opacity="1">
      <g transform="translate(35.75088, 293.983485)">
        <g/>
      </g>
    </g>
    <g fill="#100a09" fill-opacity="1">
      <g transform="translate(113.826287, 181.172678)">
        <g/>
      </g>
    </g>
    <g fill="#100a09" fill-opacity="1">
      <g transform="translate(125.551652, 299.102251)">
        <g/>
      </g>
    </g>
    <g fill="#100a09" fill-opacity="1">
      <g transform="translate(172.264212, 162.304483)">
        <g/>
      </g>
    </g>
    <g fill="#100a09" fill-opacity="1">
      <g transform="translate(148.375528, 286.714407)">
        <g/>
      </g>
    </g>
    <g fill="#100a09" fill-opacity="1">
      <g transform="translate(241.695267, 188.600774)">
        <g/>
      </g>
    </g>
    <g fill="#100a09" fill-opacity="1">
      <g transform="translate(231.358993, 297.358502)">
        <g/>
      </g>
    </g>
  </g>
  <g style="" transform="matrix(0.623481035232544, 0, 0, 0.623481035232544, 2.0864388942718506, 2.759536027908325)"/>
  <g id="g-1" transform="matrix(0.4793580174446106, 0, 0, -0.4793580174446106, 6.601039886474609, 5.541322231292725)" style="">
    <path d="M 0 -0.5 C 1.897 -0.497 3.762 -0.193 5.202 0.591 C 6.652 1.38 7.766 2.769 8.191 4.715 C 8.936 8.386 13.788 32.002 13.788 32.002 L 13.911 32.603 L -47.214 32.603 C -49.119 32.599 -50.99 32.247 -52.428 31.442 C -53.876 30.631 -54.987 29.246 -55.405 27.394 C -56.139 23.904 -60.988 0.105 -60.988 0.105 L -61.11 -0.495 C -61.11 -0.495 0 -0.5 0 -0.5 Z M -59.886 0.505 C -59.129 4.219 -55.159 23.702 -54.427 27.188 C -54.113 28.825 -53.231 29.846 -51.94 30.569 C -50.639 31.297 -49.025 31.607 -47.214 31.603 L 12.685 31.603 C 11.924 27.901 7.956 8.586 7.211 4.913 C 6.89 3.187 6.01 2.169 4.724 1.469 C 3.429 0.764 1.816 0.497 0 0.5 C 0 0.5 -59.886 0.505 -59.886 0.505 Z" style="fill: none;"/>
  </g>
  <path style="fill-opacity: 1;" id="path843" d="M 4.786 11.241 C 4.865 10.973 4.859 10.635 4.859 10.288 L 4.859 7.799 C 4.859 7.679 4.888 7.338 4.84 7.268 C 4.794 7.197 4.611 7.213 4.483 7.213 C 4.119 7.213 3.958 7.162 3.925 7.511 L 3.911 7.52 C 3.625 7.302 3.353 7.094 2.829 7.103 L 2.656 7.117 C 2.553 7.132 2.454 7.156 2.357 7.19 C 2.002 7.336 1.719 7.62 1.573 7.977 C 1.504 8.15 1.454 8.329 1.422 8.513 C 1.384 8.694 1.375 8.879 1.394 9.063 C 1.422 9.235 1.405 9.385 1.44 9.535 C 1.567 10.074 1.821 10.494 2.284 10.694 C 2.539 10.804 2.82 10.839 3.095 10.795 C 3.28 10.764 3.457 10.697 3.618 10.601 L 3.815 10.455 L 3.818 10.455 C 3.841 10.619 3.839 10.785 3.811 10.947 C 3.729 11.413 3.592 11.569 3.128 11.653 C 2.998 11.675 2.864 11.679 2.733 11.662 L 2.349 11.612 L 1.784 11.476 C 1.742 11.484 1.707 11.514 1.693 11.553 C 1.68 11.744 1.686 11.934 1.71 12.122 C 1.776 12.23 1.984 12.273 2.114 12.315 C 2.552 12.454 3.258 12.52 3.732 12.355 C 4.275 12.17 4.617 11.805 4.786 11.241 Z M 3.823 8.551 L 3.823 9.829 C 3.726 9.898 3.62 9.95 3.508 9.985 C 2.736 10.227 2.445 9.684 2.445 8.972 C 2.433 8.754 2.461 8.536 2.527 8.326 C 2.595 8.151 2.7 7.998 2.87 7.928 C 2.932 7.902 3.005 7.908 3.072 7.882 C 3.265 7.875 3.458 7.904 3.64 7.969 L 3.811 8.049 C 3.852 8.123 3.823 8.436 3.823 8.551 Z M 6.926 10.988 C 7.142 10.947 7.348 10.868 7.535 10.755 L 7.779 10.576 C 7.841 10.657 7.816 10.78 7.898 10.841 C 7.978 10.904 8.603 10.927 8.662 10.841 C 8.722 10.758 8.694 10.574 8.694 10.448 L 8.694 8.813 C 8.694 8.494 8.718 8.137 8.644 7.886 C 8.47 7.297 7.972 7.095 7.202 7.102 L 6.788 7.129 C 6.553 7.161 6.32 7.213 6.091 7.281 C 5.993 7.315 5.841 7.34 5.8 7.432 C 5.76 7.523 5.767 8.003 5.822 8.042 C 5.905 8.097 6.296 7.968 6.405 7.945 C 6.722 7.876 7.443 7.806 7.62 8.032 C 7.747 8.195 7.725 8.514 7.723 8.807 C 7.65 8.825 7.525 8.776 7.449 8.761 L 7.099 8.725 C 6.971 8.71 6.841 8.715 6.714 8.739 C 6.117 8.841 5.694 9.069 5.555 9.622 C 5.342 10.474 6.08 11.167 6.926 10.988 Z M 6.752 9.408 C 6.839 9.357 6.947 9.37 7.054 9.33 C 7.299 9.33 7.505 9.367 7.71 9.376 C 7.748 9.458 7.721 9.874 7.72 9.999 C 7.545 10.231 6.845 10.46 6.606 10.132 C 6.435 9.889 6.549 9.526 6.752 9.408 Z M 9.56 10.574 C 9.56 10.701 9.545 10.827 9.624 10.876 C 9.669 10.904 9.777 10.89 9.844 10.89 C 9.995 10.89 10.52 10.922 10.576 10.849 C 10.649 10.758 10.609 10.279 10.609 10.112 L 10.609 8.111 C 10.747 8.032 10.897 7.974 11.053 7.946 C 11.3 7.888 11.627 7.887 11.749 8.051 C 11.858 8.197 11.841 8.457 11.841 8.711 L 11.841 10.096 C 11.841 10.284 11.799 10.81 11.905 10.875 C 11.971 10.914 12.27 10.889 12.372 10.889 C 12.476 10.889 12.776 10.914 12.84 10.866 C 12.927 10.801 12.891 10.335 12.891 10.169 C 12.891 9.482 12.892 8.795 12.895 8.106 C 12.931 8.048 13.074 8.026 13.143 8.002 C 13.445 7.896 13.917 7.825 14.064 8.121 C 14.137 8.273 14.114 8.552 14.114 8.776 L 14.114 10.15 C 14.114 10.313 14.078 10.757 14.146 10.846 C 14.186 10.899 14.28 10.888 14.371 10.888 C 14.508 10.888 15.051 10.912 15.113 10.865 C 15.204 10.795 15.167 10.52 15.167 10.365 L 15.167 8.94 C 15.167 8.34 15.215 7.793 14.949 7.451 C 14.474 6.831 13.221 7.162 12.762 7.557 L 12.744 7.557 C 12.568 7.261 12.267 7.096 11.788 7.102 L 11.596 7.116 C 11.465 7.133 11.336 7.162 11.212 7.203 C 11.05 7.262 10.896 7.335 10.748 7.422 L 10.523 7.559 C 10.441 7.461 10.491 7.302 10.377 7.234 C 10.333 7.207 9.746 7.2 9.664 7.22 C 9.633 7.229 9.606 7.245 9.585 7.271 C 9.537 7.344 9.562 7.824 9.562 7.962 L 9.56 10.574 Z M 16.581 10.73 C 17.031 11.012 17.843 11.073 18.483 10.913 C 18.644 10.873 18.958 10.816 19.014 10.684 C 19.031 10.501 19.035 10.318 19.024 10.134 C 19.012 10.105 18.991 10.081 18.964 10.066 C 18.907 10.04 18.818 10.082 18.762 10.097 L 18.29 10.184 C 18.118 10.216 17.943 10.223 17.768 10.202 C 17.646 10.194 17.524 10.177 17.403 10.152 C 17.045 10.043 16.807 9.776 16.803 9.318 C 16.888 9.28 17.168 9.31 17.284 9.31 L 18.45 9.31 C 18.618 9.31 18.887 9.344 18.991 9.267 C 19.128 9.165 19.118 8.478 19.073 8.255 C 18.923 7.504 18.47 7.089 17.561 7.105 L 17.451 7.11 L 17.121 7.155 C 16.767 7.245 16.461 7.408 16.264 7.655 C 16.154 7.787 16.063 7.934 15.994 8.092 C 15.815 8.518 15.764 9.289 15.917 9.799 C 16.039 10.207 16.254 10.523 16.581 10.727 L 16.581 10.73 Z M 16.851 8.356 C 16.933 8.119 17.069 7.946 17.309 7.87 L 17.514 7.831 C 18.058 7.825 18.208 8.107 18.202 8.652 C 18.128 8.686 17.892 8.66 17.789 8.66 L 16.8 8.66 C 16.77 8.584 16.828 8.421 16.851 8.354 L 16.851 8.356 Z M 22.511 9.318 C 22.292 8.939 21.817 8.791 21.392 8.617 C 21.192 8.535 20.862 8.465 20.814 8.232 C 20.715 7.734 21.74 7.878 22.043 7.953 C 22.128 7.973 22.324 8.049 22.377 7.98 C 22.431 7.91 22.405 7.739 22.405 7.632 C 22.405 7.542 22.417 7.428 22.383 7.37 C 22.329 7.283 22.192 7.257 22.084 7.225 C 21.808 7.138 21.521 7.096 21.231 7.102 L 20.971 7.121 C 20.807 7.144 20.647 7.187 20.494 7.248 C 20.232 7.354 20.023 7.558 19.911 7.816 C 19.749 8.219 19.901 8.752 20.145 8.948 C 20.437 9.183 20.832 9.317 21.208 9.471 C 21.397 9.547 21.612 9.592 21.652 9.819 C 21.761 10.435 20.595 10.212 20.245 10.121 C 20.172 10.102 19.942 10.023 19.881 10.057 C 19.798 10.104 19.83 10.338 19.83 10.465 C 19.83 10.538 19.82 10.641 19.849 10.689 C 19.936 10.835 20.42 10.927 20.633 10.97 C 21.478 11.137 22.23 10.851 22.502 10.318 C 22.638 10.061 22.663 9.58 22.511 9.315 L 22.511 9.318 Z M 19.541 12.934 L 19.381 12.943 C 19.226 12.947 19.071 12.964 18.918 12.994 C 18.573 13.053 18.24 13.169 17.932 13.337 C 17.86 13.382 17.568 13.526 17.621 13.658 C 17.662 13.765 18.085 13.677 18.222 13.667 C 18.492 13.648 18.624 13.625 18.878 13.626 L 19.345 13.626 C 19.485 13.623 19.624 13.633 19.762 13.653 C 19.854 13.673 19.94 13.714 20.013 13.772 C 20.12 13.864 20.101 14.172 20.064 14.317 C 19.957 14.786 19.815 15.244 19.642 15.693 C 19.613 15.765 19.378 16.225 19.638 16.169 C 19.756 16.143 19.995 15.877 20.069 15.788 C 20.434 15.323 20.663 14.787 20.835 14.112 C 20.874 13.956 20.964 13.339 20.875 13.196 C 20.73 12.958 19.958 12.925 19.541 12.934 Z M 18.972 14.245 L 18.555 14.428 L 17.864 14.689 C 17.248 14.927 16.563 15.084 15.878 15.253 L 15.076 15.404 L 14.133 15.528 L 13.83 15.551 C 13.709 15.577 13.567 15.562 13.431 15.583 C 13.132 15.618 12.831 15.63 12.53 15.62 L 11.846 15.624 L 11.356 15.607 L 11.04 15.588 C 10.967 15.574 10.881 15.584 10.802 15.569 L 9.845 15.464 C 9.56 15.411 9.255 15.392 8.987 15.319 L 8.762 15.281 L 7.93 15.095 C 7.335 14.91 6.742 14.764 6.188 14.55 C 5.571 14.312 4.928 14.051 4.382 13.729 L 3.843 13.417 C 3.744 13.358 3.665 13.272 3.508 13.272 C 3.391 13.33 3.355 13.405 3.434 13.543 C 3.493 13.622 3.564 13.692 3.645 13.749 L 3.893 13.976 C 4.25 14.261 4.609 14.554 4.998 14.806 C 5.332 15.026 5.69 15.211 6.042 15.416 L 6.569 15.668 C 6.871 15.801 7.183 15.938 7.499 16.062 L 8.311 16.332 C 8.747 16.478 9.223 16.551 9.696 16.667 L 10.69 16.812 L 11.01 16.836 L 11.551 16.877 L 11.748 16.877 C 11.94 16.903 12.134 16.906 12.325 16.882 L 12.531 16.877 L 12.784 16.872 L 13.645 16.804 C 14.032 16.718 14.438 16.731 14.804 16.62 L 15.648 16.415 C 16.15 16.269 16.644 16.097 17.128 15.896 C 17.729 15.645 18.306 15.338 18.85 14.98 C 19.037 14.855 19.3 14.762 19.35 14.499 C 19.391 14.277 19.164 14.192 18.972 14.245 Z" fill-rule="evenodd"/>
</svg>