<svg viewBox="0 0 24 24" xmlns="http://www.w3.org/2000/svg"><path d="M7.25 6.741c-.725.157-1.389.72-1.673 1.418-.107.264-.174.648-.146.84.016.106.034.121.145.121.07 0 .233-.028.363-.062.722-.187 1.355-.868 1.56-1.676.063-.248.083-.704.031-.699a9 9 0 0 0-.28.058m5.26.567-.63.262v1.31h-1.002l.011.49.011.49.468.011.469.012.012 3.048c.012 3.021.013 3.051.1 3.309.174.514.419.781.885.967.201.081.29.09.806.085.398-.004.687-.029.92-.08l.34-.074.011-.514.011-.514-.111.026a5 5 0 0 1-.533.05c-.37.022-.445.015-.605-.056-.154-.068-.2-.117-.298-.315l-.115-.235-.012-2.85-.011-2.85H14.8v-.998l-.77-.011-.77-.011-.011-.91c-.008-.69-.022-.909-.06-.907a10 10 0 0 0-.679.265m2.611 1.602c.001.017.672 1.884 1.492 4.15l1.49 4.12.807.011c.761.01.809.006.848-.066.022-.043.714-1.884 1.538-4.091.823-2.208 1.509-4.045 1.525-4.084.026-.065-.023-.07-.707-.069h-.734l-.99 2.83a161 161 0 0 0-1.22 3.579c-.127.412-.239.749-.25.75-.011 0-.098-.284-.194-.63s-.618-1.957-1.16-3.58l-.986-2.949-.73-.001c-.402 0-.729.014-.729.03m-8.281.405a10 10 0 0 0-.72.242c-.56.209-.705.206-1.3-.028-.567-.223-.767-.263-1.195-.238a2.16 2.16 0 0 0-1.156.386c-.682.447-1.132 1.183-1.272 2.083-.065.412-.023 1.362.079 1.809.276 1.207.909 2.415 1.664 3.175.558.561.92.621 1.762.29.434-.171.443-.173.938-.173s.505.002.933.17c.238.094.536.182.663.195.289.03.602-.056.869-.239.463-.318 1.214-1.416 1.528-2.235l.119-.309-.226-.127a2.56 2.56 0 0 1-.919-.951c-.196-.381-.257-.635-.257-1.082 0-.72.322-1.371.908-1.838l.22-.176-.127-.16c-.523-.661-1.665-1.022-2.511-.794" fill-rule="evenodd"/></svg>