<svg viewBox="0 0 24 24" xmlns="http://www.w3.org/2000/svg"><path d="M5.48 6.907c-.977.17-1.945.665-2.699 1.379-.931.881-1.485 2.02-1.621 3.335-.092.885.167 2.012.66 2.877a5.38 5.38 0 0 0 3.718 2.611c.479.087 1.428.084 1.942-.007 1.594-.281 3.053-1.253 4.259-2.836l.289-.38.247.334c1.172 1.582 2.635 2.57 4.266 2.883.496.095 1.476.095 1.958.001 1.064-.208 1.953-.661 2.711-1.381 2.146-2.039 2.187-5.259.092-7.344a5.17 5.17 0 0 0-2.859-1.48c-.608-.102-1.706-.066-2.266.075-1.505.378-2.834 1.322-3.911 2.776-.134.181-.255.33-.268.33s-.144-.16-.29-.355C10.577 8.21 8.975 7.151 7.439 6.902c-.481-.078-1.498-.076-1.959.005m1.869 1.836c.868.193 1.759.759 2.485 1.58.326.369.852 1.116 1.043 1.481l.097.185-.189.335a7.5 7.5 0 0 1-1.152 1.536c-.673.698-1.292 1.096-2.053 1.321-.487.145-1.323.182-1.817.082-1.157-.234-2.078-.981-2.52-2.042-.748-1.797.263-3.836 2.193-4.423.505-.153 1.359-.177 1.913-.055m11.057.023c1.111.252 2.059 1.122 2.433 2.232.125.37.164.618.164 1.042-.001 1.235-.8 2.437-1.984 2.984-1.162.537-2.615.378-3.782-.414-.789-.535-1.571-1.415-2.115-2.379l-.129-.23.248-.417c1.325-2.224 3.221-3.258 5.165-2.818M16.84 10.94v.54h-1.122l.011.53.011.53.55.011.55.011V13.6h1.04v-1.038l.53-.011.53-.011.011-.53.011-.53H17.84V10.4h-1zM5 12.02v.54h3.2v-1.08H5z" fill-rule="evenodd"/></svg>