<svg viewBox="0 0 24 24" xmlns="http://www.w3.org/2000/svg"><path d="m9.811 2.91 5.231 9.1c4.056 7.057 5.225 9.06 5.261 9.02.074-.08 1.741-2.949 1.842-3.17.277-.607.281-1.252.011-1.791-.047-.093-1.644-2.896-3.55-6.229-3.329-5.82-3.477-6.071-3.746-6.341q-.457-.46-1.012-.575c-.241-.05-4.063-.063-4.037-.014M7.988 5.926c-.208.33-4.588 7.998-4.588 8.032 0 .029 1.441.042 4.684.042 4.395 0 4.683-.004 4.658-.068-.034-.091-4.618-8.022-4.661-8.066-.018-.019-.06.008-.093.06M1.695 17.05c.031.049.447.765.925 1.59.477.825.933 1.587 1.013 1.693a2.15 2.15 0 0 0 1.084.723c.196.058.816.064 6.195.064 4.765 0 5.972-.01 5.956-.05A192 192 0 0 0 15.672 19l-1.176-2.02-6.429-.01-6.429-.01z" fill-rule="evenodd"/></svg>