<svg viewBox="0 0 24 24" xmlns="http://www.w3.org/2000/svg"><path d="M11.033 2.56c-3.32.299-6.219 2.271-7.673 5.22a9.6 9.6 0 0 0-.907 2.866c-.101.636-.101 2.072 0 2.708.325 2.069 1.25 3.908 2.688 5.345 1.448 1.449 3.284 2.366 5.379 2.687.625.096 1.957.097 2.602.002 2.163-.32 4.047-1.283 5.539-2.833a8.8 8.8 0 0 0 1.66-2.375 9.1 9.1 0 0 0 .975-4.18c0-1.51-.308-2.828-.975-4.18a8.8 8.8 0 0 0-1.7-2.415 9.6 9.6 0 0 0-4.478-2.589c-.883-.224-2.23-.335-3.11-.256m4.039 4.277c.201.104 2.835 2.764 3.022 3.051a4.33 4.33 0 0 1 .557 3.452c-.229.851-.808 1.715-1.484 2.214a4.25 4.25 0 0 1-4.947.115c-.265-.177-2.912-2.784-3.004-2.958-.243-.461.031-1.068.537-1.189a.75.75 0 0 1 .417-.001c.203.047.253.092 1.53 1.36.851.846 1.41 1.369 1.572 1.473.299.19.637.309 1.044.366.835.117 1.766-.267 2.268-.934a2.15 2.15 0 0 0 .414-.806c.195-.632.139-1.275-.166-1.9-.16-.328-.213-.387-1.497-1.68-.884-.89-1.352-1.39-1.393-1.489-.126-.303-.042-.735.183-.936.253-.227.661-.286.947-.138m-4.621.876c.445.12.902.329 1.302.593.493.328 2.879 2.689 3.033 3.002.13.266.117.518-.041.787-.21.358-.705.51-1.065.327-.077-.04-.743-.669-1.48-1.398-.956-.946-1.4-1.358-1.548-1.437-.871-.461-1.879-.423-2.683.1-.923.601-1.329 1.871-.939 2.934.065.177.168.402.229.5.061.099.709.782 1.439 1.519 1.389 1.401 1.422 1.443 1.422 1.78a.846.846 0 0 1-1.013.815c-.202-.042-.239-.075-1.58-1.409-1.452-1.445-1.656-1.689-1.951-2.326-.396-.859-.474-1.928-.211-2.9.17-.627.627-1.395 1.105-1.856.535-.515 1.327-.927 2.09-1.087.401-.083 1.492-.051 1.891.056" fill-rule="evenodd"/></svg>