<svg viewBox="0 0 24 24" xmlns="http://www.w3.org/2000/svg"><path d="M9.48 3.359A4.88 4.88 0 0 0 5.59 6.06a6.2 6.2 0 0 0-.434 1.3c-.066.335-.066 1.345 0 1.68.135.687.451 1.433.846 2 .269.386.868.97 1.23 1.2l.283.18.003 4.132.002 4.131 3.75-.013c3.636-.014 3.761-.017 4.11-.098 1.001-.232 1.753-.652 2.398-1.338.734-.78 1.111-1.748 1.111-2.854-.001-1.389-.705-2.57-2.081-3.488l-.332-.222.675-.685c1.044-1.061 1.437-1.732 1.675-2.865.098-.468.097-1.375-.003-1.84-.278-1.302-1.005-2.394-2.066-3.103a5.1 5.1 0 0 0-1.913-.782c-.265-.052-4.899-.084-5.364-.036m5.38 1.417c.625.157 1.455.663 1.822 1.11.371.453.623.934.762 1.454.122.456.122 1.269.001 1.72a4.7 4.7 0 0 1-.53 1.17c-.16.236-1.191 1.282-4.002 4.055-1.202 1.187-2.179 2.126-2.169 2.087.054-.229.896-4.533.896-4.584 0-.053-.153-.063-1.17-.077l-1.17-.015-.38-.128c-1.185-.396-2.048-1.297-2.365-2.47-.123-.454-.123-1.302 0-1.758a3.56 3.56 0 0 1 1.866-2.291 3.6 3.6 0 0 1 1.086-.328c.15-.018 1.353-.029 2.673-.024 2.136.008 2.431.017 2.68.079" fill-rule="evenodd"/></svg>