<svg viewBox="0 0 24 24" xmlns="http://www.w3.org/2000/svg"><path d="M2.94 2.961c-.714.146-1.112.728-1.202 1.759-.047.531.21 3.852.427 5.54.156 1.208.488 1.924 1.206 2.607.6.569 1.244.887 2.229 1.098.352.075.548.091 1.204.093l.785.002-.465.122c-2.146.566-3.328 1.737-3.132 3.104.108.755.5 1.414 1.325 2.234 1.07 1.062 1.954 1.537 2.863 1.539.717.002 1.226-.231 1.841-.839.421-.417.764-.912 1.108-1.599.236-.47.571-1.29.749-1.831.049-.148.104-.27.122-.27s.073.122.122.27c.178.541.513 1.361.749 1.831.341.682.688 1.182 1.107 1.599.609.606 1.124.841 1.842.839.909-.002 1.792-.477 2.863-1.539.821-.814 1.217-1.482 1.325-2.234.196-1.367-.986-2.538-3.132-3.104l-.465-.122.785-.002c.85-.003 1.287-.068 1.924-.286.804-.275 1.534-.803 1.98-1.432.544-.767.682-1.315.898-3.56.255-2.668.314-4.088.19-4.59-.335-1.353-1.475-1.628-3.188-.769-.75.376-1.347.807-2.17 1.567-1.539 1.422-3.425 3.87-4.497 5.835-.172.316-.322.574-.333.574s-.159-.256-.33-.569C10.466 8.621 8.264 5.863 6.6 4.479 5.283 3.384 3.828 2.78 2.94 2.961" fill-rule="evenodd"/></svg>