<svg viewBox="0 0 24 24" xmlns="http://www.w3.org/2000/svg"><path d="M1.16 4.36v.4l1.47.001c1.623 0 1.814.021 2.104.23.104.075.21.205.285.349.106.205.118.268.119.595 0 .285-.018.405-.083.547-.185.404-.476.601-1.002.677-.15.022-.862.04-1.583.04L1.16 7.2v4.44h1.555c1.774 0 2.069-.03 2.557-.26.732-.346 1.168-1.084 1.168-1.98 0-.394-.076-.726-.231-1.016-.138-.258-.533-.654-.779-.784-.105-.055-.19-.112-.19-.127s.056-.067.124-.116c.208-.148.469-.541.561-.846.071-.232.082-.346.065-.685-.029-.594-.16-.921-.507-1.269a2 2 0 0 0-.5-.375c-.409-.192-.697-.219-2.333-.221L1.16 3.96zm11.043 2.949a937 937 0 0 0-1.114 2.961c-.013.037.067.05.319.05h.336l.917-2.459c.504-1.353.928-2.446.943-2.43s.427 1.109.915 2.429.902 2.414.918 2.432.174.026.349.02l.318-.012-1.108-2.94-1.109-2.94-.293-.011-.294-.01zM16.32 8.96v3.24h.679l.011-2.389.01-2.389 2.059 2.429c1.133 1.336 2.074 2.429 2.09 2.429s.031-1.458.031-3.24V5.8h-.639l-.011 2.379-.01 2.38-2.06-2.417c-1.133-1.33-2.082-2.419-2.11-2.42-.04-.002-.05.672-.05 3.238M7.16 6.435v.28l1.19.012c1.331.015 1.37.022 1.663.305.262.252.326.416.327.828 0 .325-.012.381-.119.574a1.4 1.4 0 0 1-.257.329c-.267.22-.387.237-1.651.237H7.16v2.68h.56V9.6h1.553l.581 1.03.58 1.03.323.012c.178.006.323.001.323-.012 0-.012-.27-.501-.6-1.085-.33-.585-.6-1.076-.6-1.091 0-.016.079-.066.176-.113.57-.277.944-.957.893-1.621-.053-.69-.439-1.225-1.069-1.48-.208-.084-.288-.089-1.47-.102l-1.25-.013zM4.556 7.978c.443.118.803.451.954.882.11.315.093.82-.039 1.109-.138.3-.29.488-.511.63-.331.214-.534.241-1.828.241H1.96V7.92h1.19c.907.001 1.241.015 1.406.058m7.104 4.288a3.25 3.25 0 0 0-2.055 1.483c-.323.545-.517 1.35-.466 1.931.081.927.438 1.705 1.05 2.287a3.06 3.06 0 0 0 2.155.873c.547 0 1.216-.169 1.612-.408a3.6 3.6 0 0 0 1.182-1.202l.109-.189-.093-.035-.324-.12-.229-.085-.086.17c-.047.093-.231.313-.41.489-.499.492-1.018.707-1.725.714-.767.008-1.396-.286-1.922-.9-.426-.497-.639-1.177-.609-1.948.029-.746.251-1.264.763-1.774.306-.306.755-.55 1.168-.635.34-.069.925-.059 1.206.023.351.101.811.356 1.056.583l.218.203.172-.093c.094-.051.22-.133.28-.181l.108-.088-.286-.276a2.97 2.97 0 0 0-1.543-.824 3.8 3.8 0 0 0-1.331.002m6.74.089c-1.396.309-2.443 1.365-2.808 2.833-.125.503-.125 1.401 0 1.904.347 1.393 1.307 2.418 2.615 2.789.381.109 1.123.148 1.534.081a3.66 3.66 0 0 0 2.795-2.255c.235-.588.278-.832.278-1.567s-.043-.979-.278-1.567a3.94 3.94 0 0 0-1.279-1.637 4.3 4.3 0 0 0-1.177-.554c-.408-.106-1.26-.119-1.68-.027m-16.64.562v.363h1.177c.648 0 1.316.019 1.487.043.616.086 1.105.33 1.556.777.516.512.779 1.195.779 2.02 0 1.275-.675 2.273-1.8 2.66-.335.115-.352.117-1.389.132l-1.05.015v-2.61l-.37.011-.37.012-.01 1.673-.011 1.673 1.431-.016c1.641-.019 1.817-.046 2.47-.372a3.3 3.3 0 0 0 1.526-1.558c.283-.587.347-.891.348-1.64 0-.583-.01-.672-.109-1-.212-.7-.472-1.143-.93-1.584a3.2 3.2 0 0 0-1-.67c-.561-.246-.656-.257-2.265-.275l-1.47-.017zm17.98.183a2.96 2.96 0 0 1 1.271.621c.425.381.792 1.002.936 1.586.096.386.094 1.294-.003 1.673-.161.633-.569 1.287-1.038 1.665-.518.418-1.008.576-1.766.571-.448-.003-.564-.018-.84-.109-1.345-.442-2.161-1.832-1.98-3.37.215-1.834 1.662-2.95 3.42-2.637m-11.7 1.46V15h.6v-.88h-.6zm0 3.36v2.12h.6V15.8h-.6z" fill-rule="evenodd"/></svg>