<svg viewBox="0 0 24 24" xmlns="http://www.w3.org/2000/svg"><path d="M4.324 3.063a1.78 1.78 0 0 0-1.27 1.277c-.043.164-.053 1.558-.053 7.66s.01 7.496.053 7.66c.17.636.613 1.083 1.263 1.276.197.058.934.064 7.683.064s7.486-.006 7.683-.064c.65-.193 1.093-.64 1.263-1.276.043-.164.053-1.559.054-7.663 0-6.747-.006-7.483-.064-7.68-.194-.653-.637-1.089-1.277-1.256-.208-.054-1.115-.061-7.677-.058-6.372.002-7.473.011-7.658.06m3.028 3.794c.473.218.705.608.703 1.183 0 .352-.103.608-.338.843l-.147.147.217.155c.486.348.671.898.511 1.517a1.36 1.36 0 0 1-.878.962c-.174.064-.354.076-1.37.088l-1.17.013V8.84h.953c1.11 0 1.289-.032 1.481-.265a.83.83 0 0 0 .176-.719c-.058-.273-.144-.4-.346-.508-.155-.083-.223-.089-1.214-.101l-1.05-.013v-.521l1.11.014 1.11.013zm6.587 2.026c.391 1.036.719 1.918.73 1.96.018.069-.002.077-.186.077-.248 0-.152.194-.885-1.789-.295-.797-.549-1.436-.564-1.42s-.285.722-.598 1.569c-.314.847-.587 1.562-.608 1.59-.039.051-.428.072-.428.023 0-.015.328-.897.73-1.96l.73-1.932.185-.001h.184zm2.317.59 1.344 1.573V7.92h.44v2.12c0 1.166-.014 2.12-.031 2.12s-.633-.712-1.37-1.582L15.3 8.996l-.01 1.562-.011 1.562h-.439V9.997c0-1.232.015-2.118.036-2.11.019.007.64.721 1.38 1.586m-5.55-1.184c.782.411.813 1.505.054 1.961l-.152.093c-.007.004.169.327.39.717s.402.717.402.726-.094.013-.209.006l-.21-.012-.385-.68-.385-.68-.505-.011-.506-.011V11.8h-.36v-1.76l.75-.001c.856-.001.991-.035 1.194-.3.094-.124.116-.197.127-.415.015-.324-.089-.535-.332-.673-.15-.085-.204-.09-.949-.09l-.79-.001v-.407l.83.014c.811.014.835.017 1.036.122M5.4 10.277v.963h.773c.912 0 1.107-.04 1.344-.277.365-.365.363-1.056-.003-1.388-.242-.22-.314-.234-1.244-.248l-.87-.013zm7.509 1.969c.292.108.587.298.785.505l.154.161-.153.104a.8.8 0 0 1-.189.104c-.02 0-.108-.065-.196-.144a2 2 0 0 0-.425-.27c-.243-.115-.299-.126-.668-.126-.385.001-.417.008-.707.151-.48.237-.749.586-.896 1.162-.119.461.015 1.083.321 1.501.667.907 2.024.877 2.669-.059l.116-.17.19.063c.105.035.196.068.203.074.036.03-.287.462-.48.644-.387.363-.841.534-1.417.534-1.347 0-2.332-1.301-2.037-2.69a2.15 2.15 0 0 1 1.589-1.612c.331-.075.837-.045 1.141.068m4.339-.002c.804.166 1.541.895 1.776 1.756.109.399.1 1.095-.018 1.48-.264.856-.905 1.496-1.704 1.699-.31.079-.885.078-1.196-.002-1.184-.306-1.945-1.505-1.784-2.81.125-1.017.825-1.852 1.763-2.104.259-.07.871-.08 1.163-.019m-9.768.213c.934.296 1.536 1.092 1.588 2.101.039.746-.167 1.301-.667 1.805-.559.564-.93.675-2.251.676l-.87.001v-2.2h.48v1.72l.57-.001c.899-.001 1.317-.128 1.717-.524.338-.334.512-.789.513-1.341 0-.55-.184-.998-.56-1.361-.417-.402-.763-.491-1.91-.492l-.81-.001v-.488l.99.018c.792.014 1.034.032 1.21.087m8.8.279a1.8 1.8 0 0 0-.881.499c-.677.678-.774 1.867-.219 2.703a1.836 1.836 0 0 0 2.895.198c.855-.971.614-2.589-.48-3.23-.341-.199-.875-.268-1.315-.17m-6.48.944v.28h-.4v-.56h.4zm0 2.2v1.4h-.4v-2.8h.4z" fill-rule="evenodd"/></svg>