<?xml version="1.0" encoding="utf-8"?>
<svg viewBox="0 0 24 24" xmlns="http://www.w3.org/2000/svg">
  <defs/>
  <path d="M 6.354 7.162 C 3.906 8.687 2.507 10.852 2.507 10.852 C 2.507 10.852 2.869 6.312 6.354 3.655 C 7.739 2.6 9.632 1.716 12.18 1.716 C 13.136 1.716 15.144 1.881 16.953 2.997 C 18.759 4.11 19.488 5.044 20.303 6.411 C 20.655 7 20.94 7.758 21.121 8.489 C 21.455 9.859 21.493 11.497 21.493 11.497 L 21.493 13.653 L 8.577 13.653 C 8.577 13.653 8.262 17.993 14.204 17.993 C 16.268 17.993 16.991 17.667 17.672 17.467 C 18.737 17.153 19.763 16.451 19.763 16.451 L 19.765 20.787 C 19.765 20.787 17.333 22.285 13.659 22.285 C 12.625 22.285 11.535 22.196 10.484 21.856 C 9.567 21.56 7.639 20.753 6.354 18.871 C 5.897 18.204 5.405 17.317 5.161 16.451 C 4.895 15.515 4.898 14.603 4.898 14.101 C 4.898 12.226 5.54 10.436 6.652 9.142 C 8.092 7.466 9.914 6.729 9.914 6.729 C 9.914 6.729 9.32 7.419 8.952 8.278 C 8.589 9.138 8.491 10.005 8.491 10.005 L 15.785 10.005 C 15.785 10.005 16.212 5.648 11.657 5.648 C 9.941 5.648 7.832 6.243 6.354 7.162 Z" style="" transform="matrix(1, 0, 0, 1, -1.4210854715202004e-14, 0)"/>
</svg>