<svg viewBox="0 0 24 24" xmlns="http://www.w3.org/2000/svg"><path d="M2 11.19c0 1.374.011 1.715.061 1.909a1.85 1.85 0 0 0 1.485 1.347c1.19.204 2.281-.878 2.093-2.076-.215-1.368-1.746-2.004-2.804-1.166l-.153.121-.011-.892-.011-.893-.33-.012L2 9.517zm7.841-.04c0 1.799.015 1.944.245 2.375.346.649 1.155 1.047 1.878.923.385-.066.675-.213.971-.49.755-.705.778-1.89.051-2.617-.638-.638-1.671-.69-2.307-.115l-.159.143V9.52h-.68zm4.119.06c.001 1.283.014 1.738.054 1.89.243.907 1.139 1.498 2.041 1.347.918-.155 1.545-.888 1.545-1.807 0-.553-.19-.997-.579-1.352a1.7 1.7 0 0 0-.918-.445 1.59 1.59 0 0 0-1.293.352l-.21.167V9.52h-.64zm4.218-1.64c-.01.028-.014 1.121-.008 2.43l.01 2.38.35.012.35.011V9.52h-.341c-.236 0-.347.015-.361.05m2.445 1.352c-.806.285-1.281 1.118-1.145 2.008.211 1.369 1.633 1.939 3.054 1.224.127-.064.241-.141.252-.17.015-.04-.169-.416-.244-.497a.6.6 0 0 0-.184.075c-.895.457-1.756.315-2.061-.34a1.2 1.2 0 0 1-.095-.252c0-.039.297-.05 1.354-.05h1.355l.023-.196a2.1 2.1 0 0 0-.171-.993 1.6 1.6 0 0 0-.761-.747c-.233-.11-.305-.124-.7-.134-.364-.01-.481.003-.677.072M6.12 12.015c0 1.15.023 1.384.163 1.681.256.546.943.862 1.638.755.726-.113 1.145-.537 1.238-1.255.021-.163.039-.741.04-1.286l.001-.99h-.76v1.141c0 1.24-.012 1.322-.23 1.549-.123.129-.311.189-.587.19-.288 0-.519-.125-.654-.354l-.109-.186-.012-1.17-.012-1.17H6.12zm15.45-.518c.083.03.213.102.291.161.155.119.339.444.339.601v.101h-1c-.774 0-1-.011-1-.05.001-.09.187-.447.289-.556a1.08 1.08 0 0 1 1.081-.257m-17.265.135c.416.213.631.558.631 1.012 0 .855-.901 1.382-1.661.97-.351-.19-.547-.53-.552-.958-.006-.521.255-.897.752-1.083.203-.076.624-.046.83.059m7.85-.015c.692.359.854 1.208.34 1.781-.678.754-1.935.247-1.935-.78 0-.438.32-.883.75-1.043.197-.074.666-.051.845.042m4.11.015c.419.214.622.541.622 1.002 0 .475-.196.794-.615 1.004-.341.17-.643.17-.984 0-.416-.208-.615-.53-.615-.995 0-.516.261-.883.762-1.07.203-.076.624-.046.83.059M1.288 13.641a.57.57 0 0 0-.194.226c-.052.125-.053.165-.006.288.058.152.272.325.402.325.137 0 .352-.127.412-.243.122-.236.027-.524-.203-.62-.182-.076-.254-.072-.411.024" fill-rule="evenodd"/></svg>