<svg viewBox="0 0 24 24" xmlns="http://www.w3.org/2000/svg"><path d="M11.795 1.104c-.036.011-2.466 1.124-5.4 2.474C2.302 5.461 1.06 6.049 1.06 6.102c0 .038.045.102.1.142s2.469 1.162 5.365 2.494c4.834 2.224 5.283 2.422 5.475 2.422s.633-.195 5.355-2.365c2.83-1.301 5.249-2.418 5.375-2.481.25-.125.298-.229.14-.304l-5.35-2.469c-5.364-2.474-5.463-2.516-5.725-2.437M3.24 10.897c-1.687.755-2.135.968-2.176 1.033-.032.051-.032.089 0 .14.025.038 2.427 1.167 5.34 2.51l5.296 2.44h.6l5.296-2.44c2.912-1.342 5.315-2.472 5.339-2.51.032-.051.033-.089.001-.14-.024-.038-.654-.347-1.4-.686-1.162-.528-1.39-.619-1.596-.633l-.24-.017-3.72 1.711c-3.695 1.7-3.722 1.712-3.98 1.711s-.293-.015-3.974-1.708C4.649 10.755 4.294 10.6 4.106 10.6c-.169.001-.323.053-.866.297m.64 5.619c-.23.076-2.706 1.215-2.771 1.274-.04.036-.067.091-.06.123.006.033 2.239 1.084 5.351 2.518 5.323 2.453 5.341 2.461 5.6 2.461s.271-.005 5.6-2.461c3.084-1.421 5.345-2.486 5.351-2.519.007-.031-.021-.086-.061-.123-.039-.036-.675-.339-1.411-.674-1.24-.565-1.357-.61-1.579-.612-.233-.002-.344.046-3.911 1.687-2.019.929-3.747 1.708-3.84 1.731a.57.57 0 0 1-.349-.013c-.099-.031-1.815-.807-3.813-1.724-3.718-1.707-3.84-1.757-4.107-1.668" fill-rule="evenodd"/></svg>