<svg viewBox="0 0 24 24" xmlns="http://www.w3.org/2000/svg"><path d="M2.809 3.347c-.241.085-.578.407-.694.662l-.095.211-.011 6.779c-.011 7.471-.02 7.171.235 7.785.399.957 1.134 1.593 2.157 1.866l.339.09h8.1c9.197 0 8.323.034 8.735-.343.358-.326.494-.78.366-1.219-.115-.397-.347-.659-.761-.86-.103-.05-1.232-.061-8.18-.078-7.608-.019-8.067-.024-8.189-.091a.6.6 0 0 1-.2-.2c-.067-.121-.072-.525-.091-6.929l-.02-6.8-.095-.211c-.12-.265-.454-.577-.711-.665-.233-.079-.657-.078-.885.003m16.349 2.465c-.1.029-.244.09-.32.138s-1.083 1.032-2.237 2.188l-2.1 2.101-1.2-1.195q-1.2-1.195-1.381-1.286c-.253-.127-.685-.152-.967-.055-.198.067-.385.244-2.604 2.455-1.698 1.691-2.416 2.433-2.476 2.556-.117.242-.142.657-.056.918a1.245 1.245 0 0 0 1.695.748c.197-.09.473-.348 2.029-1.902.99-.989 1.817-1.798 1.838-1.798s.588.545 1.26 1.212c1.102 1.093 1.242 1.219 1.434 1.285.296.102.714.073.987-.068.151-.078.853-.758 2.845-2.756 2.506-2.513 2.65-2.665 2.73-2.885a1.244 1.244 0 0 0-1.056-1.684 1.3 1.3 0 0 0-.421.028" fill-rule="evenodd"/></svg>