<svg viewBox="0 0 24 24" xmlns="http://www.w3.org/2000/svg"><path d="M2.918 3.292c-.348.098-.62.327-.808.679l-.09.169v14.04l.094.298c.379 1.207 1.348 2.058 2.553 2.242.185.028 2.874.038 8.333.031l8.06-.011.229-.112c.577-.284.853-.965.631-1.56a1.2 1.2 0 0 0-.631-.676l-.267-.132-8.063-.02c-7.616-.019-8.068-.024-8.17-.091a.7.7 0 0 1-.178-.178c-.067-.101-.072-.498-.091-6.909-.023-7.713.013-6.986-.363-7.398-.315-.344-.811-.493-1.239-.372M19.111 4.56c-.302.091-.653.428-.775.742-.073.191-.076.37-.076 4.838v4.64l.089.193c.147.319.312.493.603.636.232.114.305.131.567.128.232-.002.347-.025.501-.099a1.42 1.42 0 0 0 .621-.618l.099-.2V5.46l-.105-.223c-.22-.47-.608-.718-1.115-.713a2 2 0 0 0-.409.036M11.7 7.035c-.229.061-.45.202-.632.404-.327.365-.311.146-.299 4.004l.011 3.417.107.203a1.22 1.22 0 0 0 1.113.676c.379.001.674-.131.932-.418.325-.362.311-.171.299-4.021l-.011-3.4-.091-.184a1.24 1.24 0 0 0-1.043-.697 1.7 1.7 0 0 0-.386.016m3.518 2.599c-.294.14-.545.412-.646.699-.066.189-.072.385-.072 2.287 0 2.396-.006 2.351.348 2.725.268.283.524.393.913.393.248 0 .341-.02.529-.111.279-.137.52-.402.629-.693.078-.208.081-.304.081-2.288 0-2.323-.001-2.328-.278-2.679-.233-.295-.56-.447-.958-.447-.251 0-.346.02-.546.114m-7.392 1.188c-.212.078-.45.261-.594.456-.221.301-.232.396-.232 1.987 0 1.648.01 1.714.323 2.069.239.271.54.404.916.404.397 0 .653-.112.918-.403.337-.368.343-.404.343-2.116v-1.481l-.132-.267a1.2 1.2 0 0 0-.676-.631c-.252-.094-.637-.102-.866-.018" fill-rule="evenodd"/></svg>