<svg viewBox="0 0 24 24" xmlns="http://www.w3.org/2000/svg"><path d="M9.32 4.442a5.41 5.41 0 0 0-4.636 3.705c-.16.492-.24.935-.271 1.496l-.025.466-.329.148a4.87 4.87 0 0 0-2.885 4.263c-.044 1.074.215 1.994.815 2.896.711 1.069 1.728 1.753 3.111 2.091.257.063.819.07 6.9.083 4.868.011 6.721.002 7-.032 1.903-.233 3.378-1.594 3.769-3.478.113-.545.084-1.422-.065-1.952a4.39 4.39 0 0 0-3.168-3.086L19.372 11l.071-.21c.107-.318.168-.849.136-1.19-.109-1.179-.769-2.155-1.799-2.663-.539-.265-.778-.317-1.46-.317-.657 0-.94.065-1.458.333l-.308.159c-.014.006-.066-.057-.117-.14-.188-.312-.603-.811-.92-1.105A5.45 5.45 0 0 0 9.32 4.442" fill-rule="evenodd"/></svg>