<svg viewBox="0 0 24 24" xmlns="http://www.w3.org/2000/svg"><path d="M11.974 7.263a5.2 5.2 0 0 0-2.101.884c-.39.282-.995.902-1.241 1.273-.204.309-.492.865-.534 1.033-.015.059-.039.115-.055.125-.015.009-.109-.036-.209-.102-.3-.195-.613-.287-1.037-.307-.482-.022-.753.033-1.167.241-.415.207-.804.584-.983.952-.201.413-.26.712-.237 1.203l.02.424-.245.024c-1.619.158-2.864 1.561-2.865 3.229 0 .276.017.446.05.491.047.063.517.067 7.27.057l7.22-.01.096-.28c.057-.167.103-.414.115-.611.018-.31.011-.347-.107-.587a1 1 0 0 0-.295-.381c-.336-.247-.21-.239-4.548-.296-4.15-.054-4.038-.048-4.04-.212-.002-.124.125-.173.452-.175.18-.001 1.992-.027 4.027-.057 4.013-.059 3.856-.049 4.371-.292a3.04 3.04 0 0 0 1.243-1.139c.054-.094.218-.483.365-.866l.268-.696-.128-.404c-.258-.82-.621-1.439-1.186-2.026a5.07 5.07 0 0 0-3.713-1.554 6 6 0 0 0-.806.059m6.24 4.125c-.026.018-.131.32-.234.672-.143.49-.187.707-.188.924-.002.554.288.941.827 1.103.066.02.544.063 1.061.096 1.024.065 1.095.085 1.009.273-.055.12-.094.126-1.209.186-.451.024-.91.063-1.02.086-.625.131-1.394.692-1.726 1.259-.143.244-.339.733-.312.777.013.021 1.292.036 3.039.036 2.855 0 3.018-.004 3.054-.071.08-.149.165-.754.165-1.169 0-1.936-1.29-3.581-3.184-4.062-.381-.097-1.201-.167-1.282-.11" fill-rule="evenodd"/></svg>