<svg viewBox="0 0 24 24" xmlns="http://www.w3.org/2000/svg"><path d="M6.632 5.694a1.5 1.5 0 0 0-.342.155c-.181.12-5.343 5.323-5.453 5.496a1.7 1.7 0 0 0-.138.368q-.114.442.127.889c.065.12.815.899 2.19 2.274l2.092 2.092.101-.174c.151-.262 1.151-2.257 1.151-2.298 0-.02-.553-.589-1.23-1.266L3.901 12l.479-.49c.264-.269.966-.981 1.56-1.58l1.079-1.09 1.241 1.24 1.241 1.24.931-.932.932-.933-1.84-1.809c-1.432-1.408-1.882-1.827-2.03-1.893a1.46 1.46 0 0 0-.862-.059m10.061-.018c-.366.094-.478.202-6.036 5.806L5.165 17.02l.588.585c.516.514.616.596.827.674.298.11.662.096.96-.038.219-.098.292-.171 7.545-7.484l3.752-3.784-.57-.565c-.409-.405-.626-.59-.766-.652-.212-.094-.604-.132-.808-.08m2.118 1.49c-.126.21-1.171 2.293-1.171 2.336 0 .021.553.591 1.23 1.268L20.099 12l-.62.63c-.341.346-1.296 1.314-2.123 2.15-1.688 1.707-1.688 1.707-1.693 2.221-.003.261.014.335.127.564.257.523.732.821 1.25.785.507-.036.411.046 3.371-2.906 1.811-1.806 2.737-2.758 2.79-2.866a1.3 1.3 0 0 0-.027-1.18c-.064-.119-.825-.909-2.19-2.274l-2.092-2.092z" fill-rule="evenodd"/></svg>