<svg viewBox="0 0 24 24" xmlns="http://www.w3.org/2000/svg"><path d="M2.48 12v9.52h19.04V2.48H2.48zm15.92.74v5.62h-2.24l-.002-.53-.002-.53-.088.12c-.178.245-.535.564-.769.688-.458.242-.797.31-1.539.311-.729.001-1.011-.048-1.56-.271-1.099-.446-1.931-1.431-2.268-2.688-.1-.372-.107-.459-.11-1.24-.002-.8.003-.859.109-1.238.121-.432.384-1.023.593-1.329.188-.277.657-.754.936-.953a4.2 4.2 0 0 1 1.168-.567c.325-.1.406-.108 1.052-.108.631 0 .732.01 1.021.099.382.118.748.317 1.089.593l.25.203v-3.3l1.11-.245a41 41 0 0 1 1.18-.25c.066-.005.07.287.07 5.615m-4.64-.499c-.576.103-1.127.502-1.38.999-.296.584-.298 1.372-.004 1.952.472.932 1.705 1.309 2.695.824.279-.136.634-.47.808-.759.499-.829.301-2.031-.429-2.609-.445-.353-1.103-.511-1.69-.407" fill-rule="evenodd"/></svg>