<svg viewBox="0 0 24 24" xmlns="http://www.w3.org/2000/svg"><path d="M2.44 6.666v4.226l.546.558.545.558-.545.546-.546.547v8.459h19.12v-8.459l-.547-.548-.547-.548.547-.555.547-.556V2.44H2.44zm17.92.323v3.348l-.72.724-.72.724v.43l.72.724.72.724v6.697H3.64v-6.701l.701-.699c.74-.739.806-.838.736-1.09-.025-.091-.246-.34-.736-.83l-.701-.699V3.64h16.72zM7.262 5.809c-.055.078-.062.392-.061 2.61 0 1.387.01 2.559.023 2.606.042.157.169.175 1.248.174 1.132 0 1.426-.038 1.801-.227.377-.191.693-.613.874-1.166.082-.25.122-1.932.057-2.409-.114-.855-.694-1.486-1.501-1.634-.133-.024-.712-.043-1.308-.043-1.061 0-1.071.001-1.133.089m6.878.041c-.067.148-1.74 5.14-1.74 5.192 0 .018.04.061.089.096.067.047.194.062.518.062.568 0 .585-.015.764-.66l.133-.48.922-.011.923-.01.176.53c.143.435.193.54.275.58.153.076.919.067 1.031-.011.049-.035.089-.09.089-.122 0-.121-1.683-5.153-1.746-5.223-.059-.065-.139-.073-.721-.073h-.654zM9.569 6.891c.303.178.326.274.343 1.44.015 1.081-.012 1.323-.174 1.536-.134.175-.405.253-.885.253H8.48V6.75l.453.017c.402.016.475.03.636.124M15.137 8l.287.97c.02.064-.026.07-.581.07-.332 0-.604-.013-.605-.03-.006-.09.586-1.996.608-1.957.014.026.145.452.291.947M7.36 12.852c-.097.049-.1.065-.112.509-.016.643-.105.599 1.216.599.581 0 1.056.008 1.056.018s-.513.75-1.14 1.644c-.628.895-1.151 1.669-1.164 1.721a3 3 0 0 0-.01.477c.01.286.029.393.074.421.036.022.829.038 1.948.038l1.887.001.063-.089c.046-.066.062-.191.062-.48 0-.589.089-.551-1.3-.551-.627 0-1.139-.014-1.139-.03.001-.017.523-.759 1.161-1.65l1.159-1.62-.01-.479c-.011-.466-.014-.48-.111-.529-.144-.073-3.496-.073-3.64 0m5.613-.014a.3.3 0 0 0-.131.119c-.031.056-.04.861-.033 2.663.01 2.244.019 2.588.071 2.621.094.059 1.028.05 1.068-.011.017-.027.041-.731.052-1.563l.02-1.513.76 1.465c.418.806.8 1.509.848 1.563.085.094.109.098.582.098q.495 0 .542-.048c.036-.036.048-.685.048-2.675 0-2.395-.006-2.632-.066-2.682-.091-.076-.947-.078-1.022-.003-.04.04-.057.398-.072 1.565l-.02 1.513-.775-1.465c-.426-.806-.818-1.51-.87-1.564-.087-.091-.128-.1-.505-.11-.225-.006-.449.006-.497.027" fill-rule="evenodd"/></svg>