<svg viewBox="0 0 24 24" xmlns="http://www.w3.org/2000/svg"><path d="M11.28 2.101c-.143.03-.336.055-.429.057-.33.004-1.952.761-2.651 1.236-.209.142-.421.263-.47.268-.123.015-.372.232-1.014.885-.612.621-.802.889-1.154 1.622-.183.381-.28.536-.386.617-.219.167-.433.634-.84 1.83l-.216.635.001 1.325c.001 2.098.067 2.944.299 3.844a10.9 10.9 0 0 0 2.879 5.001c.814.815 1.601 1.39 2.521 1.842.904.445 1.712.655 2.75.717.536.032.628-.019.18-.099-.545-.097-1.082-.243-1.326-.36-.142-.068-.392-.252-.599-.439a7 7 0 0 0-.368-.322c-.008 0-.003.029.01.065.033.086-.098.047-.367-.109a9 9 0 0 0-.42-.226 7 7 0 0 1-.238-.121c-.011-.007.003-.048.03-.09.068-.111.061-.14-.05-.191-.054-.024-.232-.171-.395-.326-.201-.191-.328-.282-.394-.282-.058 0-.148-.053-.222-.13-.141-.148-.411-.623-.411-.724 0-.05-.024-.062-.09-.047-.077.019-.133-.04-.396-.409-.356-.502-.477-.716-.447-.795.012-.031-.045-.138-.128-.238-.132-.162-.144-.193-.101-.273.042-.078.034-.113-.059-.247-.129-.19-.379-.677-.379-.741 0-.025.062.002.137.059.163.124.183.128.183.034 0-.082-.288-.588-.407-.716a.65.65 0 0 0-.274-.133c-.238-.057-.279-.102-.461-.501-.112-.247-.135-.334-.102-.387.031-.051.023-.111-.036-.24a1.1 1.1 0 0 1-.079-.421 1.3 1.3 0 0 0-.11-.52c-.106-.265-.109-.289-.106-1.071.004-.817.096-1.991.194-2.463.034-.168.164-.484.357-.87.167-.333.304-.627.304-.652s-.027-.066-.06-.091c-.053-.038-.043-.071.074-.244.321-.477 1.231-1.405 1.665-1.699.3-.204.619-.361.731-.361.103 0 .27-.102.27-.165 0-.022-.036-.029-.08-.015-.117.037-.098-.028.05-.166.291-.272.515-.376 1.01-.473.292-.057.523-.131.494-.16a.5.5 0 0 0-.19.023c-.244.054-.253.013-.02-.086.108-.046.412-.19.676-.321.61-.302.786-.33 2.08-.334.809-.002 1.066.011 1.348.068a5.3 5.3 0 0 1 1.252.417c1.284.639 2.477 2.226 2.805 3.732.062.286.074.522.074 1.486.001.63.014 1.125.03 1.1.05-.077.033.18-.028.439-.093.393-.236.68-.377.753-.15.078-.244.248-.245.45a.6.6 0 0 1-.05.237c-.095.166-1.009.944-1.259 1.071-.133.067-.17.043-.08-.054.086-.092-.05-.004-.25.163-.189.157-.571.354-.689.355-.039 0-.243.045-.455.1-.45.117-.806.127-1.248.037-1.068-.22-2.065-1.03-2.513-2.044-.128-.289-.254-.819-.255-1.067 0-.164-.01-.191-.066-.169-.06.023-.064-.01-.041-.326.032-.438.111-.749.285-1.118a3.05 3.05 0 0 1 1.75-1.564c.259-.093.353-.105.832-.106.702-.003 1.004.073 1.531.383.109.065.207.11.217.1.032-.033-.461-.418-.717-.561-.464-.257-.708-.318-1.291-.32-.713-.003-1.069.11-1.647.52-.218.154-.666.657-.958 1.075-.071.102-.278.578-.478 1.1-.065.171-.075 1.105-.015 1.474a3.1 3.1 0 0 0 .58 1.366c.181.235.878.922 1.289 1.272.33.282.328.431-.003.263a4.5 4.5 0 0 1-.745-.552c-.053-.056-.114-.103-.135-.103s.065.117.19.26c.126.143.215.26.199.26s-.252-.219-.523-.487-.501-.479-.512-.468c-.034.034.327.444.606.686.834.724 1.852 1.17 2.777 1.218.378.019.75-.007.707-.05a4 4 0 0 0-.441-.056c-.59-.056-1.162-.182-1.392-.307-.225-.123-.469-.318-.437-.35.011-.013.164.022.34.076.508.157.961.228 1.478.23.574.002.938-.055 1.5-.235.766-.246 1.239-.533 1.973-1.197.335-.303.427-.368.427-.303 0 .142.075.091.1-.067l.042-.267c.01-.065.066-.198.123-.295l.104-.178.083.13.082.13.057-.195c.031-.107.154-.421.272-.698.131-.306.23-.602.251-.754.018-.138.052-.263.075-.277.022-.014.053-.068.069-.119.028-.088.032-.089.084-.02s.056.066.057-.033c0-.058.048-.265.106-.46.157-.528.158-.534.062-.534-.108 0-.133-.093-.122-.468.007-.249-.008-.344-.075-.474a1.3 1.3 0 0 1-.111-.32l-.027-.158.094.129c.052.071.105.13.119.13.036.001-.119-.836-.177-.958a.2.2 0 0 0-.157-.114c-.087-.01-.117-.042-.15-.16a1.2 1.2 0 0 1-.041-.257c0-.093.017-.11.11-.111a.4.4 0 0 0 .169-.037.09.09 0 0 1 .113.008c.074.062.309.533.471.949q.239.607.041-.057a4 4 0 0 1-.124-.64c-.027-.301-.024-.315.042-.261.064.054.067.05.04-.041-.068-.226-.471-1.004-.694-1.34a6.3 6.3 0 0 0-1.763-1.772c-.466-.317-.474-.321-.37-.175.16.224-.005.149-.313-.143-.32-.303-.4-.331-.792-.276-.24.033-.264.028-.621-.128-.408-.179-1.397-.544-1.588-.586-.095-.021-.121-.013-.121.037 0 .051-.051.063-.27.063a7 7 0 0 0-.622.041c-.224.026-.377.027-.42.002-.06-.033-.056-.042.032-.076.099-.037-.007-.053-.64-.097l-.14-.01.14-.089.14-.09-.12.004a3 3 0 0 0-.38.056m1.274.069c.02.02.079.03.131.022.08-.013.075-.018-.036-.037-.08-.013-.117-.007-.095.015M4.502 6.29a2 2 0 0 0-.036.198c-.016.114-.008.142.034.126.065-.024.157-.157.197-.284.024-.078.014-.09-.076-.09-.057 0-.11.023-.119.05m-.454 1.577c-.059.111-.101.413-.058.413.041 0 .149-.434.117-.467-.011-.011-.038.013-.059.054m11.888 2.194a.4.4 0 0 0 .027.225c.05.122.052.123.085.034.038-.103.001-.36-.052-.36-.019 0-.046.045-.06.101m3.653 1.139a.8.8 0 0 0-.025.2c.003.086.009.081.042-.034a.6.6 0 0 0 .025-.2q-.014-.072-.042.034m-4.269.426-.136.224.092.075c.136.11.193.093.283-.083.107-.209.103-.215-.043-.078-.111.103-.236.153-.236.095 0-.012.046-.113.103-.224.14-.277.103-.282-.063-.009m-1.76.927c0 .038.39.167.504.167.042 0 .13-.045.196-.099l.12-.098-.41-.002c-.225 0-.41.014-.41.032m-3.13.385c.059.098.114.171.123.163.023-.023-.163-.341-.199-.341-.018 0 .016.08.076.178m-.47.196c0 .118.527.872.576.823.028-.028-.498-.917-.542-.917-.019 0-.034.042-.034.094" fill-rule="evenodd"/></svg>