<svg viewBox="0 0 24 24" xmlns="http://www.w3.org/2000/svg"><path d="M2.209 3.823a1 1 0 0 0-.494.517c-.068.149-.073.32-.073 2.48s.005 2.331.073 2.48a1 1 0 0 0 .476.507c.187.092.21.093 1.884.113l1.694.02 1.159 2.02c.636 1.111 1.17 2.042 1.186 2.068.019.034.292-.105.884-.449.471-.273.871-.512.89-.531s-.43-.846-1.007-1.856L7.84 9.37V7.84h7.28V5.8l-3.63-.01-3.63-.01-.02-.68c-.019-.654-.024-.687-.131-.869a1.2 1.2 0 0 0-.242-.288c-.299-.229-.229-.223-2.738-.223H2.416zm14.571-.028a1.02 1.02 0 0 0-.525.503l-.094.202-.001 2.322v2.322l.104.208a1 1 0 0 0 .571.507c.262.089 4.589.091 4.841.003.234-.083.431-.245.556-.458l.108-.184.011-2.351c.011-2.226.007-2.361-.063-2.52a1 1 0 0 0-.497-.526l-.207-.103-2.322.001c-2.161.001-2.333.006-2.482.074M9.64 14.117a1.05 1.05 0 0 0-.7.696c-.054.187-.061.516-.051 2.472.011 2.225.012 2.257.098 2.417.114.213.4.474.596.543.127.044.596.055 2.417.055 2.582 0 2.488.011 2.813-.337.31-.331.307-.306.307-2.783 0-2.424-.003-2.45-.27-2.745a1.4 1.4 0 0 0-.307-.248c-.162-.086-.183-.087-2.483-.094-1.276-.004-2.365.007-2.42.024" fill-rule="evenodd"/></svg>