<svg viewBox="0 0 24 24" xmlns="http://www.w3.org/2000/svg"><path d="M11.78 5.986c-1.401.167-2.35.437-3.419.973A8.8 8.8 0 0 0 6.05 8.614c-.416.406-.51.544-.412.605.021.013.239-.162.483-.388C7.519 7.54 8.986 6.817 10.9 6.476c.604-.108 2.04-.15 2.666-.078 2.228.256 4.115 1.164 5.559 2.675.668.698 1.233 1.566 1.54 2.362.082.212.183.417.226.455.098.088.399.094.484.009.054-.054.05-.089-.039-.33-.246-.665-.719-1.505-1.21-2.149-.272-.357-1.019-1.111-1.406-1.419-1.336-1.065-3.025-1.761-4.799-1.98-.45-.055-1.786-.077-2.141-.035m-9.76 4.451c-.653.106-.839.187-1.011.443-.115.17-.103.321.031.388.141.072.419.066.481-.01q.103-.124-.189-.178l-.152-.028.12-.056c.091-.043.315-.056.94-.054.935.002 1.284.058 2.136.343 1.062.355 1.881.838 2.525 1.49.33.333.433.468.58.76.158.313.181.392.193.667.012.267 0 .345-.086.531-.19.415-.571.69-1.216.877-.27.078-.405.09-.992.09-.374 0-.727-.013-.785-.029l-.104-.03-.02-.85a32 32 0 0 1-.014-.859c.023-.031.914.094 1.221.172.537.136.603.236.29.436-.068.044-.12.098-.113.12.017.059.279.115.399.085.158-.04.379-.254.422-.409.147-.534-.567-.946-1.74-1.004l-.485-.024-.023-.344a3 3 0 0 0-.089-.559C4.277 12.199 4.13 12 4.041 12c-.092 0-.182.394-.232 1.017l-.029.357-.321.069c-.427.092-.916.286-1.147.457-.363.267-.339.566.083 1.027.253.277.637.565 1.065.8l.32.176.025.201c.04.326.154.456.399.456.114 0 .276-.178.276-.302 0-.076.016-.1.058-.084.314.12 1.329.161 1.762.071.431-.09.971-.287 1.208-.441.635-.414 1.009-1.14.9-1.752-.191-1.076-1.257-2.192-2.785-2.916a9.6 9.6 0 0 0-1.883-.616c-.478-.095-1.378-.138-1.72-.083m7.191.48a2 2 0 0 0-.818.484c-.345.344-.423.702-.221 1.014a.8.8 0 0 1 .078.258c.024.177.122.327.214.327.028 0 .079-.039.112-.086.054-.078.099-.087.433-.09.335-.004.399-.017.632-.133.522-.259.959-.728.959-1.03 0-.207-.115-.373-.334-.481a2 2 0 0 1-.316-.189c-.122-.096-.501-.135-.739-.074m-.426.843c-.168.175-.305.338-.305.362s-.018.032-.04.018c-.064-.04-.046-.18.042-.323.092-.149.412-.377.53-.377.059 0 .003.079-.227.32m1.407-.232c.158.158-.103.55-.474.709-.346.149-.798.198-.798.087 0-.073.463-.533.685-.681.254-.17.487-.215.587-.115M21 12.57c.001.05.027.288.06.53.032.242.059.517.059.61l.001.17h-.659c-.738 0-.741.001-.741.3s.003.3.747.3h.663l-.029.37a8 8 0 0 1-.065.59c-.063.39-.054.433.101.462.179.034.374-.011.42-.097.04-.073.103-.514.146-1.014l.026-.309.666-.011.665-.011v-.56l-.665-.011-.666-.011-.026-.309c-.041-.474-.109-.941-.15-1.019-.028-.056-.089-.07-.294-.07-.242 0-.259.006-.259.09m-7.413.297c-.053.052-.024.243.13.854.186.738.243 1.139.159 1.111-.031-.01-.2-.244-.376-.521-.654-1.027-.847-1.131-1.057-.57-.187.5-.271 1.58-.146 1.879.102.244.377.226.457-.03.022-.071.053-.386.068-.7s.041-.57.058-.57c.016 0 .145.211.285.468.14.258.337.555.438.66.155.163.205.192.333.192.326 0 .515-.397.516-1.08.001-.642-.188-1.18-.538-1.529-.18-.181-.267-.225-.327-.164m3.802.529c-.554.587-.783 1.375-.549 1.889.039.085.025.15-.093.437-.254.619-.355.992-.377 1.4-.017.33-.009.403.061.54.115.223.299.388.415.371.086-.012.099-.047.164-.433q.116-.696.38-1.42l.116-.32.283-.026c.2-.018.345-.059.49-.137.261-.142.64-.545.777-.826.33-.673.151-1.472-.329-1.471-.318.001-.868.473-1.311 1.123-.185.271-.197.281-.21.173-.02-.174.057-.383.303-.822.165-.294.225-.443.228-.563.002-.09-.017-.17-.041-.178-.024-.009-.162.11-.307.263m-6.895-.155c-.688.124-1.124.512-1.018.908.05.187.213.245.88.312.335.034.695.079.799.102.226.048.445.173.445.254 0 .209-.561.421-1.14.429-.398.005-.62-.073-.62-.22 0-.177.226-.195.592-.046.354.144.665.126.858-.049.101-.092.03-.155-.283-.252-.568-.176-1.07-.142-1.298.086-.106.106-.117.139-.099.3.066.583 1.198.946 1.928.619.445-.199.627-.681.419-1.11-.133-.274-.353-.358-1.234-.471-.4-.052-.737-.104-.749-.116-.097-.097.296-.174 1.066-.209.689-.031.941-.078 1.02-.19.095-.135.074-.172-.15-.269-.174-.076-.295-.093-.71-.103a5 5 0 0 0-.706.025m4.808.062q-.621.097-.622.184c0 .086.164.265.289.315.072.028.136.055.142.059a.7.7 0 0 1-.067.179c-.052.118-.116.189-.202.225-.121.051-.125.059-.117.284.005.127-.021.357-.057.511-.078.336-.045.512.136.718.238.272.538.272 1.105-.001.376-.181.629-.414.591-.544-.063-.211-.2-.232-.829-.128-.217.036-.403.056-.415.045s.008-.12.043-.24l.063-.218.429-.023c.567-.03.576-.035.561-.264l-.012-.185-.394-.011c-.337-.01-.39-.021-.37-.074.014-.034.035-.103.047-.153.021-.085.051-.093.43-.12.487-.033.737-.076.799-.138.057-.057-.063-.295-.206-.408-.083-.065-.161-.075-.541-.072a7 7 0 0 0-.803.059m-6.437.064c-.116.177-.152.457-.171 1.313-.017.775-.012.874.053 1 .125.239.452.269.539.049.048-.123.017-1.251-.05-1.808-.045-.377-.094-.505-.223-.59-.079-.052-.093-.049-.148.036m10.015.745c0 .404-.343.841-.776.988-.122.042-.232.065-.244.053-.055-.054.416-.748.734-1.083.203-.214.286-.202.286.042m-15.12.586v.738l-.168-.059c-.41-.145-1.227-.715-1.322-.923-.061-.134.04-.229.329-.31a7 7 0 0 1 1.051-.18l.11-.004z" fill-rule="evenodd"/></svg>