<svg viewBox="0 0 24 24" xmlns="http://www.w3.org/2000/svg"><path d="M11.573 1.672c-.334.119-.472.239-.887.768-2.588 3.301-4.82 6.869-5.757 9.2-.635 1.58-.816 2.567-.687 3.752.295 2.705 1.914 5.023 4.338 6.212 3.857 1.891 8.526.285 10.424-3.584.637-1.299.921-2.885.737-4.109-.334-2.217-2.116-5.607-5.108-9.718-.739-1.015-1.536-2.053-1.71-2.227-.316-.317-.919-.448-1.35-.294M7.795 14.709c.205.152.273.305.304.68.041.491.151.891.359 1.311.52 1.051 1.508 1.697 2.753 1.801.375.031.528.099.68.304.207.28.081.738-.249.905-.203.102-.426.114-.905.047a4.556 4.556 0 0 1-3.902-4.031c-.051-.477-.035-.641.086-.838.164-.269.625-.363.874-.179" fill-rule="evenodd"/></svg>