<svg viewBox="0 0 24 24" xmlns="http://www.w3.org/2000/svg"><path d="M11.46 2.025c-3.02.181-5.708 1.614-7.504 4-.981 1.305-1.625 2.86-1.88 4.543a11 11 0 0 0 0 2.826c.359 2.365 1.426 4.383 3.162 5.981a9.8 9.8 0 0 0 3.542 2.088c2.303.77 4.678.699 6.98-.209 2.26-.891 4.231-2.74 5.282-4.954a9.7 9.7 0 0 0 .97-4.3c.002-1.187-.141-2.082-.509-3.18-.743-2.226-2.291-4.144-4.343-5.381a10.4 10.4 0 0 0-4-1.356 15 15 0 0 0-1.7-.058m-1.98 9.996v4.181l-.83-.011-.83-.011-.01-4.17-.01-4.17h1.68zm6.68-3.341v.84h-5V7.84h5zm0 3.32v.84h-5v-1.68h5zm0 3.34v.86h-5v-1.72h5z" fill-rule="evenodd"/></svg>