<svg viewBox="0 0 24 24" xmlns="http://www.w3.org/2000/svg"><path d="M8.08 2.14c-1.651.343-2.842 1.701-2.983 3.401-.054.652.145 1.486.506 2.123.175.306.731.922 1.032 1.14l.135.099-.164.108c-.623.413-1.204 1.29-1.412 2.131a4 4 0 0 0-.001 1.713 3.78 3.78 0 0 0 1.276 2.027l.289.233-.198.145c-.314.231-.77.75-.974 1.109-.384.678-.559 1.505-.473 2.239a3.74 3.74 0 0 0 3.004 3.254c.457.092 1.294.063 1.723-.06 1.188-.342 2.169-1.266 2.563-2.413.183-.532.196-.724.197-2.74v-1.891l.29.217c.616.46 1.27.691 2.07.731 2.604.131 4.544-2.341 3.772-4.806-.24-.765-.802-1.541-1.409-1.941l-.093-.062.226-.174c1.219-.94 1.735-2.567 1.275-4.023-.384-1.221-1.275-2.1-2.519-2.489l-.352-.11-3.76-.008c-3.025-.005-3.811.004-4.02.047m3.32 3.643v2.502l-1.55-.013c-1.511-.013-1.557-.016-1.81-.108a2.4 2.4 0 0 1-1.001-.641 2.464 2.464 0 0 1 .02-3.504c.38-.379.903-.645 1.401-.711.066-.009.755-.019 1.53-.022l1.41-.006zm4.4-2.407c.864.28 1.529.969 1.74 1.802.077.307.077.898-.001 1.204a3.6 3.6 0 0 1-.205.538c-.202.415-.681.893-1.098 1.094-.518.249-.651.265-2.226.265l-1.41.001V3.274l1.49.016c1.292.013 1.519.025 1.71.086m-4.41 8.634-.01 2.49-1.22.011c-.671.006-1.366-.006-1.545-.028-.63-.076-1.109-.302-1.523-.721a2.494 2.494 0 0 1 .176-3.686c.234-.195.695-.429.981-.498.15-.036.634-.052 1.681-.055l1.471-.003zm4.352-2.429c.448.114.809.324 1.158.676.506.51.718 1.024.718 1.743 0 .717-.211 1.23-.718 1.745-.261.264-.383.355-.66.486-.438.207-.691.264-1.16.258-.683-.007-1.231-.24-1.721-.729a2.4 2.4 0 0 1-.661-1.12c-.09-.345-.091-.941 0-1.28a2.57 2.57 0 0 1 1.782-1.777c.295-.077.962-.079 1.262-.002m-4.343 7.389c-.001.687-.018 1.381-.039 1.541-.126.965-.841 1.799-1.8 2.096-.439.136-1.101.128-1.513-.018-.675-.238-1.171-.672-1.465-1.281-.192-.399-.262-.696-.261-1.105a2.47 2.47 0 0 1 1.359-2.198c.534-.262.666-.278 2.29-.282l1.43-.003z" fill-rule="evenodd"/></svg>