<svg viewBox="0 0 24 24" xmlns="http://www.w3.org/2000/svg"><path d="M9.186 2.132c-.163.153-.174.204-.203.948-.045 1.121-.383 2.225-1.039 3.392-.345.616-.856 1.371-1.761 2.602-1.293 1.763-1.585 2.231-1.957 3.146-.794 1.954-.887 3.857-.269 5.532.701 1.9 2.569 3.538 4.683 4.105.537.144.572.073.176-.347-.52-.551-.9-1.255-1.044-1.929-.093-.438-.052-1.258.086-1.721.218-.732.56-1.331 1.201-2.102 1.005-1.208 1.501-2.365 1.501-3.503 0-.282.013-.348.08-.415.044-.044.103-.08.132-.08.145 0 .758.445 1.154.838a5.43 5.43 0 0 1 1.403 2.353c.05.181.109.323.131.316.083-.025.302-.405.382-.661.045-.146.091-.383.103-.526.03-.388.044-.426.171-.478.143-.06.204-.03.431.205.471.489 1.039 1.417 1.308 2.134.289.773.425 1.717.348 2.429-.13 1.205-.588 2.119-1.571 3.133-.335.345-.384.412-.341.468.115.151 1.784-.54 2.609-1.081a7.6 7.6 0 0 0 1.382-1.156c1.125-1.157 1.762-2.411 2.058-4.054.092-.511.126-1.858.061-2.451-.223-2.049-.999-4.213-2.201-6.137-.331-.529-.833-1.202-1.138-1.524-.215-.226-.263-.258-.426-.276a.53.53 0 0 0-.299.039c-.228.118-.26.189-.32.716a8 8 0 0 1-.137.813c-.102.413-.419 1.05-.685 1.377-.179.219-.214.246-.238.18a40 40 0 0 1-.199-.614c-.308-.967-.977-2.176-1.704-3.083-.355-.443-1.144-1.234-1.573-1.577a10.6 10.6 0 0 0-1.444-.958c-.443-.238-.641-.251-.851-.053" fill-rule="evenodd"/></svg>