<svg viewBox="0 0 24 24" xmlns="http://www.w3.org/2000/svg"><path d="M11.32 1.987c-1.535.15-2.883.586-3.911 1.265a6 6 0 0 0-.549.402l-.16.145.424-.2a8.52 8.52 0 0 1 7.25.034c2.141 1.027 3.562 2.719 3.985 4.747.174.833.15 1.924-.058 2.72-.383 1.461-1.479 2.651-2.881 3.131-.609.208-.731.227-1.46.226-.646-.001-.727-.009-1.051-.109-1.346-.415-2.313-1.433-2.571-2.708-.092-.454-.063-1.19.062-1.559.149-.439.431-.949.668-1.206l.097-.105-.099-.019c-.151-.028-.549.036-.801.13-.638.239-1.27.901-1.509 1.582-.215.609-.26 1.44-.117 2.135.043.208.071.385.063.394-.025.025-.247-.702-.328-1.072-.115-.527-.104-1.867.02-2.44.438-2.029 1.786-3.828 3.418-4.562.17-.076.308-.15.308-.164 0-.045-.381-.272-.624-.371-.729-.296-1.85-.333-2.876-.096-2.246.52-3.969 2.053-4.825 4.293-.173.452-.179.449-.094-.045.133-.775.391-1.605.742-2.39.108-.241.19-.445.182-.454-.039-.038-.556.41-.828.718-1.096 1.239-1.699 2.86-1.845 4.961a9.7 9.7 0 0 0 .623 4.205c.537 1.373 1.231 2.432 2.284 3.487 1.034 1.036 2.099 1.747 3.382 2.258a9.9 9.9 0 0 0 4.059.707 9.7 9.7 0 0 0 4.12-1.024 10.05 10.05 0 0 0 5.482-7.235 10.03 10.03 0 0 0-1.481-7.309c-.939-1.416-2.266-2.638-3.625-3.337-1.572-.809-3.064-1.173-4.733-1.156-.332.004-.666.013-.743.021" fill-rule="evenodd"/></svg>