<svg viewBox="0 0 24 24" xmlns="http://www.w3.org/2000/svg"><path d="M12.854 3.802c-.44.087-.825.419-.957.827-.109.334-.099.873.022 1.191.2.527.686.82 1.361.82.471 0 .795-.114 1.059-.373.291-.286.393-.559.397-1.067.004-.458-.08-.725-.311-.988-.324-.367-.955-.532-1.571-.41m4.912 1.848c-.11.789-.315 1.298-.671 1.671-.321.337-.635.481-1.365.623-.089.017-.09.023-.09.736v.718l.63.011.63.011.021 2.6c.019 2.309.029 2.627.091 2.84.285.983.893 1.433 2.074 1.535.661.058 1.348-.015 2.071-.22.34-.096 1.043-.381 1.043-.423 0-.039-.403-1.363-.421-1.385a2 2 0 0 0-.345.09c-1.018.314-1.635.206-1.934-.338l-.12-.219-.012-2.249-.011-2.25 1.211-.01 1.212-.011v-1.6l-1.2-.02-1.2-.02-.011-1.21-.01-1.21h-1.547zM5.22 7.962c-.822.072-1.65.373-2.16.786-1.08.874-1.346 2.694-.572 3.919.173.274.504.598.773.756l.173.101-.346.328c-.761.722-.995 1.021-1.094 1.398-.067.251 0 .657.144.874.094.142.357.368.474.407.026.008-.075.149-.225.312-.162.178-.33.415-.417.591-.127.256-.148.339-.163.653-.053 1.102.609 1.724 2.141 2.009.912.17 2.489.184 3.372.029 1.957-.343 2.976-1.318 2.973-2.845-.003-1.118-.441-1.708-1.494-2.013-.632-.183-1.365-.27-3.252-.384-.678-.041-1.242-.084-1.253-.095-.015-.015.417-.745.485-.819a3 3 0 0 1 .385.05c1 .162 2.109.023 2.908-.363.428-.207.865-.59 1.076-.942.523-.875.48-2.192-.095-2.947-.056-.073-.092-.141-.082-.152a26 26 0 0 1 1.439-.134c.017-.001.03-.306.03-.679v-.679l-1.65-.014c-1.306-.011-1.717-.027-1.97-.077-.418-.084-1.1-.113-1.6-.07m6.123.088a15 15 0 0 0-.143 1.117c0 .1.027.115.432.25.238.08.472.172.52.206l.088.062v2.616c0 2.485-.004 2.618-.072 2.655-.055.029-.868.164-.989.164-.011 0-.019.288-.019.64v.64h4.64v-.636c0-.736.07-.647-.572-.726-.23-.029-.417-.072-.45-.106-.05-.049-.058-.559-.058-3.515V7.96h-3.358zM6.46 9.646c.609.2.983.783.927 1.448-.057.68-.515 1.145-1.252 1.272-.518.089-1.168-.106-1.458-.436-.235-.268-.335-.545-.335-.93 0-.288.018-.378.114-.589a1.51 1.51 0 0 1 .973-.807 2.2 2.2 0 0 1 1.031.042M5.4 17.08c1.439.093 1.57.105 1.948.184.381.08.532.211.532.462a.75.75 0 0 1-.288.552c-.337.264-1.08.442-1.838.442-.572-.001-.87-.042-1.318-.184-.26-.082-.36-.138-.519-.291-.187-.18-.197-.201-.197-.399 0-.142.031-.27.098-.402.099-.195.287-.444.336-.444z" fill-rule="evenodd"/></svg>