<svg viewBox="0 0 24 24" xmlns="http://www.w3.org/2000/svg"><path d="M3.572 3.607c-.082.099-.411.871-.497 1.163-.066.225-.089.438-.104.951-.022.735.036 1.268.206 1.899.077.284.087.374.05.424l-.284.377c-1.081 1.429-1.591 3.257-1.46 5.239.087 1.332.374 2.496.847 3.44.822 1.64 2.379 2.618 4.87 3.058 1.296.229 2.788.3 5.68.269 2.085-.022 2.548-.044 3.54-.169 1.466-.185 2.762-.613 3.656-1.207 1.674-1.113 2.446-2.973 2.453-5.911.002-.908-.034-1.312-.175-2a7.4 7.4 0 0 0-1.345-2.954l-.179-.233.082-.287c.184-.636.226-.971.225-1.786-.001-.733-.008-.801-.11-1.134a7 7 0 0 0-.307-.774l-.199-.421-.45.026c-1.831.107-2.802.445-4.171 1.451-.115.085-.129.086-.36.031a16.9 16.9 0 0 0-6.728-.003l-.456.092-.168-.127C7.328 4.37 6.375 3.918 5.5 3.746c-.74-.146-1.857-.227-1.928-.139m4.708 7.994c.253.022.91.107 1.46.188.995.147 1.007.148 2.3.147 1.139 0 1.374-.011 1.9-.09 1.451-.216 1.81-.254 2.44-.257.534-.002.692.012.951.083 1.08.296 1.919 1.182 2.229 2.353.249.945.174 2.163-.186 2.988-.681 1.562-2.264 2.382-4.999 2.589-.921.07-4.726.028-5.355-.059-2.66-.367-4.049-1.339-4.504-3.151-.107-.428-.149-1.455-.077-1.903.192-1.206.834-2.147 1.781-2.609.591-.289 1.123-.361 2.06-.279m-.452 1.202c-.678.109-1.184.804-1.373 1.889-.19 1.09.293 2.403 1.028 2.793.148.079.236.094.537.094s.389-.015.537-.094c.414-.22.787-.785.969-1.465.123-.463.123-1.194-.001-1.66-.29-1.091-.931-1.679-1.697-1.557m8.041.001c-.543.084-.996.612-1.256 1.464-.093.307-.107.424-.11.912-.002.471.012.611.089.88.277.959.76 1.484 1.409 1.531.497.035.906-.201 1.24-.718.318-.492.517-1.401.439-2.013-.175-1.38-.895-2.197-1.811-2.056" fill-rule="evenodd"/></svg>