<svg viewBox="0 0 24 24" xmlns="http://www.w3.org/2000/svg"><path d="M5.479 2.532a.9.9 0 0 0-.246.19c-.087.117-2.836 7.276-2.971 7.738-.257.878-.233 1.983.064 2.9a5.2 5.2 0 0 0 1.203 1.954c.176.178 1.021.843 2.131 1.678 1.012.761 2.722 2.05 3.8 2.865s2.057 1.532 2.176 1.593c.273.14.455.14.728 0 .119-.061.99-.696 1.936-1.413.946-.716 2.647-1.995 3.78-2.842 1.379-1.03 2.168-1.648 2.387-1.867 1.229-1.229 1.748-3.225 1.269-4.879-.134-.464-2.853-7.552-2.956-7.708a.71.71 0 0 0-.636-.285c-.22.024-.457.161-.537.311-.029.054-.47 1.375-.981 2.936l-.928 2.837H8.309l-.931-2.849c-.512-1.567-.969-2.902-1.015-2.967-.103-.145-.382-.284-.569-.284a.8.8 0 0 0-.315.092" fill-rule="evenodd"/></svg>