<svg viewBox="0 0 24 24" xmlns="http://www.w3.org/2000/svg"><path d="M4.307 9.747c-.015.014-.027.795-.027 1.735 0 1.93-.013 1.851.286 1.761a.7.7 0 0 0 .259-.144l.095-.095-.001-1.512c0-.832-.013-1.532-.03-1.557-.083-.126-.507-.263-.582-.188m3.741.061c-.036.036-.048.461-.047 1.67 0 .892.013 1.643.03 1.668.04.064.297.107.442.076.083-.019.127-.057.144-.126l.025-.1.109.075c.192.132.383.188.629.185.73-.008 1.26-.743 1.099-1.523-.061-.294-.131-.434-.313-.626-.278-.293-.659-.423-1.019-.348a1 1 0 0 0-.321.123.5.5 0 0 1-.122.078c-.013 0-.024-.248-.024-.552 0-.376-.015-.567-.048-.6-.027-.027-.156-.048-.292-.048s-.265.021-.292.048m8.337.054c-.014.035-.025.774-.025 1.641 0 1.524.003 1.58.08 1.657.058.058.133.08.272.08.352 0 .33.12.319-1.76l-.011-1.66-.305-.012c-.252-.009-.31 0-.33.054m-14.052.916c-.505.158-.828.567-.879 1.113-.061.653.37 1.202 1.027 1.306.244.038.494-.008.647-.118A.5.5 0 0 1 3.26 13c.04 0-.025.294-.087.392-.169.269-.637.331-1.073.142-.35-.151-.418-.145-.527.046-.14.244-.123.323.097.462.577.367 1.479.329 1.886-.078.345-.345.404-.647.404-2.067 0-1.224.024-1.137-.32-1.137-.198 0-.32.07-.32.182 0 .04-.041.028-.145-.043a.92.92 0 0 0-.842-.121m3.881-.018a1.22 1.22 0 0 0-.642.367c-.247.254-.348.507-.349.878-.002.271.014.336.138.579.47.922 1.741.92 2.232-.004.094-.176.107-.245.107-.58s-.013-.404-.107-.583a1.4 1.4 0 0 0-.608-.578 1.5 1.5 0 0 0-.771-.079m12.086-.001c-.337.053-.647.304-.827.67-.114.231-.132.308-.131.569.001.495.241.911.654 1.136q.538.294 1.054-.039c.144-.092.15-.093.15-.017 0 .106.116.162.335.162.311 0 .305.024.304-1.233 0-.609-.015-1.13-.033-1.159-.023-.036-.115-.048-.31-.04-.25.011-.277.02-.289.1l-.012.089-.228-.115c-.252-.128-.428-.16-.667-.123m-6.66.06c-.303.1-.562.329-.719.637-.122.238-.139.308-.136.558.008.898.942 1.503 1.747 1.135.956-.438.996-1.74.068-2.245-.252-.137-.683-.175-.96-.085m2.855.018a.6.6 0 0 0-.192.119c-.045.072-.097.05-.11-.046-.012-.084-.033-.09-.293-.09h-.28l-.01 1.655c-.008 1.189.002 1.671.034 1.71.028.034.127.055.258.055.353 0 .338.028.338-.624 0-.317.008-.576.018-.576s.101.044.202.098a.93.93 0 0 0 .763.083c.32-.093.7-.467.793-.781.191-.643-.07-1.3-.627-1.578-.257-.128-.643-.139-.894-.025m5.546.013c.001.027.224.554.496 1.17l.494 1.12-.12.229c-.134.253-.198.291-.49.291-.192 0-.201.005-.293.171-.053.095-.085.199-.072.232.035.093.344.215.544.215.407 0 .705-.266.935-.832.832-2.05 1.025-2.548 1.008-2.593-.028-.072-.596-.074-.655-.003-.022.027-.153.362-.29.743s-.261.678-.276.66-.142-.33-.282-.693a10 10 0 0 0-.291-.71q-.04-.05-.374-.05c-.242 0-.335.014-.334.05m-17.084.569a.8.8 0 0 1 .218.183c.144.17.151.557.014.762-.241.361-.726.356-1-.011-.109-.146-.113-.528-.008-.707.147-.249.521-.359.776-.227m3.823.056c.177.099.311.381.283.598-.042.325-.23.524-.527.558-.711.08-.951-.971-.276-1.211a.59.59 0 0 1 .52.055m2.711-.06c.239.102.325.237.34.537.011.215-.003.293-.067.396-.222.353-.781.352-1-.002-.119-.192-.115-.527.007-.71a.58.58 0 0 1 .72-.221m2.829.019c.166.09.32.36.32.564 0 .215-.153.489-.32.572-.435.217-.897-.09-.897-.597 0-.466.487-.758.897-.539m2.873.033c.366.268.307.949-.098 1.118a.62.62 0 0 1-.768-.225c-.08-.119-.092-.178-.079-.39.018-.285.102-.43.315-.542.172-.091.479-.072.63.039m3.687-.017c.225.153.299.286.299.542 0 .423-.265.677-.666.638-.324-.031-.513-.275-.513-.663 0-.467.512-.768.88-.517" fill-rule="evenodd"/></svg>