<svg viewBox="0 0 24 24" xmlns="http://www.w3.org/2000/svg"><path d="M11.278 7.966a5 5 0 0 0-2.264.776c-.729.481-1.49 1.397-1.799 2.163-.24.595-.305.979-.284 1.675.02.649.114 1.073.334 1.512.445.887 1.32 1.574 2.358 1.852.416.112 1.429.104 1.905-.015.819-.204 1.436-.537 1.998-1.079.35-.337.845-.952.976-1.21l.07-.139.04.099c.134.34.334.726.484.936.74 1.035 2.118 1.63 3.464 1.498a5 5 0 0 0 2.135-.702c.44-.262 1.216-1.027 1.524-1.503a3.94 3.94 0 0 0 .622-2.614c-.095-.883-.389-1.518-.967-2.085-.969-.952-2.154-1.263-3.692-.968-1.228.236-2.097.774-2.833 1.752-.289.384-.575.889-.667 1.176l-.048.15h-1.749c-1.341 0-1.764.012-1.811.05-.082.067-.179.244-.432.788-.282.609-.297.667-.2.764.073.073.141.078 1.139.078h1.062l-.092.134c-.484.71-1.223 1.059-1.991.943a1.63 1.63 0 0 1-1.253-.948c-.122-.258-.127-.29-.127-.769 0-.605.081-.887.377-1.308.633-.902 1.777-1.234 2.649-.769.052.028.205.156.34.286l.246.236.534-.148c.294-.081.739-.198.989-.259.25-.062.473-.13.495-.152.095-.095-.233-.685-.611-1.097a3.4 3.4 0 0 0-1.082-.787c-.582-.279-1.119-.371-1.839-.316m8.254 2.114c.678.21 1.145.828 1.18 1.56.031.673-.173 1.185-.67 1.68-.606.604-1.354.843-2.061.659-.881-.23-1.454-1.096-1.302-1.969.137-.792.591-1.425 1.253-1.748.556-.272 1.105-.334 1.6-.182m-16.686.137-.127.177 1.93.014c1.062.007 1.961-.001 1.997-.017.062-.028.234-.268.234-.326 0-.014-.879-.025-1.953-.025H2.974zm-1.563.932c-.23.279-.312.267 1.564.238.927-.015 2.071-.027 2.542-.027h.855l.058-.139a.8.8 0 0 0 .058-.18c0-.028-.801-.041-2.477-.041H1.406zm2.613.841a.8.8 0 0 0-.176.328c0 .049 2.344.061 2.374.012a1 1 0 0 0 .032-.19l.014-.16-1.1-.01c-.605-.005-1.12.004-1.144.02" fill-rule="evenodd"/></svg>