<svg viewBox="0 0 24 24" xmlns="http://www.w3.org/2000/svg"><path d="M11.638 1.725c-3.6.17-6.937 2.331-8.576 5.554-.73 1.435-1.077 2.782-1.13 4.384A9.5 9.5 0 0 0 2.12 14c.879 4.387 4.446 7.675 8.94 8.244.926.117 2.425.045 3.454-.167 4.138-.851 6.956-4.025 7.493-8.437.069-.57.067-2.063-.003-2.65l-.057-.47H12.2v3.56h5.804l-.027.15c-.094.519-.414 1.254-.798 1.83-.865 1.297-2.312 2.13-4.072 2.343-.613.074-1.704.027-2.229-.096-1.393-.327-2.526-.994-3.409-2.004a6.604 6.604 0 0 1-.513-7.991c1.041-1.556 2.598-2.529 4.443-2.774 1.746-.233 3.509.288 4.704 1.389.096.088.191.154.212.147s.66-.622 1.419-1.365l1.382-1.35-.328-.28a10.3 10.3 0 0 0-3.328-1.861c-1.229-.407-2.408-.56-3.822-.493" fill-rule="evenodd"/></svg>