<svg viewBox="0 0 24 24" xmlns="http://www.w3.org/2000/svg"><path d="M3.531 2.538c-.381.119-.752.433-.914.773-.039.082-.429 1.508-.868 3.169C.982 9.388.954 9.51.977 9.775c.029.326.18.798.353 1.105.16.283.707.83.99.99.121.068.364.174.54.235.285.099.377.111.84.112.598.001.809-.048 1.32-.31.722-.37 1.298-1.177 1.414-1.978l.028-.189.088.36c.137.558.329.901.729 1.301.883.883 2.063 1.079 3.201.532.322-.155.432-.235.724-.53.409-.412.635-.822.75-1.363l.072-.34.025.2c.068.562.337 1.086.793 1.546.247.249.372.339.68.488.841.405 1.643.405 2.476-.002.318-.155.435-.241.721-.529.4-.403.592-.746.729-1.303l.088-.36.028.189c.12.835.7 1.623 1.475 2.006.49.242.853.319 1.379.294a2.86 2.86 0 0 0 1.26-.359c.283-.16.83-.707.99-.99.173-.307.324-.779.353-1.105.023-.265-.005-.387-.761-3.255a162 162 0 0 0-.851-3.156c-.094-.248-.449-.617-.724-.752L20.46 2.5l-8.38-.008c-6.851-.006-8.411.003-8.549.046m2.791 8.745c-.367.566-.998 1.05-1.671 1.28-.368.126-.423.134-.931.134-.519 0-.76-.041-1.186-.205-.047-.018-.054.578-.045 3.954L2.5 20.42l.106.227c.149.318.395.569.708.723l.264.13h16.844l.264-.13c.313-.154.559-.405.708-.723l.106-.227.011-3.974c.01-3.784.007-3.974-.06-3.948a3.11 3.11 0 0 1-3.432-.788 3.6 3.6 0 0 1-.366-.458c-.055-.095-.112-.172-.127-.171s-.071.077-.126.169c-.141.235-.695.785-.977.969a3.04 3.04 0 0 1-2.244.439c-.871-.179-1.557-.668-2.101-1.495l-.062-.095-.184.257c-1.015 1.423-2.852 1.809-4.255.894-.282-.184-.836-.734-.977-.969a.7.7 0 0 0-.123-.169c-.013-.001-.083.09-.155.202M18.1 14.64c.337.106.666.276.872.451l.151.129-.394.392-.395.392-.21-.141c-.275-.185-.475-.24-.864-.238-.865.004-1.547.665-1.61 1.558-.072 1.026.846 1.871 1.878 1.73.479-.066.906-.346 1.095-.719.184-.364.201-.354-.623-.354h-.72v-1.08h2.594l.028.267c.096.899-.199 1.764-.789 2.311-.504.467-1.062.676-1.813.677-.51.001-.821-.067-1.24-.274a2.76 2.76 0 0 1-1.54-2.499c0-.616.186-1.154.577-1.671.353-.466.972-.857 1.563-.988.391-.086 1.068-.06 1.44.057" fill-rule="evenodd"/></svg>