<svg viewBox="0 0 24 24" xmlns="http://www.w3.org/2000/svg"><path d="M11.713 4.605a4.87 4.87 0 0 0-3.14 1.443c-.417.424-.487.51-.752.931-.472.753-.739 1.704-.74 2.641-.003 1.873 1.085 3.634 2.771 4.485.742.375 1.427.535 2.286.535 1.045 0 1.954-.254 2.742-.766.345-.224 1.018-.902 1.258-1.267.565-.861.892-2.219.783-3.255-.022-.205-.04-.395-.04-.422-.001-.039-.504-.05-2.381-.05h-2.38v1.76h1.4c1.602 0 1.473-.038 1.314.386-.429 1.149-1.474 1.781-2.851 1.725-.716-.029-1.275-.237-1.815-.674-1.851-1.497-1.406-4.535.793-5.424a3 3 0 0 1 1.159-.212c.684 0 1.224.179 1.752.578l.252.191.548-.532c.301-.293.61-.592.687-.665.121-.116.131-.138.076-.182-1.169-.955-2.277-1.32-3.722-1.226M2.16 16.406c-.487.133-.887.732-.827 1.238a1.213 1.213 0 0 0 1.566 1.038c.286-.083.592-.39.677-.679.084-.284.084-.507.001-.539s-.676-.031-.911.001c-.155.022-.186.04-.185.11.001.161.048.181.447.193l.385.012-.055.16c-.149.437-.679.614-1.137.381q-.474-.241-.434-.864a.79.79 0 0 1 .433-.687.92.92 0 0 1 .88.045l.17.113.105-.106.105-.106-.128-.116c-.229-.206-.724-.294-1.092-.194m7.32 1.136v1.143l.15-.013.15-.012.011-1.13.01-1.13H9.48zm3.08-.002v1.14h.32v-.92h.324c.381 0 .55-.065.708-.273.092-.12.108-.18.108-.404 0-.318-.091-.473-.353-.6-.144-.07-.248-.083-.64-.083h-.467zm4.72-.72v.22h-.142c-.141 0-.143.002-.13.15.011.136.024.151.139.162l.127.013.013.561.013.561.133.118c.117.105.158.118.34.107.201-.012.207-.015.22-.142.011-.124.006-.13-.126-.13-.075 0-.156-.023-.179-.05-.04-.048-.058-.344-.051-.818l.003-.207.17-.013c.165-.012.17-.016.182-.162l.013-.15h-.178c-.2 0-.227-.033-.227-.283 0-.156-.001-.157-.16-.157h-.16zm-3.676.006c.124.124.115.394-.018.526-.084.084-.148.103-.403.119l-.303.02v-.779l.319.014c.261.012.335.03.405.1m-9.288.251a.897.897 0 0 0-.332 1.271c.311.502 1.054.512 1.396.018.11-.158.12-.202.12-.5-.001-.289-.013-.344-.11-.486-.173-.255-.356-.356-.666-.369-.202-.009-.298.006-.408.066m1.925-.032c-.403.161-.614.584-.517 1.039.037.172.084.254.231.401.361.362.867.35 1.199-.028a.86.86 0 0 0 .129-1.011.77.77 0 0 0-.412-.384c-.165-.069-.479-.078-.63-.017m1.778.011c-.158.069-.358.3-.419.484a1.4 1.4 0 0 0-.033.422c.013.225.037.305.134.443.225.319.645.425.955.243.182-.107.184-.108.184-.007a.48.48 0 0 1-.251.412c-.224.107-.367.087-.547-.076-.169-.153-.301-.17-.377-.048-.06.096.072.267.296.381.336.172.846.084 1.027-.175.152-.219.172-.361.172-1.241v-.854H9c-.116 0-.16.017-.16.06 0 .077-.011.076-.19-.02a.8.8 0 0 0-.631-.024m2.521 0c-.344.149-.56.621-.463 1.011.099.399.337.614.745.672.223.032.566-.115.687-.295.117-.175.115-.188-.033-.24-.114-.039-.135-.032-.234.074-.207.221-.515.212-.719-.021-.068-.077-.123-.175-.123-.218 0-.087.014-.089.569-.079a4 4 0 0 0 .49-.022c.172-.026.181-.034.181-.157a.84.84 0 0 0-.469-.726.98.98 0 0 0-.631.001m4.021.027c-.137.085-.237.189-.24.246 0 .016.043.058.098.094.092.061.106.059.223-.025a.8.8 0 0 1 .3-.108c.154-.018.188-.006.296.102.067.067.122.157.122.2 0 .071-.016.075-.19.041-.362-.071-.71.041-.854.274-.185.298.007.713.372.806.171.043.453-.014.578-.118.052-.043.071-.04.115.019.034.047.092.067.166.059l.113-.013v-.627c0-.686-.015-.736-.275-.93-.168-.126-.637-.137-.824-.02m4.162.001c-.121.074-.14.076-.172.019-.021-.038-.089-.063-.173-.063h-.138v1.64h.32v-.53c0-.452.012-.549.077-.656a.39.39 0 0 1 .498-.159c.176.074.183.103.195.785l.01.54h.32l-.001-.62c-.001-.695-.036-.818-.271-.962a.72.72 0 0 0-.665.006m1.59-.003c-.237.125-.433.477-.433.777 0 .325.23.691.509.808.165.069.497.069.663 0 .125-.052.388-.312.388-.383 0-.02-.057-.055-.128-.08-.116-.04-.138-.034-.253.078-.156.151-.361.191-.529.104-.158-.082-.29-.25-.29-.37v-.095h1.24v-.134c0-.299-.162-.585-.402-.707-.205-.105-.565-.104-.765.002m1.893-.012c-.075.053-.108.056-.169.018a.45.45 0 0 0-.197-.047h-.122l.011.81.011.81.147.012.147.012.013-.559c.013-.557.014-.561.13-.682.1-.104.148-.123.31-.123h.193V17l-.19.002a.6.6 0 0 0-.284.067m-5.825.05c-.102.067-.124.07-.152.02-.018-.033-.084-.059-.145-.059-.108 0-.114.009-.138.246a6.4 6.4 0 0 0 0 1.126l.026.272.144-.012.144-.012.02-.567c.019-.528.027-.574.115-.668a.37.37 0 0 1 .26-.113c.159-.012.165-.017.177-.162l.013-.15h-.173a.6.6 0 0 0-.291.079m-7.841.219c.491.205.344 1.101-.18 1.101-.537 0-.67-.931-.159-1.107.18-.062.178-.062.339.006m2.566.03a.4.4 0 0 1 .174.274c0 .022-.186.038-.436.038-.396 0-.435-.006-.418-.07.07-.268.389-.382.68-.242m9.792-.026c.154.073.256.252.174.304-.06.038-.674.046-.768.01-.055-.021-.056-.036-.003-.139.112-.216.358-.289.597-.175m-15.86.116a.63.63 0 0 1 .11.67.5.5 0 0 1-.674.256c-.196-.093-.274-.248-.274-.544 0-.229.011-.259.136-.384.121-.121.16-.136.352-.136.194 0 .23.014.35.138m1.793-.076c.133.093.209.27.209.486-.001.516-.536.759-.87.395-.114-.124-.13-.169-.13-.364 0-.394.16-.579.5-.579a.6.6 0 0 1 .291.062m8.389.555c.13.055.135.065.097.176-.099.282-.438.412-.647.248-.332-.262.114-.606.55-.424" fill-rule="evenodd"/></svg>