<svg viewBox="0 0 24 24" xmlns="http://www.w3.org/2000/svg"><path d="M11.789 2.124c-.45.07-.846.436-.97.894-.054.201-.064.4-.052 1.123.012.795.022.897.099 1.064.122.265.347.496.608.624.191.094.276.111.546.11.393-.001.636-.112.907-.413.283-.315.313-.46.313-1.51 0-.787-.009-.92-.077-1.098a1.23 1.23 0 0 0-1.374-.794m-4.62 3.983c-.241.085-.578.407-.694.662l-.095.211v5l.095.211c.12.265.454.577.711.665.103.035.308.064.455.064.483 0 .889-.275 1.115-.758l.104-.222V9.5c0-2.757.008-2.681-.311-3.042a1.2 1.2 0 0 0-.929-.415c-.154.002-.357.03-.451.064m8.819-.009a1.26 1.26 0 0 0-.584.44c-.217.321-.224.368-.224 1.422 0 .96.002.984.098 1.178.119.24.338.467.57.59.249.131.811.132 1.077.001.256-.126.467-.343.591-.606.103-.221.104-.232.104-1.183 0-.926-.003-.968-.095-1.171-.12-.265-.454-.577-.711-.665-.227-.077-.618-.08-.826-.006m-4.419 1.126c-.243.09-.579.412-.694.665l-.095.211v7.8l.111.226c.219.447.611.692 1.109.693.248.001.339-.018.526-.11a1.28 1.28 0 0 0 .629-.684c.085-.227.085-.246.085-4.019 0-3.265-.008-3.82-.06-3.995-.077-.258-.361-.58-.633-.717-.258-.131-.722-.164-.978-.07M3.06 10.117c-.371.09-.654.32-.828.674l-.132.267v.901c0 1.049.03 1.19.325 1.518.511.569 1.319.569 1.83 0 .295-.328.325-.469.325-1.518v-.901l-.133-.271c-.262-.532-.828-.805-1.387-.67m17.32-.002c-.341.09-.672.362-.829.681-.085.173-.092.242-.104 1.116-.014 1.028.009 1.172.233 1.482.24.331.765.564 1.143.508.279-.042.641-.246.796-.448.252-.331.281-.483.281-1.494 0-.886-.002-.903-.104-1.122-.142-.303-.321-.495-.579-.621-.231-.113-.616-.16-.837-.102m-4.313 1.02c-.39.11-.734.452-.848.842-.053.182-.06.548-.05 2.627l.011 2.416.094.209c.125.276.409.536.708.649.592.224 1.275-.073 1.553-.673.084-.183.085-.216.085-2.685v-2.5l-.111-.226a1.25 1.25 0 0 0-1.442-.659m-8.814 3.058q-.454.16-.657.479c-.217.343-.244.516-.229 1.48.014.854.016.872.125 1.094.218.448.611.693 1.108.692.397-.001.652-.113.917-.403.312-.34.343-.477.343-1.495 0-.722-.011-.893-.071-1.064-.213-.611-.954-.988-1.536-.783m4.447 3.922a1.32 1.32 0 0 0-.844.747c-.067.175-.076.309-.076 1.138 0 .821.009.963.074 1.12.188.462.647.775 1.141.777a1.24 1.24 0 0 0 1.164-.803c.072-.194.081-.31.081-1.088 0-1.036-.029-1.176-.306-1.484-.245-.273-.506-.403-.848-.423a1.7 1.7 0 0 0-.386.016" fill-rule="evenodd"/></svg>