<svg viewBox="0 0 24 24" xmlns="http://www.w3.org/2000/svg"><path d="M5.157 2.761c-.435.072-.884.445-1.023.85-.375 1.091.733 2.119 1.778 1.649.637-.285.938-.989.71-1.66-.1-.295-.475-.672-.762-.767a1.4 1.4 0 0 0-.703-.072m3.977-.001a1.4 1.4 0 0 0-.777.433c-.542.616-.367 1.627.349 2.015.337.182.541.198 2.334.185 1.629-.013 1.664-.015 1.89-.106.28-.113.575-.39.711-.667.137-.282.142-.833.009-1.103-.21-.426-.55-.68-1.011-.754-.294-.048-3.182-.05-3.505-.003M8.031 6.78c-.573.212-.899.717-.862 1.335.033.558.377 1.003.899 1.165.253.078.367.08 3.932.08s3.679-.002 3.932-.08c.318-.099.624-.357.777-.656.15-.293.172-.755.052-1.074a1.43 1.43 0 0 0-.661-.712l-.2-.098-3.86-.007c-3.198-.007-3.886.001-4.009.047m3.142 3.957c-1.143.363-1.256 1.923-.178 2.453l.225.11 1.824.012c1.793.011 1.829.009 2.058-.076.284-.106.584-.376.732-.655.093-.177.106-.247.106-.581 0-.335-.013-.404-.107-.58a1.54 1.54 0 0 0-.653-.628c-.198-.091-.214-.092-2.02-.1-1.419-.006-1.857.003-1.987.045m7.125-.022a1.7 1.7 0 0 0-.667.401 1.3 1.3 0 0 0-.329.886c-.001.261.017.338.13.568.143.29.344.49.643.637.151.075.251.091.545.091.435 0 .658-.091.947-.386.778-.795.251-2.155-.859-2.214a2 2 0 0 0-.41.017M8.13 14.7a1.35 1.35 0 0 0-.84.68c-.15.289-.171.752-.05 1.073.119.316.431.628.745.745.218.082.288.086 1.213.074.975-.012.983-.013 1.184-.118.245-.13.515-.415.631-.667.129-.282.122-.753-.017-1.049a1.23 1.23 0 0 0-.628-.647l-.266-.131-.881-.009c-.671-.007-.931.005-1.091.049m5.326-.016a1.5 1.5 0 0 0-.741.492c-.498.661-.282 1.579.465 1.977l.2.107h1.04c1.023 0 1.043-.002 1.239-.098.445-.219.71-.624.734-1.122a1.28 1.28 0 0 0-.761-1.264l-.252-.116-.88-.007c-.484-.004-.954.01-1.044.031m-8.501 4.011a1.333 1.333 0 0 0-.817 1.705c.055.163.138.283.318.464.427.426.083.396 4.485.396h3.801l.267-.132c.291-.143.494-.348.641-.645.133-.271.128-.822-.01-1.103a1.44 1.44 0 0 0-.621-.622l-.199-.098-3.86-.009c-3.084-.006-3.889.002-4.005.044" fill-rule="evenodd"/></svg>