<svg viewBox="0 0 24 24" xmlns="http://www.w3.org/2000/svg"><path d="M11.38 3.623c-1.482.148-2.459.413-3.6.976A9.3 9.3 0 0 0 5.24 6.4c-1.474 1.466-2.42 3.347-2.746 5.46-.067.433-.074.753-.074 3.26v2.78l.094.3c.17.546.385.902.784 1.302.276.275.438.401.682.526.81.416 1.582.479 2.22.181.433-.203.845-.725.958-1.213.025-.109.04-1.176.041-2.798.001-2.234-.008-2.656-.061-2.86-.2-.774-.947-1.338-1.773-1.338a3.3 3.3 0 0 0-.858.146c-.106.034-.202.052-.215.04-.039-.039.112-.788.252-1.254a7.7 7.7 0 0 1 1.952-3.235A7.68 7.68 0 0 1 10.7 5.516c.741-.129 1.859-.129 2.6 0 2.862.502 5.206 2.513 6.098 5.231.157.479.355 1.393.312 1.437-.012.012-.11-.008-.216-.045-.337-.115-.856-.162-1.18-.106a1.88 1.88 0 0 0-1.285.888c-.227.387-.229.421-.228 3.277.001 1.622.016 2.689.041 2.798.074.317.245.616.495.866.403.401.883.569 1.488.523a3.02 3.02 0 0 0 2.546-1.865c.214-.538.209-.464.209-3.42 0-2.993-.007-3.106-.239-4.08-.926-3.892-4.065-6.75-8.041-7.322-.399-.058-1.616-.105-1.92-.075" fill-rule="evenodd"/></svg>