<svg viewBox="0 0 24 24" xmlns="http://www.w3.org/2000/svg"><path d="m2.37 12.01.01 9.61h19.24l.01-9.61.01-9.61H2.36zM6.8 9.52v.96h.524c.599 0 .712.039.84.288.071.139.076.256.076 1.85v1.702h-.72v-1.48c0-1.746.028-1.64-.44-1.64H6.8v3.12h-.72V8.695l.29-.063c.16-.035.321-.065.36-.068.065-.004.07.067.07.956m5.56 0v.96h.53c.461 0 .547.011.662.081.241.147.248.198.248 1.828 0 1.619-.004 1.645-.253 1.828-.105.077-.176.084-1.01.096l-.897.012v-5.63l.29-.063c.16-.035.322-.065.36-.068.065-.004.07.067.07.956m2.769-.01.011.95.573.02.573.02.134.146c.179.196.189.298.173 1.914-.015 1.518-.017 1.527-.335 1.681-.147.071-.248.079-.991.079h-.827V8.692l.27-.061c.148-.033.301-.063.339-.066.064-.005.07.073.08.945M9.56 11.898c0 .969.014 1.45.045 1.517q.09.2.479.177l.216-.012.01-1.55.011-1.55H11v3.845l-.89-.012c-.795-.012-.902-.021-1.002-.089-.248-.168-.247-.157-.26-2.034l-.011-1.71h.723zm2.8.507v1.204l.285-.016c.447-.025.435.009.435-1.217 0-1.216.015-1.176-.44-1.176h-.28zm2.769-.015.011 1.19.251.012c.233.011.26.003.37-.107l.119-.119v-.978c0-.928-.004-.983-.083-1.083-.076-.097-.107-.105-.38-.105h-.298zm2.791 1.57v.36h-.72v-.72h.72z" fill-rule="evenodd"/></svg>