<svg viewBox="0 0 24 24" xmlns="http://www.w3.org/2000/svg"><path d="M7 4.384c-.654.176-1.23.717-1.474 1.387l-.106.289-.011 4.196c-.012 4.624-.022 4.406.238 4.944.261.538.904 1.032 1.505 1.156.149.031 2.094.044 6.504.044 6.145 0 6.298-.002 6.602-.079.753-.193 1.329-.759 1.568-1.541.07-.226.074-.476.074-4.44v-4.2l-.096-.293a2.26 2.26 0 0 0-1.521-1.463c-.196-.058-.844-.064-6.64-.061-5.531.002-6.454.01-6.643.061M2.58 6.576a1.04 1.04 0 0 0-.414.403c-.06.11-.067.484-.078 4.081-.008 2.6.002 4.104.03 4.38.058.575.206 1.098.457 1.62.706 1.467 2.101 2.439 3.753 2.618.55.059 11.373.058 11.609-.002a.834.834 0 0 0 .623-.792c0-.252-.052-.39-.212-.557-.278-.29.283-.265-6.268-.287l-5.9-.02-.28-.094A3.12 3.12 0 0 1 3.874 15.9l-.094-.28-.02-4.263-.02-4.263-.12-.194a.76.76 0 0 0-.696-.378c-.123 0-.278.025-.344.054m7.66.027c.402.182.64.552.639.997-.002.934-1.092 1.437-1.787.824a1.14 1.14 0 0 1-.325-1.192c.065-.218.332-.506.571-.617a1.18 1.18 0 0 1 .902-.012m5.156 1.102c.211.106.218.116 1.961 2.731 1.387 2.081 1.755 2.661 1.777 2.795a.86.86 0 0 1-.471.893c-.156.071-.381.074-5.008.075l-4.846.001-.213-.111a.63.63 0 0 1-.325-.325c-.131-.252-.146-.518-.04-.726.039-.076.591-.791 1.227-1.588 1.066-1.338 1.172-1.459 1.37-1.556.178-.087.249-.101.417-.081.269.032.412.121.653.411l.362.433.16.192.975-1.462c.536-.804 1.022-1.507 1.08-1.562.253-.242.588-.285.921-.12" fill-rule="evenodd"/></svg>