<svg viewBox="0 0 24 24" xmlns="http://www.w3.org/2000/svg"><path d="M4.416 3.819c-.668.146-1.29.646-1.594 1.281-.256.538-.242.133-.242 6.9 0 6.787-.016 6.356.25 6.92.189.4.667.883 1.061 1.072.555.265.026.25 8.217.239 7.131-.011 7.44-.014 7.632-.085.394-.147.63-.285.89-.524.329-.301.539-.621.68-1.039l.11-.323v-6.22c0-5.108-.01-6.259-.054-6.44-.171-.69-.67-1.307-1.292-1.597a3 3 0 0 0-.571-.2c-.379-.069-14.765-.054-15.087.016m3.032 2.474a1.76 1.76 0 0 1 .991 1.853c-.058.365-.205.655-.482.951-.55.588-1.391.711-2.13.311-.249-.134-.591-.505-.721-.78a1.82 1.82 0 0 1-.002-1.493c.206-.434.714-.861 1.161-.973.085-.021.319-.033.519-.026.321.011.398.029.664.157m6.7 3.444c.062.033.151.093.199.132.106.087 4.562 6.62 4.639 6.8.127.302.03.753-.211.979-.264.248.199.232-6.775.232-5.662 0-6.379-.007-6.511-.062a.93.93 0 0 1-.453-.426c-.096-.189-.102-.584-.011-.764.035-.07.63-.833 1.322-1.696 1.392-1.734 1.39-1.732 1.827-1.732.407 0 .521.092 1.237.99l.423.531.217-.311c.119-.17.851-1.242 1.626-2.381.785-1.154 1.469-2.118 1.545-2.18.259-.207.66-.256.926-.112" fill-rule="evenodd"/></svg>