<svg viewBox="0 0 24 24" xmlns="http://www.w3.org/2000/svg"><path d="M6.74 2.68c-.99.018-1.949.045-2.131.06-.311.026-.344.038-.58.211-.708.521-1.959 1.922-2.306 2.583-.122.233-.123.238-.123.86q.001.627.059.844c.25.938 1.106 1.649 1.983 1.647.91-.003 1.792-.684 2-1.545.067-.274.103-.298.135-.088.039.261.264.698.487.945.687.762 1.819.915 2.651.36.434-.29.781-.8.888-1.306l.049-.231.053.229c.217.94 1.109 1.637 2.095 1.637s1.878-.697 2.095-1.637l.053-.229.049.231c.062.294.276.716.483.956.639.74 1.792.899 2.623.361.449-.291.853-.867.92-1.313.034-.225.081-.223.115.004.044.293.287.728.558.998.404.402.925.626 1.462.628.874.002 1.734-.711 1.983-1.645.039-.148.058-.425.059-.846 0-.621-.001-.628-.123-.86-.223-.427-.804-1.143-1.476-1.819-.364-.366-.762-.731-.884-.811l-.224-.147-1.096-.04c-1.455-.053-9.583-.078-11.857-.037M5.537 8.564c-.398.574-1.219 1.011-1.906 1.014l-.309.001-.021.16c-.164 1.258-.223 5.59-.1 7.361.119 1.72.376 2.965.722 3.505l.12.186.448.086c.887.169 2.199.306 3.949.412 1.123.068 5.898.067 7.06-.001 2.331-.137 4.273-.379 4.47-.557.189-.171.435-.832.566-1.52.168-.89.255-1.899.303-3.532.049-1.634-.027-4.7-.144-5.872l-.025-.253-.186.025c-.617.085-1.688-.463-2.051-1.05l-.088-.143-.083.115a5 5 0 0 1-.282.334c-.712.775-1.898.966-2.861.461a2.3 2.3 0 0 1-.802-.692 1 1 0 0 0-.157-.202c-.011 0-.083.092-.159.205-.178.262-.553.575-.861.718-.393.184-.712.25-1.2.248a2.35 2.35 0 0 1-1.24-.318c-.203-.114-.603-.486-.782-.727l-.098-.133-.177.245c-.175.241-.528.54-.802.679a2.5 2.5 0 0 1-1.824.146c-.511-.165-.976-.506-1.248-.915a1 1 0 0 0-.109-.15c-.005 0-.06.074-.123.164m3.458 2.134c.33.088.626.255.907.513l.257.235.578-.043a19 19 0 0 1 2.516-.001l.569.042.179-.167c.244-.229.602-.457.852-.545.168-.058.334-.072.887-.072h.68l.304.149c.352.171.696.484.953.865.263.39.618 1.162.839 1.826.244.736.979 3.468 1.063 3.955.175 1.013-.017 1.591-.587 1.766-.293.09-.999.122-1.374.061-.692-.111-1.172-.348-1.623-.802a2.1 2.1 0 0 1-.469-.643c-.15-.309-.286-.808-.286-1.05 0-.092-.008-.095-.17-.065a20 20 0 0 1-.83.105c-.943.104-3.672.104-4.52 0l-.79-.095-.21-.023-.001.175c-.001.524-.3 1.176-.74 1.615-.511.511-1.15.77-1.999.808-.829.037-1.281-.117-1.499-.509-.133-.238-.161-.851-.063-1.379.073-.392.598-2.393.888-3.379.586-1.998 1.247-3.001 2.193-3.328.261-.09 1.178-.099 1.496-.014m2.198 2.692c-.642.634-1.067 1.093-1.354 1.466-.057.073-.042.074.55.046l.609-.03.011.534.011.534.97.011.97.01v-1.09l.6.029c.359.017.6.014.6-.008 0-.02-.101-.161-.225-.314-.267-.33-1.877-1.938-1.939-1.938-.024 0-.386.338-.803.75" fill-rule="evenodd"/></svg>