<svg viewBox="0 0 24 24" xmlns="http://www.w3.org/2000/svg"><path d="M6.26 2.604c-.589.086-1.282.357-1.82.711-.301.198-.801.681-1.035 1.001a4.4 4.4 0 0 0-.786 1.834c-.088.509-.088 11.191 0 11.7a4.35 4.35 0 0 0 2.836 3.347c.718.251.496.243 6.545.243s5.827.008 6.545-.243a4.36 4.36 0 0 0 2.836-3.347c.088-.507.089-11.191 0-11.695a4.35 4.35 0 0 0-1.285-2.398A4.6 4.6 0 0 0 18.18 2.69l-.4-.11-5.64-.005c-3.102-.004-5.748.009-5.88.029m6.7 1.16c2.984.33 5.589 2.397 6.652 5.276.521 1.41.616 3.203.251 4.7a8.3 8.3 0 0 1-1.429 2.993c-.136.18-.464.544-.73.81-.919.918-1.873 1.518-3.076 1.933-4.723 1.628-9.755-1.342-10.633-6.276a9.7 9.7 0 0 1-.078-2.204A8.1 8.1 0 0 1 8.11 4.687c1.493-.811 3.099-1.117 4.85-.923m-1.933.898c-3.016.411-5.413 2.62-6.089 5.61-.476 2.108.076 4.415 1.463 6.108a9 9 0 0 0 1.279 1.224 7.22 7.22 0 0 0 5.8 1.269 7.265 7.265 0 0 0 5.619-5.833 8.3 8.3 0 0 0 .044-2.12c-.353-2.688-2.086-4.882-4.632-5.865-1.02-.395-2.363-.546-3.484-.393m4.235 2.716.098.098v3.581c0 3.558-.001 3.581-.085 3.808-.223.595-.853.924-1.695.886-.424-.019-.601-.094-.847-.361-.398-.433-.357-1.07.094-1.468.232-.204.498-.302 1.19-.44.51-.101.566-.121.67-.237l.113-.126v-1.682c0-1.083-.015-1.71-.041-1.76-.031-.056-.085-.077-.202-.077-.137 0-3.899.683-4.083.742-.175.056-.173.022-.194 2.734l-.02 2.584-.106.226c-.196.419-.532.663-1.071.777-.617.131-1.091.038-1.39-.273-.252-.261-.311-.403-.312-.75-.001-.254.015-.328.105-.48.237-.4.537-.558 1.38-.725.579-.115.713-.163.757-.274.068-.173.1-1.37.089-3.381-.011-2.048-.006-2.251.056-2.364a.45.45 0 0 1 .184-.173c.148-.061 4.856-.954 5.06-.959.111-.003.178.022.25.094" fill-rule="evenodd"/></svg>