<svg viewBox="0 0 24 24" xmlns="http://www.w3.org/2000/svg"><path d="M18.718 2.407c-1.019.093-1.972.939-2.202 1.954l-.05.221-.343-.073c-.475-.1-1.486-.077-1.923.044-.628.175-1.228.482-1.643.842-.119.104-1.197 1.174-2.396 2.378L7.982 9.962l.949.949.949.948 2.23-2.223c1.226-1.223 2.293-2.261 2.37-2.307.779-.458 1.821-.124 2.217.711.11.232.123.299.122.62-.001.312-.017.395-.12.62a2.6 2.6 0 0 1-.293.475l-.175.215.947.945.948.945.219-.24a4.85 4.85 0 0 0 1.039-1.844c.146-.488.177-1.379.065-1.907l-.074-.351.103-.023c.966-.211 1.676-.837 1.98-1.746.215-.641.167-1.298-.144-1.944a2.1 2.1 0 0 0-.467-.644c-.59-.594-1.264-.833-2.129-.754M4.36 2.461A2.61 2.61 0 0 0 2.401 4.96c0 .943.559 1.855 1.391 2.271.182.091.394.178.47.192a1 1 0 0 1 .137.031l-.079.386a4.4 4.4 0 0 0 .178 2.342c.26.729.389.896 1.831 2.375.719.739 1.787 1.809 2.373 2.379l1.065 1.037.936-.936.936-.936-2.194-2.2C8.153 10.605 7.208 9.626 7.147 9.52a1.59 1.59 0 0 1 .693-2.256c.231-.11.3-.124.62-.124.315 0 .392.015.62.12.143.066.357.198.475.294l.215.175.944-.943.944-.944-.139-.145c-.428-.445-1.33-.966-1.98-1.143-.261-.07-.436-.087-.959-.09a8 8 0 0 0-.845.029l-.205.033-.088-.293a2.5 2.5 0 0 0-.658-1.094 2.7 2.7 0 0 0-1.189-.678c-.311-.073-.937-.073-1.235 0m8.68 6.679-.939.939 2.243 2.251c2.083 2.091 2.25 2.268 2.358 2.51.102.228.117.308.117.642.001.362-.007.398-.15.687-.472.955-1.618 1.168-2.463.457a1 1 0 0 0-.2-.146c-.015 0-.449.423-.965.939l-.939.94.239.221a4.3 4.3 0 0 0 2.511 1.143c.448.05.996.011 1.427-.103.12-.031.221-.053.226-.048s.062.156.128.336c.155.424.347.709.696 1.032.306.283.696.498 1.091.602.293.076.894.086 1.185.018a3.4 3.4 0 0 0 1.065-.515c.794-.632 1.145-1.786.836-2.745-.282-.875-.954-1.517-1.818-1.737-.139-.035-.253-.078-.254-.094-.001-.017.02-.181.048-.366a4.5 4.5 0 0 0-.309-2.327c-.289-.684-.418-.833-2.866-3.286-1.257-1.26-2.294-2.29-2.306-2.29s-.444.423-.961.94m-7.625 3.408c-.619.717-.949 1.355-1.114 2.151-.081.395-.082 1.181-.001 1.558.032.153.055.28.049.284a4 4 0 0 1-.229.076c-.573.18-1.148.666-1.43 1.209-.221.425-.302.75-.302 1.214a2.56 2.56 0 0 0 1.932 2.503c.408.109.983.093 1.38-.036.802-.262 1.46-.899 1.685-1.629l.075-.244.14.023c.077.013.309.043.515.068.664.08 1.507-.068 2.19-.384.625-.288.81-.452 3.185-2.818 1.249-1.243 2.27-2.279 2.27-2.302s-.419-.461-.932-.973l-.932-.932-2.244 2.242c-1.921 1.921-2.274 2.257-2.464 2.343-.819.375-1.703.067-2.097-.732-.142-.286-.151-.327-.149-.667.002-.427.086-.656.382-1.047l.186-.246-.947-.946-.948-.947z" fill-rule="evenodd"/></svg>