<svg viewBox="0 0 24 24" xmlns="http://www.w3.org/2000/svg"><path d="M13.554 3.05c-.35.493-.454.679-.595 1.067-.44 1.205-.257 2.46.532 3.643.261.391 1.003 1.125 1.409 1.393.994.658 2.126.942 3.22.81 1.314-.158 2.21-.742 2.92-1.902l.171-.28-.339.321c-.592.56-1.136.773-2.06.807-1.381.051-2.553-.351-3.618-1.242-.724-.605-1.341-1.577-1.579-2.487-.09-.34-.105-.484-.105-.96 0-.587.05-.86.243-1.33.047-.116.081-.21.075-.21a6 6 0 0 0-.274.37M9.297 4.208c-.739 1.029-.938 1.384-1.148 2.052-.202.641-.246.952-.248 1.72-.001.853.062 1.256.32 2.046.626 1.914 2.076 3.567 3.974 4.53 1.127.572 1.983.766 3.373.766 2.064 0 3.633-.619 4.893-1.929a6.2 6.2 0 0 0 1.275-1.933l.065-.16-.147.18c-.302.371-.886.91-1.247 1.151-.641.429-1.329.712-2.177.897-.354.077-.53.089-1.29.09-.685 0-.96-.015-1.24-.071-1.588-.314-2.745-.866-3.926-1.875-1.288-1.1-2.193-2.569-2.539-4.121-.12-.543-.148-1.625-.056-2.212.077-.491.271-1.122.458-1.493.068-.135.118-.246.111-.246-.008 0-.211.274-.451.608M4.08 6.17c-.73.941-.9 1.194-1.162 1.73-.978 2.002-.957 4.49.058 6.912.304.727.971 1.861 1.379 2.347.796.948 1.234 1.386 2.005 2.005.839.674 2.12 1.374 3.24 1.77 1.084.383 1.771.484 3.3.485 1.195 0 1.598-.042 2.5-.264 2.17-.533 3.999-1.831 5.24-3.718.237-.359.66-1.15.631-1.179-.007-.007-.103.096-.212.23-.278.339-.928.91-1.379 1.21-1.192.791-2.631 1.245-4.247 1.338-.59.035-1.584-.002-2.113-.077-1.994-.284-3.794-1.073-5.414-2.374-.476-.383-1.397-1.312-1.787-1.803-1.833-2.307-2.57-5.303-1.94-7.892.102-.417.327-1.065.469-1.344a.5.5 0 0 0 .065-.165c-.007-.005-.292.349-.633.789" fill-rule="evenodd"/></svg>