<svg viewBox="0 0 24 24" xmlns="http://www.w3.org/2000/svg"><path d="M4.12 2.485c-.746.12-1.436.786-1.62 1.565-.089.377-.089 15.523 0 15.9.18.765.785 1.37 1.55 1.55.366.086 15.468.089 15.875.002a2.07 2.07 0 0 0 1.577-1.577c.084-.395.084-15.455 0-15.85-.17-.803-.865-1.47-1.662-1.594-.327-.051-15.402-.047-15.72.004m13.545 8.695c.481.082.991.332 1.307.643.22.216.55.655.546.725-.001.018-.31.227-.686.465-.553.35-.691.422-.718.374a1.7 1.7 0 0 0-.557-.566c-.189-.103-.259-.119-.537-.12-.268-.001-.349.015-.498.099-.477.267-.535.869-.122 1.256.205.192.437.32 1.06.584 1.231.522 1.874.957 2.216 1.498.26.413.337.684.355 1.267.02.611-.025.853-.236 1.275-.342.683-.972 1.111-1.917 1.303-.465.094-1.448.062-1.897-.061-.855-.235-1.547-.724-1.977-1.398a2 2 0 0 1-.164-.285c0-.029 1.387-.84 1.434-.838.014.001.087.091.162.202.533.786 1.583 1.093 2.37.694.523-.265.625-.915.208-1.321-.187-.181-.517-.355-1.426-.751-1.076-.469-1.657-.927-1.965-1.552-.263-.53-.328-1.3-.161-1.873.358-1.22 1.664-1.88 3.203-1.62m-4.835 3.43c-.015 3.76-.003 3.584-.301 4.19-.287.582-.835.992-1.554 1.164-.304.072-.439.082-.935.066-.482-.016-.634-.037-.9-.123a2.6 2.6 0 0 1-1.252-.842c-.155-.185-.408-.58-.408-.637 0-.027 1.391-.868 1.435-.868.017 0 .073.077.125.17.149.265.467.578.664.653.13.05.256.063.493.049.397-.023.587-.132.728-.419l.095-.193.011-3.29.011-3.29h1.801z" fill-rule="evenodd"/></svg>