<svg viewBox="0 0 24 24" xmlns="http://www.w3.org/2000/svg"><path d="M2.02 9.376a.67.67 0 0 0-.337.357c-.029.074-.043.841-.043 2.277 0 2.089.003 2.17.081 2.327.111.226.251.316.517.335.261.018.444-.08.58-.312.08-.137.082-.193.082-2.34 0-2.153-.002-2.203-.084-2.36a.625.625 0 0 0-.796-.284m2.84-.008c-.622.218-.732 1.066-.188 1.449a.9.9 0 0 0 .741.105c.399-.131.641-.638.5-1.046a.84.84 0 0 0-1.053-.508m9.76.017a3.4 3.4 0 0 0-.62.225c-.272.133-.408.234-.681.508-.522.524-.748 1.024-.787 1.746a2.676 2.676 0 0 0 3.001 2.807 2.57 2.57 0 0 0 1.566-.774c.323-.326.502-.607.653-1.024.096-.264.107-.348.107-.853.001-.606-.032-.761-.267-1.239-.518-1.057-1.775-1.647-2.972-1.396m5.01-.022a1.78 1.78 0 0 0-1.127.917c-.111.234-.123.298-.123.642 0 .361.008.399.149.684.18.365.412.592.784.767.257.121.29.126.887.141.681.016.798.048.899.245.079.151.078.399-.001.512-.147.21-.241.227-1.36.249-1.132.022-1.171.029-1.325.264-.098.151-.093.463.009.601.206.274.203.274 1.31.287 1.378.016 1.694-.062 2.161-.536.772-.782.529-2.108-.48-2.62-.265-.134-.272-.135-.944-.156l-.677-.022-.116-.129a.42.42 0 0 1 .096-.659c.06-.034.371-.056.975-.07.878-.02.888-.021.994-.12.237-.222.288-.525.128-.764-.171-.256-.264-.276-1.229-.272-.473.002-.927.02-1.01.039m-3.969 1.179c.442.115.815.43 1.013.853.09.193.105.279.105.605 0 .332-.014.41-.111.62a1.52 1.52 0 0 1-1.389.9c-.614 0-1.119-.329-1.39-.906-.095-.204-.109-.283-.108-.614 0-.326.015-.412.106-.607a1.56 1.56 0 0 1 1-.851 1.36 1.36 0 0 1 .774 0m-7.701.459c-.099.021-.308.1-.464.177a1.842 1.842 0 0 0-.559 2.89 1.85 1.85 0 0 0 1.991.517l.292-.099.089.083c.135.126.449.143.626.034.246-.152.276-.303.255-1.289-.015-.734-.029-.885-.099-1.078-.27-.734-.899-1.209-1.665-1.255-.157-.009-.367 0-.466.02m3.26-.014a.77.77 0 0 0-.404.357c-.044.105-.056.422-.056 1.499 0 1.183.009 1.383.066 1.503.209.442.867.451 1.101.014.07-.131.074-.236.064-1.567-.011-1.37-.014-1.432-.093-1.538-.166-.221-.442-.33-.678-.268m-7.651.08a.62.62 0 0 0-.299.72c.046.134 1.686 2.494 1.865 2.684.322.344.837.235 1.008-.213.057-.149.061-.207.023-.333-.041-.137-1.652-2.492-1.86-2.719a.616.616 0 0 0-.737-.139m4.962 1.015a1 1 0 0 1 .478.373c.198.369.041.876-.33 1.065-.288.147-.728.078-.924-.146a.89.89 0 0 1-.141-.866c.067-.16.31-.379.457-.411.06-.013.127-.03.149-.037.076-.026.16-.019.311.022" fill-rule="evenodd"/></svg>