<?xml version="1.0" encoding="utf-8"?>
<svg viewBox="0 0 24 24" xmlns="http://www.w3.org/2000/svg">
  <defs/>
  <path d="M 19.484 21.526 L 4.516 21.526 C 3.392 21.526 2.474 20.607 2.474 19.484 L 2.474 4.515 C 2.474 3.392 3.392 2.474 4.516 2.474 L 19.484 2.474 C 20.608 2.474 21.526 3.392 21.526 4.515 L 21.526 19.484 C 21.526 20.607 20.608 21.526 19.484 21.526 Z M 10.962 8.704 C 10.962 7.399 10.214 6.785 9.273 6.785 C 8.177 6.785 7.572 7.628 7.572 8.678 L 7.572 15.262 C 7.572 16.359 8.155 17.201 9.295 17.201 C 10.209 17.201 10.962 16.605 10.962 15.262 L 10.962 13.484 L 13.54 16.704 C 14.061 17.337 15.198 17.417 15.913 16.704 C 16.533 16.062 16.542 15.139 16.082 14.56 L 13.993 11.889 L 15.716 9.393 C 16.117 8.819 16.12 7.926 15.477 7.306 C 14.78 6.629 13.582 6.569 12.866 7.604 L 10.962 10.354 L 10.962 8.704 Z" style=""/>
</svg>