<svg viewBox="0 0 24 24" xmlns="http://www.w3.org/2000/svg"><path d="M4.549 3.451C2.762 4.487 2.677 4.542 2.637 4.678c-.027.095-.037 2.188-.029 6.375l.012 6.234.101.087c.212.182 7.354 4.266 7.461 4.266.125 0 7.476-4.216 7.526-4.317.018-.034.041-.979.052-2.099l.02-2.036 1.716-.991c.944-.546 1.754-1.029 1.8-1.075.083-.083.084-.104.084-2.262 0-2.125-.002-2.18-.08-2.255-.091-.088-3.601-2.11-3.779-2.177-.109-.041-.224.018-1.989 1.028-1.029.59-1.899 1.098-1.932 1.13-.051.048-.063.356-.08 2.12l-.02 2.063-1.46.84c-.803.462-1.482.849-1.51.86-.04.016-.05-.78-.05-3.9 0-3.675-.004-3.925-.07-4.003-.038-.046-.898-.561-1.91-1.145-1.344-.775-1.872-1.06-1.96-1.058-.081.003-.736.361-1.991 1.088m3.48.395c.809.465 1.485.858 1.503.874.017.015-.646.418-1.474.895l-1.505.868-1.487-.857c-.817-.471-1.483-.872-1.48-.889.004-.024 2.916-1.73 2.963-1.736.005-.001.671.38 1.48.845m10.933 2.081c.813.466 1.477.858 1.476.87-.003.041-2.936 1.703-3 1.701-.061-.003-2.853-1.589-2.948-1.675-.039-.036.287-.24 1.42-.891.808-.464 1.493-.846 1.522-.848s.716.377 1.53.843M4.84 6.192l1.38.798.02 4.128.02 4.129.102.086c.056.048.87.519 1.809 1.047l1.707.96.001 1.73c.001.951-.012 1.73-.029 1.729-.016 0-1.506-.851-3.31-1.891l-3.28-1.89-.01-5.87-.01-5.87.11.058c.06.032.731.417 1.49.856M9.88 9.07l-.001 3.79-.349.198c-.193.108-.859.491-1.481.85-.623.358-1.14.652-1.151.652-.01 0-.014-1.704-.008-3.787l.01-3.787.2-.118A270 270 0 0 1 9.869 5.28c.006 0 .011 1.706.011 3.79m5.83-.832 1.41.81v1.719c0 .946-.014 1.714-.032 1.706-.017-.007-.692-.391-1.498-.853l-1.467-.84-.001-1.735-.002-1.734.09.058c.05.033.724.424 1.5.869m5.049.812-.001 1.73-1.465.84c-.806.462-1.481.846-1.499.853s-.034-.76-.034-1.706V9.048l1.49-.86c.82-.473 1.494-.862 1.5-.864s.01.774.009 1.726m-3.99 3.974c.002.02-1.48.884-3.293 1.921L10.18 16.83l-.2-.115c-.11-.064-.78-.444-1.489-.845-.709-.402-1.285-.743-1.28-.759s1.492-.882 3.304-1.924l3.296-1.896 1.478.849c.812.467 1.479.865 1.48.884m.35 2.266-.001 1.73-3.319 1.906-3.319 1.906.001-1.746.001-1.746 3.309-1.886 3.319-1.89c.006-.002.01.774.009 1.726" fill-rule="evenodd"/></svg>