<svg viewBox="0 0 24 24" xmlns="http://www.w3.org/2000/svg"><path d="M12.22 1.666c-.872.097-1.133.164-1.6.408-.337.176-.754.574-.934.894-.161.284-.305.703-.395 1.149-.058.286-.067.503-.053 1.303.03 1.726.022 2.095-.054 2.452-.173.817-.48 1.442-1.04 2.121-.791.96-1.542 2.198-1.943 3.204-.296.743-.407 1.251-.436 1.991l-.025.648-.123.132a5 5 0 0 0-.257.312c-.255.343-.367.436-.657.545-.595.225-.905.435-1.01.687-.116.277-.135.517-.073.931.083.547.076.742-.04 1.141-.166.572-.121.955.144 1.22.204.204.622.334 1.475.459.893.13 1.075.178 1.661.436.727.321 1.031.398 1.58.4.376.001.507-.015.72-.089a1.6 1.6 0 0 0 .777-.572l.123-.181.78-.129c1.098-.181 1.375-.194 2.116-.092.339.046.767.084.95.084.209 0 .334.016.334.043 0 .111.236.502.409.678.489.497 1.099.63 1.808.395.425-.142.772-.381 1.303-.898.578-.562.708-.652 1.594-1.095.886-.444 1.166-.708 1.166-1.101 0-.201-.119-.487-.323-.777-.388-.551-.47-.722-.581-1.203a4 4 0 0 0-.194-.642c-.077-.157-.286-.36-.49-.474-.06-.034-.06-.055-.001-.271.459-1.67-.167-3.511-1.948-5.735-.64-.8-.872-1.129-1.101-1.565-.348-.662-.367-.774-.403-2.335-.023-.99-.05-1.463-.099-1.74-.27-1.498-.94-2.355-2.06-2.634-.297-.074-.868-.126-1.1-.1m.946 2.98c.233.07.454.284.601.581.115.236.129.301.13.609 0 .363-.053.582-.194.791l-.086.126-.198-.096a1.2 1.2 0 0 0-.249-.097c-.069 0-.063-.025.037-.162.121-.162.147-.538.055-.779-.134-.351-.45-.454-.639-.207a1 1 0 0 0-.223.629c0 .181-.009.202-.074.181l-.25-.075-.176-.05-.012-.231c-.022-.413.151-.85.416-1.052a.94.94 0 0 1 .862-.168m-2.503.083c.163.074.371.423.436.731.033.154.06.346.06.426.001.153.017.14-.379.299-.022.009-.045-.067-.052-.171-.023-.35-.165-.57-.369-.573q-.197 0-.283.338c-.054.216-.027.386.102.642l.097.19-.088.073c-.123.103-.153.094-.278-.083-.168-.238-.229-.455-.229-.819 0-.711.319-1.185.754-1.118.073.012.176.041.229.065m1.283 1.444c.112.029.381.153.599.276s.532.272.699.331.387.172.488.253c.161.128.184.167.186.302q.005.422-.678.765c-.121.061-.382.21-.58.331-.497.303-.786.406-1.169.416-.27.006-.337-.007-.511-.1-.354-.191-1.15-.833-1.248-1.007-.181-.321-.103-.521.312-.8.158-.106.375-.28.482-.386.392-.39.88-.521 1.42-.381m-1.016.333c-.079.032-.058.134.027.134.113 0 .283-.071.283-.119 0-.041-.218-.052-.31-.015m.8.023c.017.053.3.135.337.097.013-.012.012-.05-.001-.084-.03-.078-.362-.09-.336-.013m1.528.768c-.09.138-.688.564-.987.703-.823.384-1.461.28-2.091-.342-.259-.255-.341-.305-.339-.208.005.175.425.549.837.746.281.134.328.144.682.144.348 0 .407-.012.7-.141.659-.291 1.436-.836 1.362-.955q-.062-.104-.164.053m.82 1.173c.303 1.035.759 2.159 1.423 3.51.449.914.609 1.325.777 2l.11.44.196.025c.108.013.209.013.224 0 .069-.061.152-.534.152-.868 0-.83-.391-1.773-1.018-2.455-.203-.221-.276-.362-.187-.362.046 0 .421.43.661.758.252.343.599 1.058.729 1.502.086.294.107.448.11.84a4.4 4.4 0 0 1-.024.61c-.026.117-.019.132.077.156.326.081.988.577 1.107.829.07.147.089.465.028.465-.02 0-.063.01-.096.023-.048.018-.059-.013-.057-.155.005-.315-.206-.545-.75-.818-.763-.384-1.413-.377-1.613.017a1.5 1.5 0 0 0-.105.281c-.018.083-.058.138-.115.155-.253.077-.527.407-.684.827-.117.308-.173.678-.219 1.43a4.8 4.8 0 0 1-.166 1.075l-.131.495-.283.184c-.8.518-1.908.796-2.734.687-.663-.087-1.468-.424-1.656-.692a8 8 0 0 0-.289-.369l-.197-.239.136-.034c.259-.064.392-.144.46-.275.275-.531-.337-1.407-1.556-2.227-.669-.45-.781-.545-.969-.83-.538-.81-.466-1.89.22-3.259.265-.53.549-1.024.61-1.062.071-.043-.012.151-.291.686-.316.605-.495 1.093-.579 1.57-.074.425-.073.634.001.99.058.275.314.86.376.86.018 0 .043-.149.055-.331.058-.81.298-1.615.827-2.764.812-1.766 1.128-2.654 1.251-3.519l.051-.354.44.35c.577.458.705.516 1.14.513.396-.004.603-.072 1.12-.368.187-.107.435-.226.551-.264.207-.069.689-.395.689-.466 0-.021.013-.037.03-.037.017.001.092.212.168.47m1.884 7.803c.203.46.454.628.889.597.332-.024.829-.252 1.106-.507.161-.149.195-.163.395-.163.577 0 .836.247.989.94.12.542.206.737.495 1.118.348.458.404.571.404.817 0 .186-.011.208-.19.365-.105.093-.467.308-.81.481-.862.436-1.068.58-1.599 1.113-.689.691-1.155.929-1.83.935-.293.002-.359-.012-.589-.125-.285-.14-.45-.312-.608-.633-.087-.177-.102-.262-.1-.547.003-.369.057-.644.266-1.344.215-.722.255-.937.301-1.64.079-1.181.244-1.698.615-1.924l.124-.076.03.205c.017.113.067.288.112.388m-9.091-.454c.355.165.54.404 1.12 1.447.425.763.612 1.054.935 1.454.479.594.764 1.007.908 1.315.225.481.077 1.136-.324 1.43-.294.215-.517.276-.99.269-.533-.008-.908-.105-1.528-.396-.587-.276-.887-.353-1.781-.457a9 9 0 0 1-.93-.146c-.253-.072-.478-.279-.486-.448-.013-.256.02-.487.109-.767.112-.355.117-.516.032-1.054-.084-.526-.063-.777.08-.964.113-.148.408-.318.814-.468.337-.125.536-.285.784-.628.28-.388.456-.558.651-.627.225-.08.368-.071.606.04" fill-rule="evenodd"/></svg>