<svg viewBox="0 0 24 24" xmlns="http://www.w3.org/2000/svg"><path d="M4.12 9.142c-.315.087-.65.253-1.036.512a6 6 0 0 1-.35.226c-.008 0-.014-.153-.014-.34V9.2H1.28v5.6H2.8v-3.48l.263-.194c.494-.362.686-.46.941-.479.221-.016.242-.009.35.107.064.068.127.18.141.25.014.069.025.952.025 1.962v1.836l.77-.011.77-.011.02-1.751.02-1.751.34-.244c.424-.305.61-.392.841-.393q.288-.002.409.211c.037.066.055.57.07 2.008l.02 1.92.77.011.77.011v-2.111c0-1.274-.017-2.214-.042-2.371-.12-.744-.573-1.191-1.248-1.232-.57-.034-1.109.146-1.767.59-.17.115-.315.203-.321.195a2 2 0 0 1-.078-.142c-.096-.189-.317-.396-.555-.519-.176-.09-.269-.109-.589-.119a2 2 0 0 0-.6.049m7.84-.034c-.493.082-1.066.393-1.459.79-.608.615-.889 1.358-.849 2.242.04.879.425 1.654 1.089 2.192.486.393 1.045.586 1.7.587.67.001 1.17-.187 1.627-.614l.252-.234v.729h1.48V9.2h-1.48v.727l-.255-.233a2.4 2.4 0 0 0-1.03-.553 4 4 0 0 0-1.075-.033m4.136.155c.093.243 1.174 1.645 1.799 2.332l.34.375-.268.305a25 25 0 0 0-1.193 1.485c-.313.426-.694.985-.694 1.018 0 .012.409.022.91.022l.91-.001.16-.249c.226-.354.81-1.122 1.094-1.439l.241-.269.206.229c.274.304.865 1.093 1.083 1.446l.174.283h.934c.735 0 .927-.011.904-.05-.22-.384-1.028-1.469-1.627-2.183l-.514-.612.293-.328c.666-.742 1.557-1.889 1.847-2.377.023-.039-.164-.05-.883-.05H20.9l-.193.282c-.388.565-1.236 1.598-1.312 1.598-.059 0-.837-.938-1.16-1.397l-.335-.478-.914-.003c-.819-.002-.912.005-.89.061m-3.036 1.151c.485.13.828.41 1.049.857.147.297.151.317.151.747 0 .436-.002.446-.154.731-.286.534-.767.849-1.346.883a1.56 1.56 0 0 1-1.299-.515c-.729-.779-.523-2.052.414-2.551.385-.205.79-.257 1.185-.152m-.703.358c-.586.165-.957.642-.957 1.228a1.26 1.26 0 0 0 1.987 1.036c.625-.431.705-1.384.161-1.928-.301-.301-.807-.443-1.191-.336" fill-rule="evenodd"/></svg>