<svg viewBox="0 0 24 24" xmlns="http://www.w3.org/2000/svg"><path d="M4.355 2.322c-.512.077-.92.282-1.315.662-.302.29-.482.571-.633.983L2.3 4.26l-.011 5.76c-.01 5.144-.005 5.794.052 6.08a2.46 2.46 0 0 0 1.639 1.85l.32.109 2.03.012 2.03.013v1.64c0 1.357.01 1.659.058 1.753a.5.5 0 0 0 .477.226c.079-.016.994-.679 2.502-1.814l2.376-1.789 2.964-.02 2.963-.02.32-.109a2.48 2.48 0 0 0 1.639-1.851c.057-.286.062-.933.052-6.08L21.7 4.26l-.107-.293a2.4 2.4 0 0 0-.653-1.001 2.6 2.6 0 0 0-1.02-.596c-.203-.063-.791-.069-7.78-.075-4.158-.003-7.661.009-7.785.027" fill-rule="evenodd"/></svg>