<svg viewBox="0 0 24 24" xmlns="http://www.w3.org/2000/svg"><path d="M6.96 4.84c-2.888.306-5.331 3.774-5.758 8.177-.063.649-.053 1.839.02 2.338.295 2.029 1.303 3.317 2.918 3.729.502.129 1.443.129 1.92.001 1.52-.407 2.738-1.791 4.741-5.385.481-.863.792-1.408 1.069-1.873l.14-.233.308.513 1.099 1.833c1.387 2.313 2.153 3.399 2.897 4.107.608.58 1.186.902 1.905 1.065.432.097 1.39.084 1.791-.025.669-.181 1.071-.406 1.513-.846.895-.891 1.314-2.206 1.316-4.132.005-4.826-2.529-8.94-5.708-9.266a4 4 0 0 0-1.332.095c-.375.094-1.083.458-1.499.77-.57.427-1.397 1.299-1.922 2.025l-.081.112-.329-.398c-.424-.513-1.304-1.363-1.712-1.655a6 6 0 0 0-1.328-.712 4.9 4.9 0 0 0-1.968-.24m10.197 1.905c.987.245 1.887 1.137 2.558 2.535.497 1.036.831 2.292.962 3.62.216 2.193-.062 3.412-.868 3.808-.207.101-.27.112-.649.112-.373 0-.446-.012-.651-.108a2.4 2.4 0 0 1-.412-.257c-.527-.431-1.381-1.68-3.088-4.515a83 83 0 0 0-1.237-1.996l-.418-.637.233-.342c.887-1.302 1.66-2.004 2.453-2.227.258-.073.81-.069 1.117.007m-9.077.518c.542.16 1.166.601 1.711 1.21.301.335 1.035 1.283 1.075 1.389.01.024-.286.511-.657 1.081s-.933 1.442-1.248 1.937c-2.163 3.392-2.766 4.01-3.854 3.952-1.169-.061-1.681-1.082-1.582-3.152.116-2.416 1.09-4.863 2.351-5.907.294-.243.809-.515 1.084-.572.245-.051.852-.018 1.12.062" fill-rule="evenodd"/></svg>