<?xml version="1.0" encoding="utf-8"?>
<svg viewBox="0 0 24 24" xmlns="http://www.w3.org/2000/svg">
  <defs/>
  <path class="st0" d="M 15.037 2.917 L 8.962 2.917 C 7.923 2.917 7.079 3.763 7.079 4.802 L 7.079 19.197 C 7.079 20.236 7.925 21.083 8.962 21.083 L 15.037 21.083 C 16.075 21.083 16.92 20.236 16.92 19.197 L 16.92 4.802 C 16.92 3.763 16.075 2.917 15.037 2.917 Z M 11.251 19.003 C 11.251 18.986 11.268 18.968 11.286 18.968 L 12.713 18.968 C 12.733 18.968 12.749 18.986 12.749 19.003 L 12.749 19.489 C 12.749 19.507 12.733 19.524 12.713 19.524 L 11.286 19.524 C 11.268 19.524 11.251 19.507 11.251 19.489 L 11.251 19.003 Z M 12.749 18.161 C 12.749 18.18 12.733 18.196 12.713 18.196 L 11.286 18.196 C 11.268 18.196 11.251 18.18 11.251 18.161 L 11.251 17.676 C 11.251 17.656 11.268 17.64 11.286 17.64 L 12.713 17.64 C 12.733 17.64 12.749 17.656 12.749 17.676 L 12.749 18.161 Z M 12.749 16.833 C 12.749 16.853 12.733 16.868 12.713 16.868 L 11.286 16.868 C 11.268 16.868 11.251 16.853 11.251 16.833 L 11.251 16.348 C 11.251 16.328 11.268 16.312 11.286 16.312 L 12.713 16.312 C 12.733 16.312 12.749 16.328 12.749 16.348 L 12.749 16.833 Z M 11.999 15.387 C 11.522 15.387 11.135 14.998 11.135 14.521 C 11.135 14.043 11.522 13.654 11.999 13.654 C 12.478 13.654 12.866 14.043 12.866 14.521 C 12.866 14.998 12.478 15.387 11.999 15.387 Z M 8.962 4.206 L 15.037 4.206 C 15.391 4.206 15.679 4.495 15.679 4.848 L 15.679 12.836 L 8.319 12.836 L 8.319 4.848 C 8.319 4.495 8.609 4.206 8.962 4.206 Z M 10.415 14.128 L 10.415 14.914 L 8.865 14.914 L 8.37 14.128 L 10.415 14.128 Z M 10.12 18.161 C 10.12 18.18 10.104 18.196 10.085 18.196 L 8.66 18.196 C 8.64 18.196 8.624 18.18 8.624 18.161 L 8.624 17.676 C 8.624 17.656 8.64 17.64 8.66 17.64 L 10.085 17.64 C 10.104 17.64 10.12 17.656 10.12 17.676 L 10.12 18.161 Z M 10.12 16.833 C 10.12 16.853 10.104 16.868 10.085 16.868 L 8.66 16.868 C 8.64 16.868 8.624 16.853 8.624 16.833 L 8.624 16.348 C 8.624 16.328 8.64 16.312 8.66 16.312 L 10.085 16.312 C 10.104 16.312 10.12 16.328 10.12 16.348 L 10.12 16.833 Z M 8.624 19.489 L 8.624 19.003 C 8.624 18.986 8.64 18.968 8.66 18.968 L 10.085 18.968 C 10.104 18.968 10.12 18.986 10.12 19.003 L 10.12 19.489 C 10.12 19.507 10.104 19.524 10.085 19.524 L 8.66 19.524 C 8.64 19.524 8.624 19.507 8.624 19.489 Z M 15.628 14.128 L 15.135 14.914 L 13.583 14.914 L 13.583 14.128 L 15.628 14.128 Z M 15.375 18.161 C 15.375 18.18 15.359 18.196 15.34 18.196 L 13.914 18.196 C 13.895 18.196 13.879 18.18 13.879 18.161 L 13.879 17.676 C 13.879 17.656 13.895 17.64 13.914 17.64 L 15.34 17.64 C 15.359 17.64 15.375 17.656 15.375 17.676 L 15.375 18.161 Z M 15.375 16.833 C 15.375 16.853 15.359 16.868 15.34 16.868 L 13.914 16.868 C 13.895 16.868 13.879 16.853 13.879 16.833 L 13.879 16.348 C 13.879 16.328 13.895 16.312 13.914 16.312 L 15.34 16.312 C 15.359 16.312 15.375 16.328 15.375 16.348 L 15.375 16.833 Z M 13.879 19.489 L 13.879 19.003 C 13.879 18.986 13.895 18.968 13.914 18.968 L 15.34 18.968 C 15.359 18.968 15.375 18.986 15.375 19.003 L 15.375 19.489 C 15.375 19.507 15.359 19.524 15.34 19.524 L 13.914 19.524 C 13.895 19.524 13.879 19.507 13.879 19.489 Z" style="" transform="matrix(1, 0, 0, 1, -7.105427357601002e-15, -7.105427357601002e-15)"/>
</svg>