<svg viewBox="0 0 24 24" xmlns="http://www.w3.org/2000/svg"><path d="M14.091 4.296c-3.327 1.001-6.116 1.851-6.198 1.89a1.3 1.3 0 0 0-.547.568l-.086.186-.011 4.39c-.008 3.448-.021 4.39-.06 4.389-.027 0-.121-.019-.209-.04-.541-.133-1.38-.121-1.98.028-1.528.379-2.587 1.632-2.511 2.968.124 2.153 2.855 3.487 5.169 2.523.945-.393 1.617-1.112 1.887-2.018.066-.222.072-.539.085-4.309l.013-4.068.388-.119c.214-.066 2.315-.697 4.669-1.403l4.35-1.304c.066-.021.07.125.07 2.685 0 2.498-.005 2.705-.066 2.681-.238-.091-.83-.151-1.294-.13-.633.028-1.065.133-1.582.385-1.132.551-1.79 1.492-1.79 2.562 0 2.185 2.722 3.624 5.092 2.691.784-.308 1.429-.875 1.763-1.551.292-.59.276-.153.276-7.348.001-6.381 0-6.472-.079-6.684a1.16 1.16 0 0 0-1.03-.771c-.263-.019-.418.025-6.319 1.799" fill-rule="evenodd"/></svg>