<svg viewBox="0 0 24 24" xmlns="http://www.w3.org/2000/svg"><path d="M6.441 11.95c0 5.516.013 10.049.03 10.073.02.03.347.011 1.102-.066.59-.06 1.454-.131 1.92-.159s.865-.066.887-.086c.026-.023.047-1.507.06-4.219l.02-4.183.193.535c.209.579 1.856 5.241 2.414 6.835.19.539.368 1 .398 1.024s.311.056.624.071a59 59 0 0 1 2.909.244c.273.033.507.049.52.037.012-.013.027-4.539.032-10.059l.011-10.037H15.58c-1.089 0-1.983.004-1.987.01s-.018 1.981-.03 4.39l-.023 4.38-.165-.46a3024 3024 0 0 1-2.455-6.94 47 47 0 0 0-.486-1.35c-.034-.065-.172-.07-2.015-.07H6.44z" fill-rule="evenodd"/></svg>