<svg viewBox="0 0 24 24" xmlns="http://www.w3.org/2000/svg"><path d="M1.24 12.001v2.921l.09-.02c.049-.01.256-.04.46-.066l.369-.047.011-1.565.01-1.564.356 1.04c.196.572.428 1.245.516 1.495l.16.455.264-.026c.145-.014.368-.036.494-.05l.23-.024V9.08h-.919l-.011 1.616-.01 1.616-.578-1.616-.579-1.616H1.24zm3.84-.231v2.691l1.11-.088a48 48 0 0 1 1.26-.091l.15-.002v-.891l-.47.027a44 44 0 0 0-.8.051l-.33.024V12.12h1.2v-.926l-.6.029-.6.028V10h1.6v-.92H5.08zm3.107-2.664c-.015.015-.027.222-.027.461V10h.96v4.203l.45-.012.45-.011.01-2.09.011-2.09h.962l-.012-.45-.011-.45-1.383-.011c-.76-.005-1.395.002-1.41.017m3.373 2.493v2.521h.88v-2.04h1.24v-.92h-1.24V10h1.683l-.012-.45-.011-.45-1.27-.011-1.27-.01zm3.12.04c0 2.412.004 2.561.07 2.561.038.001.574.027 1.19.06l1.151.059c.018.001.027-.202.02-.449l-.011-.45-.75-.035-.749-.035-.011-2.125-.01-2.125-.45-.011-.45-.012zm3.2.077c0 1.452.013 2.647.03 2.656s.224.03.46.046l.431.027-.011-2.672-.01-2.673-.45-.011-.45-.012zm1.69-2.587.53 1.367.51 1.315-.085.206c-.047.113-.308.709-.58 1.324s-.487 1.127-.479 1.136c.016.019.742.119.878.122.071.001.132-.111.399-.739.173-.407.326-.74.34-.74s.167.366.339.813l.312.813.503.082c.277.045.507.079.511.075.005-.003-.251-.689-.568-1.524l-.576-1.517.561-1.341.583-1.391c.016-.038-.095-.05-.479-.05h-.499l-.315.757c-.173.416-.322.749-.331.74s-.145-.345-.301-.747l-.285-.73-.494-.011c-.388-.009-.489-.001-.474.04" fill-rule="evenodd"/></svg>