<svg viewBox="0 0 24 24" xmlns="http://www.w3.org/2000/svg"><path d="M11.76 1.562a1.8 1.8 0 0 0-.38.094c-.359.152-7.96 4.573-8.145 4.737a1.6 1.6 0 0 0-.344.478l-.151.305-.012 4.702c-.013 5.26-.028 4.974.271 5.435.192.298.33.396 1.584 1.119 1.045.604 1.518.831 1.986.956.337.09 1.078.087 1.428-.006.779-.206 1.277-.718 1.484-1.526.076-.299.079-.459.079-4.974 0-3.576-.011-4.677-.048-4.714-.067-.067-1.237-.067-1.304 0-.037.037-.048 1.093-.048 4.513 0 5.07.019 4.756-.314 5.08a1.1 1.1 0 0 1-.351.23c-.26.078-.619.061-.905-.043-.283-.103-2.279-1.238-2.42-1.376l-.09-.088v-8.96l.09-.099c.117-.129 7.652-4.476 7.795-4.497.086-.013.903.442 3.942 2.193 2.108 1.216 3.864 2.237 3.903 2.271.066.057.07.327.07 4.611v4.552l-.11.077c-.329.23-7.703 4.448-7.778 4.448-.048 0-.543-.27-1.099-.6s-1.05-.6-1.098-.6a.8.8 0 0 0-.271.109c-.101.06-.39.191-.641.292-.252.1-.464.203-.473.229s.022.079.068.118c.163.141 2.826 1.693 3.022 1.761.274.097.774.088 1.04-.017.248-.098 7.941-4.536 8.156-4.706.213-.167.441-.532.521-.835.061-.229.066-.666.055-4.953l-.012-4.702-.151-.306a1.5 1.5 0 0 0-.34-.472c-.279-.246-8.082-4.74-8.32-4.792-.294-.063-.451-.074-.689-.044m1.504 6.358c-1.426.179-2.345.816-2.628 1.82-.081.288-.071 1.019.019 1.309.141.458.508.873.984 1.112.51.256 1.138.398 2.469.557 1.361.163 1.818.263 2.201.483.275.157.35.299.343.65-.016.771-.578 1.105-1.973 1.172-.586.028-1.313-.025-1.699-.124-.738-.188-1.066-.53-1.218-1.269-.031-.149-.074-.244-.122-.27-.117-.063-1.169-.051-1.258.014-.065.047-.071.097-.053.43.056 1.051.681 1.837 1.774 2.233.699.253 1.044.3 2.197.301.937 0 1.081-.009 1.457-.091q2.07-.455 2.382-2.015c.202-1.017-.153-1.861-.959-2.279-.538-.279-1.187-.439-2.56-.631-1.914-.269-2.379-.415-2.502-.788-.086-.261.032-.727.228-.899.118-.104.454-.259.694-.32.305-.076 1.853-.077 2.16 0 .674.169 1.023.506 1.216 1.174.039.136.097.246.142.27.042.023.327.041.633.041.505 0 .563-.007.629-.08.059-.065.067-.121.047-.31q-.105-.979-.717-1.588c-.456-.454-.997-.708-1.793-.843-.438-.075-1.69-.11-2.093-.059" fill-rule="evenodd"/></svg>