<svg viewBox="0 0 24 24" xmlns="http://www.w3.org/2000/svg"><path d="M15.584 5.503c-.013.035-.024.781-.024 1.658 0 .895-.016 1.604-.036 1.616s-.177-.059-.35-.158c-.195-.112-.345-.173-.396-.161-.093.022-2.082 1.161-2.188 1.253-.064.056-.07.174-.07 1.375v1.313l.15.094c.595.373 2.064 1.187 2.142 1.187.097 0 2.057-1.106 2.218-1.252l.09-.082V6.254l-.09-.081c-.134-.12-1.26-.733-1.347-.733-.041 0-.085.028-.099.063M2.4 9.018c-.671.389-1.078.649-1.109.708-.064.122-.073 3.198-.01 3.317.023.042.069.077.101.077.084 0 1.263-.673 1.348-.77.062-.07.07-.175.07-.912v-.834l.13-.097a4 4 0 0 1 .38-.232l.249-.135.303.16c.492.26.458.179.458 1.099 0 .438.016.837.035.888.024.063.237.208.668.453.347.198.656.366.686.373s.081-.008.113-.035c.049-.04.058-.303.058-1.685V9.756l-.09-.089C5.646 9.525 3.659 8.4 3.555 8.402c-.052.001-.572.278-1.155.616m5.621.043c-.593.341-1.091.643-1.108.67s-.032.617-.032 1.312c-.001 1.26-.001 1.263.089 1.344.152.135 2.131 1.253 2.22 1.253.093 0 2.161-1.176 2.24-1.273.072-.09.072-2.564 0-2.654-.08-.099-2.151-1.273-2.246-1.273-.048 0-.571.279-1.163.621m11.259-.008q-1.061.613-1.109.71c-.071.139-.071 2.416 0 2.556.056.11 2.111 1.315 2.249 1.318.044.001.377-.165.74-.368.474-.265.663-.392.671-.449.01-.066-.168-.183-1.035-.68-.576-.33-1.072-.624-1.102-.653-.059-.057-.079-.789-.023-.871.028-.042.711-.456.752-.456.012 0 .191.1.398.221l.376.222.012.368c.01.334.018.37.091.379.118.015 1.348-.711 1.409-.831.064-.127.065-.63 0-.755-.064-.125-2.116-1.324-2.264-1.324-.062 0-.539.251-1.165.613m-4.082 1.357.363.21-.011.458-.01.458-.368.212-.367.211-.373-.215-.372-.215v-.907l.36-.21c.198-.116.372-.211.387-.211.015-.001.191.094.391.209m5.01.237-.211.123.011.262.012.263.18.109c.099.061.207.11.24.11a.8.8 0 0 0 .24-.11l.18-.109.012-.263.011-.262-.221-.125a3 3 0 0 0-.231-.123 6 6 0 0 0-.223.125m-9.01 2.966-1.041.599c-.255.147-.498.305-.54.352-.072.079-.078.168-.089 1.308-.008.874.002 1.256.036 1.337.033.079.147.173.372.304.443.259.517.287.75.287.236 0 .392-.08.499-.255.069-.115.075-.22.075-1.345v-1.22h-.36l-.011 1.177q-.01 1.177-.055 1.23c-.086.103-.321.059-.634-.119l-.3-.17-.011-1.164-.01-1.163.93-.533.998-.573c.053-.032.278.081 1.071.536l1.003.576-.01 1.159-.011 1.159-.993.573-.993.572-.271-.161-.27-.16-.19.084c-.104.046-.184.09-.176.097.007.007.183.114.391.237.27.159.418.223.52.222.109 0 .375-.136 1.158-.59.603-.35 1.05-.635 1.1-.702.081-.109.084-.155.084-1.342 0-1.065-.009-1.242-.065-1.327-.082-.125-2.147-1.318-2.281-1.318-.054 0-.358.15-.676.333m.836 1.32c-.384.109-.536.301-.504.635.033.346.226.458.95.553.437.058.537.105.552.261.02.207-.1.276-.512.292-.435.017-.613-.05-.681-.258-.043-.128-.056-.136-.227-.136h-.182l.024.149c.067.412.53.651 1.161.598.318-.027.601-.152.723-.32.123-.17.116-.545-.014-.682-.118-.126-.36-.207-.804-.268a3 3 0 0 1-.473-.101c-.116-.048-.131-.07-.12-.184.017-.172.139-.231.481-.231.336-.001.457.053.557.249.073.142.091.154.227.142.186-.015.206-.102.079-.352a.54.54 0 0 0-.272-.27c-.229-.114-.702-.152-.965-.077" fill-rule="evenodd"/></svg>