<svg viewBox="0 0 24 24" xmlns="http://www.w3.org/2000/svg"><path d="M10.44 2.098a8 8 0 0 1-.36.063c-1.652.266-3.114 1.442-3.746 3.015-.072.178-.154.337-.182.352a4 4 0 0 1-.392.129 5.5 5.5 0 0 0-.709.28C3.599 6.644 2.647 7.876 2.297 9.5c-.103.476-.096 1.44.014 1.94.182.833.589 1.69 1.054 2.22l.121.137-.106.411a5.3 5.3 0 0 0-.101 1.802c.335 2.471 2.446 4.348 4.899 4.357.265.001.626-.019.802-.045l.32-.046.288.276c1.95 1.864 5.092 1.821 6.991-.095.516-.521.869-1.058 1.109-1.687.07-.182.149-.33.178-.33.126 0 .863-.264 1.174-.421a5.07 5.07 0 0 0 2.657-3.536 4.96 4.96 0 0 0-.992-4.017c-.198-.247-.216-.285-.179-.38.211-.551.279-1.74.137-2.406-.442-2.078-2.066-3.648-4.116-3.98-.431-.07-1.156-.078-1.549-.017l-.277.043-.291-.263c-.759-.687-1.511-1.084-2.436-1.287-.266-.058-1.398-.115-1.554-.078m1.499 1.417c.153.046.41.147.572.224.307.146.809.459.809.504 0 .015-.938.565-2.084 1.222-1.98 1.136-2.089 1.204-2.19 1.375l-.106.18-.02 2.845-.02 2.844-.831-.484-.832-.485.013-2.64c.012-2.583.014-2.647.101-2.96.373-1.349 1.458-2.369 2.849-2.68.389-.087 1.37-.056 1.739.055m4.587 1.502c1.148.246 2.163 1.092 2.638 2.201.201.468.252.753.254 1.409.001.333-.011.619-.026.634s-.96-.518-2.1-1.185C15.254 6.883 15.216 6.863 15 6.863s-.261.024-2.659 1.408a135 135 0 0 1-2.47 1.409c-.017 0-.031-.431-.031-.957v-.958l.11-.076c.233-.162 3.918-2.266 4.226-2.413a3.73 3.73 0 0 1 2.35-.259M5.961 9.39c.001 2.244.005 2.4.075 2.554.041.09.126.2.189.244.063.045 1.168.688 2.455 1.431 1.287.742 2.352 1.361 2.367 1.375s-.343.24-.796.502c-.733.424-.835.473-.927.437-.173-.066-3.966-2.251-4.226-2.435-.693-.489-1.231-1.27-1.466-2.127-.124-.453-.123-1.413.002-1.871a3.7 3.7 0 0 1 1.944-2.345C5.753 7.07 5.91 7 5.928 7s.032 1.075.033 2.39m10.757-.151c1.149.66 2.174 1.261 2.276 1.337.232.17.671.626.833.864.204.299.402.72.517 1.1.101.329.11.416.111 1.02 0 .775-.063 1.071-.354 1.66a3.58 3.58 0 0 1-1.641 1.644l-.36.172-.02-2.428-.02-2.428-.092-.148c-.078-.126-.446-.354-2.574-1.596-2.085-1.216-2.471-1.455-2.408-1.489l.834-.474c.418-.238.771-.432.784-.433.013 0 .964.54 2.114 1.199m-2.907 1.331.35.2-.01 1.244-.011 1.244-1.06.614-1.06.614-.12-.065c-.066-.035-.552-.312-1.08-.614l-.96-.55-.011-1.242-.01-1.241 1.086-.622 1.086-.622.724.42c.399.231.883.51 1.076.62m2.115 1.224.814.475.011 2.235c.007 1.331-.005 2.427-.03 2.707-.078.88-.398 1.605-.979 2.22-.764.809-1.647 1.189-2.742 1.18-.51-.003-.907-.075-1.314-.238-.435-.174-1.086-.595-.986-.638.233-.101 4.072-2.356 4.166-2.447a.6.6 0 0 0 .17-.327c.03-.137.044-1.101.044-2.923 0-1.495.007-2.718.016-2.718.008 0 .382.214.83.474m-1.767 3.496-.001.97-2.097 1.212c-2.14 1.236-2.415 1.377-2.941 1.511-.448.115-1.301.107-1.757-.016-1.092-.295-1.958-1.004-2.427-1.987-.283-.595-.352-.904-.354-1.586-.001-.323.01-.599.025-.615.015-.015.924.49 2.02 1.123s2.051 1.175 2.122 1.204c.18.075.388.067.563-.022.081-.042 1.192-.681 2.468-1.42a124 124 0 0 1 2.35-1.344c.016 0 .03.437.029.97" fill-rule="evenodd"/></svg>