<svg viewBox="0 0 24 24" xmlns="http://www.w3.org/2000/svg"><path d="M11.56 1.706a10.24 10.24 0 0 0-5.257 1.712A10 10 0 0 0 3.446 6.26c-.863 1.282-1.408 2.693-1.653 4.28-.124.802-.123 2.121.002 2.934.453 2.949 2.039 5.46 4.479 7.092a10.46 10.46 0 0 0 4.546 1.678c.596.076 1.938.066 2.52-.019 1.221-.178 2.259-.501 3.304-1.03a10.1 10.1 0 0 0 2.637-1.915c1.651-1.646 2.667-3.738 2.964-6.1.066-.522.066-1.897 0-2.38-.174-1.274-.488-2.31-1.029-3.398a10.2 10.2 0 0 0-4.985-4.791c-1.424-.644-3.138-.976-4.671-.905m4.66 1.509c.822.175 1.736.529 2.32.897.24.152.223.16-.065.033-1.584-.7-3.875-.605-5.314.221l-.22.126.28.076c.402.11 1.025.429 1.424.73 1.187.894 2.157 2.502 2.571 4.262.207.882.244 1.257.243 2.48-.002 1.253-.045 1.637-.297 2.611-.533 2.069-1.755 3.755-3.272 4.516a4 4 0 0 1-.649.258c-.152.039-.266.086-.255.104.036.06.627.339.976.463a6.6 6.6 0 0 0 1.583.328c.938.083 2.113-.103 2.926-.463.279-.123.311-.121.109.007-.592.376-1.611.772-2.4.931-2.066.418-4.21-.085-5.96-1.397-.735-.551-1.554-1.429-2.107-2.258-1.369-2.052-1.795-5.093-1.093-7.796.216-.831.652-1.821 1.093-2.484.327-.491 1.011-1.302 1.414-1.678 1.225-1.141 2.676-1.841 4.273-2.061.143-.019.638-.03 1.1-.022.716.011.911.028 1.32.116" fill-rule="evenodd"/></svg>