<svg viewBox="0 0 24 24" xmlns="http://www.w3.org/2000/svg"><path d="M5.4 7.681c-.441.034-.661.088-.936.227-.232.118-.525.408-.661.655l-.098.177.17-.152c.23-.206.571-.42.851-.534.318-.129.342-.117.056.027-.297.151-.628.405-.783.601a1 1 0 0 0-.119.17c0 .049.574.118.826.1.351-.026.549-.127.91-.467.351-.331.483-.424.86-.61l.297-.147-.276-.025c-.539-.048-.721-.052-1.097-.022m-2.752.349c.091.332.255.548.552.726.142.085.299.11.335.052.033-.054-.118-.339-.275-.52-.141-.162-.505-.407-.607-.408-.035 0-.036.039-.005.15m.329.947a.55.55 0 0 0-.208.196c-.11.187-.436.355-.718.371a1 1 0 0 0-.293.057c-.101.054-.198.269-.198.437 0 .18-.25.545-.44.642a.6.6 0 0 0-.199.158c-.06.111-.05.334.018.424q.059.08.06.37c.001.236-.018.328-.099.48a1 1 0 0 0-.1.24c0 .104.123.285.241.355.181.107.371.466.38.722.013.332.164.491.47.491.186 0 .541.23.633.409.138.268.428.365.642.215.15-.105.573-.086.802.036.286.152.374.135.61-.116.253-.271.473-.384.744-.384.181 0 .223-.017.342-.136.112-.112.136-.167.138-.31.002-.133.038-.226.151-.393.081-.121.189-.24.239-.265.142-.07.279-.214.306-.321.015-.06-.007-.17-.057-.282-.118-.267-.11-.625.018-.833.145-.236.133-.4-.042-.565a.7.7 0 0 0-.174-.135c-.018 0-.088-.106-.157-.236-.095-.177-.126-.287-.126-.443 0-.176-.018-.225-.117-.324-.083-.083-.156-.117-.252-.117-.187 0-.526-.177-.66-.345-.328-.412-.407-.444-.731-.299-.22.098-.586.071-.836-.062-.202-.108-.221-.11-.387-.037M22.64 10.4v.28h.56v-.56h-.56zm-18.838.302c.042.051.039.116-.02.364-.039.166-.084.286-.1.268a3 3 0 0 1-.162-.544c0-.045.125-.15.178-.15.029 0 .075.028.104.062m-.613.17c.04.026.251.522.251.59 0 .011-.107-.065-.237-.171-.179-.144-.238-.217-.24-.298-.004-.131.112-.193.226-.121m1.209.026c.082.098.032.182-.23.391l-.251.201.102-.272c.057-.149.122-.296.147-.325.058-.07.172-.067.232.005M7.12 12.44v1.16h.6v-.815c0-.755.006-.822.08-.916a.61.61 0 0 1 .593-.191c.183.049.367.249.367.4 0 .086.01.089.237.062l.236-.027-.022.239a1.124 1.124 0 0 0 1.027 1.237c.16.015.294.001.425-.044.231-.079.217-.078.217-.005 0 .048.058.06.28.06h.28v-2.32h-.28c-.253 0-.28.008-.28.08 0 .091-.03.097-.187.038-.203-.078-.595-.052-.824.053-.212.098-.491.348-.532.478-.031.099-.084.089-.112-.021-.079-.319-.51-.628-.874-.628-.204 0-.44.079-.56.188-.067.061-.071.057-.071-.062v-.126h-.6zm4.72 0v1.16h.591l.016-.71c.013-.569.03-.735.085-.838q.134-.25.374-.252c.342 0 .374.089.374 1.038v.762h.56v-.881c0-.971-.018-1.066-.234-1.247-.275-.232-.633-.246-.968-.038l-.198.123v-.277h-.6zm2.82-1.066c-.231.108-.43.298-.553.526-.115.214-.123.772-.014.972.111.206.345.445.524.537.22.113.67.143.873.058l.15-.063v.968c0 .898-.006.977-.081 1.1a.8.8 0 0 1-.219.214c-.138.081-.14.085-.14.358 0 .25.008.276.08.276.285 0 .733-.397.874-.774.084-.223.086-.281.086-2.248V11.28h-.297c-.19 0-.302.017-.312.047-.012.035-.047.035-.149 0a1.26 1.26 0 0 0-.822.047m2.64-.059a1.34 1.34 0 0 0-.789.624c-.117.227-.138.598-.05.865.099.297.438.636.735.735.38.126.857.045 1.114-.191.077-.07.09-.123.09-.358v-.276l-.168.143c-.263.226-.631.279-.902.13-.086-.048-.061-.074.55-.587.352-.295.64-.551.64-.569 0-.067-.316-.342-.491-.427-.202-.097-.539-.139-.729-.089m2.74 2.445v2.48h.56v-1.42c0-.781.007-1.42.015-1.42s.08.027.159.06c.189.079.524.076.769-.007.401-.137.737-.615.737-1.05 0-.416-.279-.852-.658-1.028a1.32 1.32 0 0 0-.872-.038c-.127.045-.15.045-.15-.002 0-.041-.068-.055-.28-.055h-.28zm2.6-1.32v1.16h.56v-2.32h-.56zm-19.58-.92.24.16h-.273c-.315 0-.427-.046-.427-.175 0-.199.145-.195.46.015m1.718-.086c.06.187-.048.245-.458.245h-.26l.24-.156c.267-.174.441-.206.478-.089m12.941.404c.032.021.05.044.04.052l-.392.328c-.398.333-.48.35-.431.089a.68.68 0 0 1 .32-.431c.132-.08.365-.099.463-.038m-2.384.057c.215.09.305.239.305.507 0 .191-.018.254-.103.354a.52.52 0 0 1-.601.144c-.427-.162-.459-.791-.051-.992a.47.47 0 0 1 .45-.013m6.023.009c.208.083.322.265.322.515 0 .167-.019.209-.152.342-.194.194-.384.237-.596.133-.428-.21-.435-.771-.011-.984.172-.086.235-.087.437-.006m-18.078.031c0 .009-.116.091-.258.184-.307.2-.435.196-.414-.012.012-.124.018-.128.252-.15.363-.035.42-.038.42-.022m1.47.075c.098.078.03.27-.096.27-.049 0-.574-.315-.574-.344 0-.032.623.037.67.074m5.84-.01c.256.155.348.425.236.691-.065.157-.141.223-.331.288-.207.071-.407.016-.565-.156-.109-.119-.13-.173-.13-.332 0-.446.428-.712.79-.491m-7.26.464c-.103.255-.121.276-.231.276-.099 0-.121-.018-.131-.106-.01-.087.028-.139.215-.291.125-.102.234-.179.243-.171.008.009-.035.14-.096.292m1.094.108c.03.095-.051.188-.165.188-.074 0-.109-.047-.195-.26a2 2 0 0 1-.104-.303c0-.062.437.291.464.375m-.611.302c-.023.036-.083.066-.133.066-.159 0-.177-.096-.078-.421l.09-.299.081.294c.059.214.07.312.04.36" fill-rule="evenodd"/></svg>