<svg viewBox="0 0 24 24" xmlns="http://www.w3.org/2000/svg"><path d="M16.74 2.161c-1.44.103-2.151.263-2.855.641-.814.437-1.517 1.18-1.965 2.076l-.129.258.294-.273a8.4 8.4 0 0 1 3.008-1.804c.434-.145.69-.178.323-.042-.293.109-1.117.54-1.436.752a8 8 0 0 0-1.302 1.115c-.347.391-.489.584-.449.609.068.042.685.186 1.071.25.504.083 1.34.084 1.722.002a3.7 3.7 0 0 0 1.045-.39c.125-.074.535-.432.912-.795.714-.689 1.076-.984 1.653-1.346a11 11 0 0 1 1.488-.75c.143-.055.249-.101.235-.102a7 7 0 0 1-.24-.044c-.793-.154-2.385-.229-3.375-.157m-8.039.788c.201 1.045.837 1.895 1.757 2.348.733.361.993.213.706-.401-.391-.835-1.24-1.668-2.087-2.048-.461-.207-.436-.214-.376.101M9.84 5.755a1.28 1.28 0 0 0-.717.637c-.141.281-.354.45-.945.748l-.555.28h-.501c-.469 0-.517.007-.73.112-.433.213-.593.499-.632 1.138-.026.418-.038.466-.161.66l-.345.552c-.266.429-.337.496-.764.718-.401.208-.573.399-.674.749-.089.306-.053.522.158.931.096.187.186.403.2.48.013.077.009.419-.01.761-.036.673-.051.724-.339 1.151-.232.346-.277.619-.162 1.004.075.254.367.567.683.732.258.135.334.237.69.924l.286.553-.006.447c-.007.514.036.694.225.955.202.278.537.433.938.433.385 0 .645.076.923.271.12.083.326.217.458.298.323.196.473.361.613.676.221.492.569.732 1.067.734.231.001.319-.019.5-.113l.38-.196c.141-.073.225-.082.72-.076.862.009.952.031 1.413.341.266.179.484.24.771.214.398-.036.684-.232.914-.625.216-.371.36-.485 1.015-.809l.561-.277.463.01c.411.01.485.001.663-.08.456-.209.662-.558.683-1.157.016-.448.051-.532.504-1.211l.333-.5.34-.172c.572-.29.762-.541.791-1.043.018-.302.016-.308-.177-.665l-.194-.36.01-.72c.006-.396.031-.783.055-.86.025-.077.109-.229.186-.338.204-.288.295-.52.297-.755.003-.451-.192-.798-.565-1.007-.384-.214-.531-.39-.849-1.018l-.294-.578.009-.442c.012-.535-.044-.737-.28-1.005-.24-.273-.487-.376-.899-.377-.419 0-.579-.061-1.175-.45-.554-.361-.636-.443-.812-.813-.314-.659-.999-.919-1.576-.598-.498.276-.499.276-1.134.267-.674-.01-.977-.072-1.213-.248-.302-.225-.464-.29-.76-.303a1.6 1.6 0 0 0-.38.02m2.163 4.922c.093.093.117.152.117.287 0 .159-.4 1.73-.432 1.697-.033-.033-.448-1.609-.448-1.702 0-.105.09-.262.198-.348.034-.027.149-.049.255-.05.161-.001.213.018.31.116m-1.682.513c.095.086.187.283.415.89.162.429.289.785.284.792-.022.025-1.322-1.045-1.369-1.126a.6.6 0 0 1-.05-.24c-.001-.123.027-.182.135-.29.18-.18.403-.19.585-.026m3.262-.044a.53.53 0 0 1 .217.374c0 .182-.149.344-.772.839-.356.283-.653.509-.659.503-.011-.011.371-1.052.533-1.456.117-.291.444-.415.681-.26M9.875 12.95c.399.258.725.479.725.49s-.364.005-.81-.013c-.916-.038-1.038-.07-1.168-.312-.069-.129-.072-.165-.028-.312a.4.4 0 0 1 .178-.245c.238-.145.322-.115 1.103.392m4.789-.334c.279.279.129.708-.267.76-.204.027-1.637.09-1.637.072 0-.006.328-.227.729-.49.847-.555.936-.581 1.175-.342m-4.067 1.56c-.009.009-.339.225-.732.48-.734.476-.83.515-1.043.418a.46.46 0 0 1-.204-.591c.11-.212.232-.261.72-.286.567-.03 1.28-.042 1.259-.021m3.912.069c.303.095.395.478.174.724-.102.114-.141.131-.31.129-.177-.001-.247-.037-.853-.435a17 17 0 0 1-.7-.473c-.053-.051 1.512 0 1.689.055m-3.544.665-.304.801c-.275.726-.361.831-.658.797a.443.443 0 0 1-.349-.66c.048-.086 1.292-1.119 1.355-1.125.017-.002-.003.083-.044.187m2.075.332c.68.547.716.584.746.767.072.446-.558.703-.804.328-.05-.076-.622-1.553-.622-1.605 0-.032.102.045.68.51m-1.158.338c.28 1.023.276 1.004.234 1.156-.083.302-.464.41-.712.202-.193-.163-.193-.288-.005-.984.243-.897.292-1.059.306-1.014z" fill-rule="evenodd"/></svg>