<svg viewBox="0 0 24 24" xmlns="http://www.w3.org/2000/svg"><path d="M11.12 5.419c-1.846.313-3.411 1.594-4.064 3.327-.304.808-.413 1.855-.278 2.674.12.736.53 1.763.876 2.196.087.11.094.112.208.053.154-.081.232-.168.814-.919.269-.347.537-.656.597-.686s.474-.522.921-1.092c.447-.569.86-1.068.919-1.108s.215-.227.347-.415c.214-.305.487-.569.589-.569.055 0 .398.243.504.358.051.055.333.524.627 1.042.294.519.567.971.607 1.006s.14.095.221.133c.186.086.593.51 1.25 1.304.618.745.731.868.868.939.103.054.108.051.273-.193.852-1.265 1.08-3.038.583-4.531a5 5 0 0 0-1.262-2.019c-.811-.813-1.751-1.308-2.837-1.494-.449-.077-1.326-.08-1.763-.006m.946.631c.033.117.055.132.215.15l.179.02-.148.092-.147.092.056.158c.064.182.054.189-.108.073l-.12-.085-.119.088c-.147.109-.168.094-.108-.078.044-.126.039-.138-.09-.243l-.136-.111.179-.013c.163-.012.182-.024.216-.143.02-.071.049-.13.065-.13s.045.059.066.13m-1.182.289c.18-.064.186-.054.073.105l-.083.117.086.139c.098.158.099.156-.08.094-.125-.044-.138-.039-.245.09l-.113.136-.001-.167c-.001-.16-.008-.169-.171-.224l-.17-.058.17-.052c.168-.051.17-.054.17-.235v-.183l.104.146.104.147zm2.608.143a.7.7 0 0 1 .168.054l.12.053-.17.047c-.166.046-.17.052-.17.215v.168l-.09-.13c-.066-.095-.112-.125-.17-.109l-.177.046-.096.026.103-.136c.095-.124.099-.143.044-.216-.152-.203-.149-.222.026-.16.159.056.161.056.25-.066l.09-.122.012.164c.007.092.034.165.06.166m-4.133.403c.119.089.153.085.319-.034.095-.069.097-.069.067.009-.085.22-.075.278.062.36l.133.08-.167.012c-.158.012-.171.022-.225.18l-.057.168-.052-.17c-.051-.168-.054-.17-.235-.17h-.183l.146-.104.147-.104-.055-.156c-.064-.18-.056-.186.1-.071m5.074.061c.029.014.105-.014.168-.061.156-.115.164-.109.1.072l-.055.157.137.093.136.093-.168.02c-.149.018-.173.035-.205.15-.021.072-.05.13-.066.13s-.045-.058-.066-.13c-.033-.117-.055-.132-.215-.15l-.179-.02.133-.08c.137-.082.147-.14.062-.36-.03-.078-.028-.078.067-.009.054.038.122.081.151.095m1.006.949c.001.036.158.015.299-.04.072-.027.071-.02-.013.098q-.142.198.017.328c.106.089.06.116-.099.06-.155-.055-.158-.054-.258.072l-.101.127-.002-.151c-.001-.084-.024-.159-.052-.169s-.104-.038-.17-.064l-.12-.046.17-.058c.163-.056.17-.065.171-.225l.001-.167.078.1a.4.4 0 0 1 .079.135m-6.597.15c.087.026.158.06.158.075s-.072.049-.16.075c-.149.045-.16.058-.16.197v.148l-.093-.116c-.095-.118-.145-.123-.373-.036-.058.022-.05-.005.039-.122l.114-.15-.111-.145c-.093-.121-.098-.14-.033-.115.211.081.282.073.36-.042L8.66 7.7l.012.149c.012.135.027.154.17.196m-.819.968c.037.106.068.13.194.147l.151.02-.122.09c-.122.089-.122.091-.066.25.031.088.052.16.046.16a1.4 1.4 0 0 1-.145-.099l-.135-.1-.139.107-.14.106.027-.097c.07-.253.07-.255-.063-.347l-.13-.09h.168c.161 0 .17-.006.216-.16.053-.177.074-.175.138.013m8.08 0c.037.106.068.13.194.147l.151.02-.122.09c-.122.089-.122.091-.066.25.031.088.052.16.046.16s-.07-.044-.143-.098l-.133-.098-.143.108c-.124.094-.139.098-.112.028.086-.226.076-.285-.061-.373l-.134-.086h.168c.162-.001.171-.007.217-.161.053-.177.074-.175.138.013m-4.299.929c-.26.6-.281.667-.224.724.077.076.077.074-.244.805-.141.32-.256.588-.256.595s.159.014.353.014c.299 0 .691.07.817.146.016.01-.007.09-.052.178-.15.294-.318.875-.318 1.1v.216h.946l-.018-.126c-.017-.115-.011-.123.077-.102.197.05.81.148.92.148.099 0 .115-.016.115-.11 0-.06-.064-.28-.141-.487-.083-.222-.126-.392-.105-.413.045-.045.447.437.669.802l.163.268.575.029c.316.016.582.021.592.012.05-.05-1.568-1.912-1.75-2.015-.191-.107-.203-.107-.203.004 0 .05-.291-.42-.66-1.07-.587-1.031-.823-1.38-.935-1.38-.019 0-.163.298-.321.662m4.636.578a.7.7 0 0 1 .147.045l.113.044-.14.049c-.126.044-.142.066-.16.225l-.02.176-.105-.135c-.1-.128-.113-.133-.237-.089-.17.059-.185.038-.075-.11l.089-.121-.113-.149c-.094-.123-.1-.144-.036-.119.221.085.284.075.381-.062l.096-.134.012.19c.007.104.028.19.048.19m-8.548-.134c.055-.014.134-.038.174-.054.06-.022.053 0-.034.114l-.107.142.103.153c.082.12.089.146.034.125-.218-.083-.27-.078-.365.039l-.094.115-.002-.151c0-.084-.023-.159-.051-.169l-.17-.064-.12-.046.17-.058c.158-.055.17-.069.171-.205l.002-.147.094.115c.075.091.116.11.195.091m3.023.924c-.23.249-.851 1.231-.815 1.29.012.019-.061.171-.162.337-.13.214-.176.327-.157.385.036.114.066.093.275-.191.179-.244.465-.491.568-.491.085 0 .23-.366.179-.449-.072-.117-.051-.203.159-.65.11-.237.194-.438.185-.447s-.113.088-.232.216m-3.006.394c.027.013.097-.014.156-.061.133-.104.157-.084.099.082-.042.12-.036.136.086.24l.13.112-.164.001c-.157.002-.165.009-.215.172l-.052.17-.058-.17c-.055-.163-.064-.17-.224-.171l-.167-.001.132-.11c.12-.1.129-.12.09-.222-.064-.168-.051-.202.048-.13.05.036.112.076.139.088m8.08 0c.027.013.097-.014.156-.061.133-.104.157-.084.099.082-.042.12-.036.136.086.24l.13.112-.164.001c-.157.002-.165.009-.215.172l-.052.17-.058-.17c-.055-.163-.064-.17-.224-.171l-.167-.001.132-.11c.12-.1.129-.12.09-.222-.064-.168-.051-.202.048-.13.05.036.112.076.139.088M4.395 13.762c-.726.079-1.316.329-1.756.744-.388.366-.535.668-.551 1.133-.011.293 0 .366.08.519.125.24.322.386.628.464.308.079.586.054.844-.077.311-.157.535-.604.38-.759-.136-.136-.3-.028-.3.199 0 .542-.714.805-1.074.396-.209-.238-.259-.599-.146-1.036.211-.81 1.06-1.403 2.085-1.455.75-.039 1.231.133 1.474.527.111.18.121.226.119.54-.001.291-.017.373-.106.543-.192.365-.585.666-.946.724l-.161.025.112-.354q.224-.715.443-1.054c.066-.104.12-.2.12-.215 0-.121-.421.257-.661.593-.165.231-.27.439-.93 1.827-.478 1.007-.837 1.372-1.449 1.48-.33.058-.634-.031-.787-.232-.094-.123-.111-.185-.115-.423-.006-.301-.043-.36-.218-.341-.267.027-.243.547.039.829.214.214.49.3.944.293.974-.015 1.758-.584 2.237-1.624.072-.159.155-.365.182-.458.039-.13.07-.17.135-.17.047 0 .219-.037.384-.083.643-.177 1.076-.487 1.267-.904.191-.416.066-.966-.279-1.228-.457-.348-1.213-.508-1.994-.423M21.44 15.15l-.214.49-.13.3-.55.011-.55.011-.078.182a2 2 0 0 0-.078.199c0 .009.242.017.538.017h.539l-.134.31-.218.502-.084.192.265-.012.266-.012.206-.48.206-.48.55-.011.55-.011.078-.182a2 2 0 0 0 .078-.199c0-.009-.234-.017-.52-.017-.35 0-.52-.014-.52-.044 0-.024.088-.249.197-.5l.196-.456h-.511zm-2.539.47c-.137.308-.162.34-.262.34-.061 0-.121.027-.133.06-.017.043.004.06.075.06.055 0 .099.019.099.043s-.108.267-.24.54c-.245.508-.571.928-.687.887-.086-.03-.046-.171.191-.676.266-.564.303-.747.181-.869a.3.3 0 0 0-.186-.085c-.135 0-.376.103-.488.209-.101.095-.109.084-.051-.068l.04-.105-.224.012-.224.012-.193.433c-.229.513-.41.824-.591 1.011-.13.134-.248.178-.248.091 0-.024.137-.362.304-.75l.325-.757c.016-.04-.036-.049-.227-.04l-.247.012-.221.498c-.307.694-.579 1.082-.759 1.082-.102 0-.056-.149.265-.842.176-.382.32-.708.32-.726 0-.017-.106-.032-.236-.032-.222 0-.238.007-.275.111a1 1 0 0 1-.147.24c-.084.099-.141.129-.247.129-.096 0-.144-.021-.16-.07-.112-.347-.214-.428-.535-.425-.408.005-.745.273-.967.77-.2.449-.241.521-.393.685-.161.174-.28.208-.28.081 0-.044.106-.309.235-.59.295-.643.316-.743.186-.873-.053-.054-.139-.098-.189-.098-.119.001-.475.167-.549.256-.053.064-.061.059-.1-.062-.075-.229-.382-.225-.675.01-.123.099-.155.112-.131.054.088-.214.085-.218-.135-.218h-.206l-.083.19c-.254.59-.528 1.102-.665 1.247-.163.171-.289.212-.287.093 0-.038.135-.375.299-.749.249-.565.29-.688.246-.732-.035-.035-.163-.054-.374-.055-.378-.003-.571.068-.94.345-.213.161-.352.223-.352.159 0-.011.036-.092.08-.178.095-.187.102-.314.019-.346-.079-.03-.278.054-.432.183-.091.076-.116.085-.095.033l.052-.13c.02-.049-.015-.06-.192-.06h-.218l-.133.31c-.341.792-.644 1.272-.821 1.298-.126.019-.09-.11.237-.843.349-.782.352-.765-.158-.765-.283 0-.358.016-.57.122-.476.238-.969.933-.969 1.366 0 .247.045.332.205.388.175.061.396-.005.571-.17l.14-.132.012.123c.009.088.043.137.124.176.14.067.288.021.516-.159l.161-.128-.064.125a1 1 0 0 0-.065.149c0 .013.103.019.228.012l.229-.012.244-.548c.255-.57.468-.952.534-.952.021 0 .028.071.016.159-.026.193.042.235.274.174l.152-.041-.085.12c-.141.197-.27.556-.271.751-.001.229.122.365.331.365.172 0 .286-.057.481-.243.084-.08.149-.127.145-.105-.04.213.067.34.285.34.125 0 .191-.031.324-.15.117-.105.158-.126.136-.07-.09.226-.09.225.155.212l.229-.012.269-.605c.277-.621.439-.876.621-.974.217-.116.197 0-.136.776-.176.412-.321.766-.321.787 0 .02.1.036.223.036h.222l.141-.31c.472-1.041.654-1.33.838-1.33.126 0 .094.14-.154.669-.32.685-.343.782-.211.913.177.178.459.099.74-.206.09-.097.169-.176.177-.176s.026.06.04.134c.084.448.809.458 1.207.017.165-.183.367-.583.402-.797.023-.14.032-.147.2-.161.096-.007.175-.012.175-.009l-.179.388c-.099.21-.191.455-.205.543-.022.137-.011.174.078.262.167.168.355.127.646-.141l.18-.166v.125c0 .141.12.285.237.285.134 0 .298-.08.435-.212l.132-.128-.062.15-.063.15h.469l.274-.608c.151-.334.33-.68.398-.769.153-.201.317-.302.383-.236.036.036-.012.171-.194.56-.281.601-.339.783-.289.914.092.241.375.222.705-.047l.223-.181-.027.123c-.039.179.044.394.18.465.279.144.614.008.94-.382.222-.265.107-.285-.139-.024-.222.234-.399.311-.508.22-.102-.084-.047-.331.205-.917.365-.851.357-.838.538-.838.1 0 .162-.021.177-.06.019-.047-.011-.06-.135-.06h-.158l.084-.21c.046-.115.108-.277.138-.36l.053-.15h-.463zm-11.861.497c0 .072-.436.963-.559 1.141-.152.221-.344.337-.424.256-.167-.168.343-1.129.721-1.359.13-.08.262-.099.262-.038m2.774.373c-.359.814-.55 1.057-.809 1.035-.149-.013.095-.694.384-1.074.143-.187.398-.371.515-.371.09 0 .088.009-.09.41m4.437-.177c-.017.405-.462 1.298-.673 1.351-.135.034-.178-.009-.178-.18 0-.192.114-.525.304-.887q.282-.535.465-.51c.083.012.09.032.082.226" fill-rule="evenodd"/></svg>