<svg viewBox="0 0 24 24" xmlns="http://www.w3.org/2000/svg"><path d="M11.56 1.525c-1.895.151-3.724.663-5.025 1.407C4.749 3.953 3.543 5.574 2.899 7.82c-.349 1.216-.461 2.103-.488 3.873-.053 3.541.406 6.419 1.33 8.327.29.598.572 1.014.975 1.432.745.773 1.548 1.104 2.564 1.056.567-.026.833-.094 1.316-.336.292-.145.455-.262.729-.523.678-.645 1.096-1.333 1.916-3.149.159-.352.402-.866.54-1.141.653-1.304 1.393-2.074 2.519-2.62.558-.272.971-.414 1.92-.664.972-.256 1.256-.353 1.82-.621 1.814-.863 3.027-2.388 3.443-4.328.121-.569.149-1.585.059-2.128-.201-1.201-.732-2.193-1.679-3.141-1.118-1.118-2.3-1.712-4.163-2.091-1.226-.25-2.847-.344-4.14-.241" fill-rule="evenodd"/></svg>