<svg viewBox="0 0 24 24" xmlns="http://www.w3.org/2000/svg"><path d="M7.94 2.399c-1.151.023-1.175.028-1.412.298a.9.9 0 0 0-.164.292c-.102.39-2.529 15.992-2.506 16.113.037.2.25.366.51.397.288.035 3.218.009 3.255-.029.017-.017.153-.809.303-1.76.499-3.171.677-4.205.75-4.37.258-.585.721-.722 2.264-.675 2.999.093 4.939-.69 6.124-2.472.736-1.105 1.251-3.056 1.134-4.292-.15-1.586-.997-2.581-2.688-3.159-.594-.202-1.108-.294-1.918-.341-.699-.04-3.734-.042-5.652-.002M18.88 7.63c0 .039-.046.259-.101.49-.639 2.658-2.113 4.305-4.455 4.979-.972.279-1.9.38-3.504.381-1.193.001-1.248.009-1.383.2-.053.075-.218 1.023-.655 3.76-.32 2.013-.583 3.701-.582 3.752 0 .143.11.321.239.387.098.051.35.061 1.589.06 1.646-.001 1.693-.008 1.904-.285.14-.183.149-.226.49-2.394.321-2.042.332-2.099.468-2.338.166-.292.25-.315 1.248-.348 1.38-.045 2.204-.222 3.075-.66.976-.492 1.754-1.303 2.246-2.342.471-.994.735-2.247.688-3.272-.042-.936-.297-1.592-.825-2.13-.298-.303-.442-.381-.442-.24" fill-rule="evenodd"/></svg>