<svg viewBox="0 0 24 24" xmlns="http://www.w3.org/2000/svg"><path d="M10.866 6.521c-2.297.143-4.267.614-5.926 1.415-1.559.753-2.565 1.629-3.083 2.684-.256.521-.317.785-.317 1.38 0 .566.059.845.278 1.308.491 1.04 1.462 1.922 2.938 2.668 3.612 1.826 9.105 2.05 13.251.542.555-.203 1.539-.673 1.982-.948 1.267-.788 2.12-1.786 2.4-2.81.107-.392.097-1.162-.02-1.572-.342-1.19-1.377-2.256-3.02-3.109-1.515-.786-3.395-1.3-5.483-1.498-.799-.076-2.276-.106-3-.06m3.094.619c2.277.246 4.199.834 5.702 1.741 1.162.702 1.951 1.61 2.181 2.509.745 2.915-3.945 5.57-9.841 5.57-4.553 0-8.521-1.575-9.659-3.834a2.6 2.6 0 0 1-.186-1.736c.509-1.989 3.524-3.697 7.399-4.192.343-.044.849-.096 1.124-.116.697-.051 2.584-.018 3.28.058m-3.178.99c-.018.058-1.062 5.451-1.062 5.486 0 .013.268.024.596.024.585 0 .596-.002.615-.09.012-.049.152-.77.313-1.6l.293-1.51.521.002c.655.003.874.039 1.007.162.099.091.103.111.082.396-.012.165-.122.806-.244 1.425a42 42 0 0 0-.223 1.17c0 .031.181.045.6.045.33 0 .6-.005.6-.012s.1-.506.222-1.11.247-1.285.278-1.514c.101-.755-.041-1.075-.58-1.299-.229-.095-.722-.145-1.423-.145-.523 0-.657-.011-.657-.054 0-.029.054-.32.12-.646s.12-.635.12-.686V8.08h-.581c-.43 0-.586.013-.597.05m-5.535 4.16a334 334 0 0 0-.528 2.76c.001.017.268.03.595.03h.595l.128-.65c.07-.358.136-.679.146-.714.016-.055.134-.067.848-.087 1.249-.035 1.613-.154 2.17-.709.349-.348.56-.716.68-1.184.226-.885-.043-1.622-.715-1.957-.363-.182-.697-.216-2.108-.218L5.776 9.56zm9.4 0a290 290 0 0 0-.528 2.76c0 .017.268.03.595.03h.595l.128-.65c.07-.358.136-.679.146-.714.016-.055.134-.068.828-.089 1.267-.038 1.649-.161 2.19-.704.349-.351.561-.721.68-1.187.226-.885-.043-1.622-.715-1.957-.363-.182-.697-.216-2.108-.218l-1.282-.001zm-6.308-1.73c.267.134.348.281.348.63a1.9 1.9 0 0 1-.192.868c-.264.53-.677.701-1.689.702-.347 0-.45-.012-.436-.05.01-.027.115-.551.233-1.164l.214-1.114.662.014c.61.013.676.022.86.114m9.39-.012c.27.123.351.274.35.652 0 .506-.169.972-.442 1.218-.264.239-.533.31-1.251.333-.608.019-.634.017-.613-.056.03-.1.427-2.168.427-2.221q-.001-.042.67-.027c.58.013.695.027.859.101" fill-rule="evenodd"/></svg>