<svg viewBox="0 0 24 24" xmlns="http://www.w3.org/2000/svg"><path d="M10.68 6.545c-1.989.17-3.516.495-4.9 1.043-2.193.868-3.577 2.044-4.069 3.458-.124.355-.13.403-.13.954s.006.599.13.954c.072.206.203.498.291.649 1.178 2.018 4.438 3.5 8.438 3.838.695.058 2.425.058 3.12 0 3.288-.278 6.127-1.337 7.663-2.86.54-.535.852-1.012 1.066-1.627.124-.355.13-.403.13-.954s-.006-.599-.13-.954c-.327-.939-.992-1.714-2.102-2.449-1.548-1.026-3.564-1.684-6.067-1.981-.512-.061-2.97-.112-3.44-.071m1.28 1.625c0 .027-.054.32-.119.65-.066.33-.12.631-.12.67-.001.064.054.07.589.07 1.575.001 2.087.257 2.089 1.047.001.242-.478 2.894-.54 2.995-.038.061-1.179.049-1.179-.012 0-.027.108-.599.24-1.27s.24-1.298.24-1.393c0-.393-.116-.447-.974-.447-.649 0-.658.001-.679.09-.03.125-.587 3.016-.587 3.046 0 .035-1.152.03-1.172-.006-.014-.024.95-5.068 1.031-5.4.022-.088.034-.09.602-.09.437 0 .579.012.579.05M8.832 9.651c.914.269 1.281.965 1.065 2.021-.09.442-.286.823-.595 1.157-.59.637-1.145.807-2.65.81l-.448.001-.027.15c-.076.429-.249 1.256-.266 1.273-.011.01-.28.014-.598.008l-.578-.011.509-2.62.535-2.754.026-.134 1.408.019c1.114.014 1.451.031 1.619.08m9.323-.014c.478.126.863.422 1.04.799.096.204.105.268.105.724-.001.531-.043.723-.251 1.14a2.4 2.4 0 0 1-1.599 1.243c-.151.032-.624.069-1.077.084l-.806.025-.134.704-.134.704-.603.011-.603.011.248-1.271.539-2.765.291-1.494 1.405.019c.874.012 1.47.037 1.579.066m-11.332.848a60 60 0 0 0-.423 2.216c0 .064.045.068.57.05.728-.025 1.003-.098 1.267-.336.203-.182.319-.402.423-.8q.216-.835-.34-1.084c-.197-.088-1.47-.127-1.497-.046m9.362.025a89 89 0 0 0-.425 2.226c0 .02.253.026.59.013 1.094-.041 1.45-.267 1.649-1.046.14-.548.095-.863-.152-1.071-.172-.145-.439-.192-1.086-.192-.495 0-.558.008-.576.07" fill-rule="evenodd"/></svg>