<svg viewBox="0 0 24 24" xmlns="http://www.w3.org/2000/svg"><path d="M8.46 4.044a8.06 8.06 0 0 0-4.861 2.314 8.02 8.02 0 0 0-1.937 8.152 10 10 0 0 0 .931 1.91 7.99 7.99 0 0 0 8.31 3.402 8.25 8.25 0 0 0 3.237-1.496c.36-.275 1.033-.942 1.339-1.326a8 8 0 0 0 1.218-2.117c.146-.37.363-1.116.334-1.145a.7.7 0 0 0-.209.043c-.376.114-.869.058-1.292-.145-.278-.133-.668-.539-.81-.843a1.85 1.85 0 0 1 .327-2.057c.247-.261.462-.396.798-.501.294-.091.746-.098 1.019-.015l.203.06c.004 0-.036-.162-.089-.359-.702-2.622-2.729-4.731-5.338-5.554a8.4 8.4 0 0 0-3.18-.323m10.25 4.102-.35.142v.472h-.523l.011.31.012.31.25.012.25.012v.671c0 .759.045.986.238 1.197.203.222.441.302.902.305l.4.003.012-.326.011-.325-.325-.015c-.475-.022-.478-.027-.478-.858V9.4h.45l.45.001.316.769.454 1.1.138.33h.625l.12-.29.583-1.408a33 33 0 0 0 .464-1.151c0-.019-.175-.029-.389-.022l-.388.011-.339.89c-.186.49-.35.89-.364.89s-.177-.396-.36-.88l-.334-.88H19.12v-.38c0-.209-.013-.379-.03-.378a5 5 0 0 0-.38.144M7.52 11.52v2.24h-1V9.697l.49-.205.5-.208c.005-.002.01 1.004.01 2.236m5.889-1.75.011.45.43.011.43.012v.914l-.43.012-.43.011-.011.609c-.016.877.056 1.003.592 1.042l.279.02v.917l-.49-.014c-.439-.013-.513-.026-.717-.126a1.18 1.18 0 0 1-.569-.586c-.074-.161-.086-.278-.104-1.022l-.02-.84-.31-.012-.31-.011v-.914l.31-.011.31-.012.012-.264.011-.263.449-.183c.246-.1.47-.184.497-.186.035-.003.052.123.06.446m-8.568.454c1.082.321 1.568 1.663.992 2.742-.16.302-.447.567-.784.726-.243.114-.306.127-.649.127-.42.001-.635-.049-.856-.199a1 1 0 0 0-.166-.1c-.01 0-.018.27-.018.6v.6H2.32v-4.15l.397-.165c.219-.091.408-.165.421-.165.012 0 .051.072.086.16l.064.159.174-.125c.366-.263.919-.347 1.379-.21m6.471 1.207-.012 1.191-.133.27a1.75 1.75 0 0 1-.795.795c-.257.126-.292.133-.712.133-.422 0-.454-.006-.721-.137a1.7 1.7 0 0 1-.787-.792l-.132-.269-.012-.981-.012-.981.432-.169.502-.194c.065-.024.07.04.071.989.001.902.009 1.032.075 1.178.21.461.861.5 1.13.067.089-.143.095-.195.114-1.028l.02-.876.46-.192c.253-.106.474-.193.492-.194.018 0 .027.535.02 1.19m-7.452-.205c-.318.168-.501.448-.499.769.003.754.92 1.127 1.454.592a.9.9 0 0 0 .265-.592.88.88 0 0 0-.5-.76c-.198-.09-.557-.095-.72-.009m12.16 0c-.522.275-.658.9-.288 1.321.349.398.926.385 1.28-.028a.834.834 0 0 0-.248-1.266c-.211-.111-.56-.124-.744-.027" fill-rule="evenodd"/></svg>