<svg viewBox="0 0 24 24" xmlns="http://www.w3.org/2000/svg"><path d="M3.934 2.417c-.513.124-1.085.562-1.325 1.012-.266.502-.249-.091-.249 8.577.001 6.737.009 7.885.059 8.072a2.12 2.12 0 0 0 1.515 1.506c.314.084 15.826.082 16.141-.002.378-.101.651-.262.948-.559s.458-.57.559-.948c.086-.322.086-15.828 0-16.15-.199-.747-.841-1.368-1.574-1.521-.324-.067-15.794-.055-16.074.013m9.117 4.182a.9.9 0 0 1 .227.246c.081.145.082.177.082 5.157v5.011l-.099.17a.63.63 0 0 1-.273.253c-.159.077-.243.084-.988.084s-.829-.007-.988-.084a.63.63 0 0 1-.273-.253l-.099-.17v-5.011c0-4.992 0-5.012.083-5.157a.66.66 0 0 1 .413-.329c.068-.017.494-.028.947-.024.805.008.826.01.968.107m-4.081 4.17c.282.216.274.108.261 3.374l-.011 2.923-.115.151c-.206.271-.333.301-1.245.301-.693 0-.822-.01-.963-.074a.66.66 0 0 1-.378-.448c-.027-.101-.038-1.137-.03-3.028l.011-2.874.099-.144a.9.9 0 0 1 .24-.227c.133-.079.192-.083 1.064-.073l.923.01zm8.188 2.71a.8.8 0 0 1 .248.23c.094.15.094.157.106 1.638.013 1.556 0 1.71-.159 1.913-.178.226-.33.258-1.213.258-.912 0-1.039-.03-1.245-.3l-.115-.152-.01-1.583c-.01-1.581-.01-1.583.081-1.742a.9.9 0 0 1 .226-.25c.13-.088.164-.091 1.031-.091.812 0 .91.007 1.05.079" fill-rule="evenodd"/></svg>