<svg viewBox="0 0 24 24" xmlns="http://www.w3.org/2000/svg"><path d="M11.489 1.906c-.09.02-.09.02-.015.127.398.563.595 1.439.488 2.169A3.2 3.2 0 0 1 9.659 6.82c-.161.045-.507.078-1.059.101-.904.037-1.125.079-1.55.296A2.56 2.56 0 0 0 5.739 8.86c-.081.308-.081.892 0 1.2.096.371.324.797.562 1.054l.216.234-.508.024c-.907.044-1.462.274-2.033.844-.509.51-.788 1.105-.841 1.796-.064.83.292 1.729.902 2.278.113.101.191.192.174.202s-.103.03-.191.046c-.622.113-1.404.691-1.773 1.312a2.9 2.9 0 0 0-.37 1.783c.166 1.182.948 2.08 2.105 2.415l.318.092h15.4l.314-.091c.757-.219 1.341-.655 1.723-1.285.181-.297.369-.87.403-1.226.05-.533-.106-1.215-.387-1.688-.369-.621-1.151-1.199-1.773-1.312a1 1 0 0 1-.187-.044c-.016-.009.063-.101.175-.205.777-.726 1.093-1.878.789-2.872-.147-.48-.344-.805-.716-1.181-.585-.59-1.129-.82-2.05-.864l-.508-.024.216-.234c.238-.257.466-.684.562-1.054.076-.292.085-.861.018-1.148a3 3 0 0 0-.497-1.02c-.478-.581-1.071-.885-1.859-.954-.178-.016-.323-.044-.323-.063s.04-.174.09-.345c.13-.452.129-1.325-.003-1.81a3.76 3.76 0 0 0-1.053-1.783 3.3 3.3 0 0 0-1.004-.699c-.553-.265-.812-.325-1.47-.339a7 7 0 0 0-.671.007" fill-rule="evenodd"/></svg>