<svg viewBox="0 0 24 24" xmlns="http://www.w3.org/2000/svg"><path d="M5.345 8.763a.308.308 0 0 0 .005.478c.139.11.394.088.5-.043.249-.307-.188-.684-.505-.435m9.892-.032a.45.45 0 0 0-.157.289c0 .103.221.3.335.3.339 0 .511-.399.252-.581-.102-.071-.342-.075-.43-.008m2.35.016c-.015.014-.027.246-.027.515v.489l-.148-.075c-.188-.096-.566-.101-.744-.011-.291.147-.433.364-.508.773-.074.413.03.875.252 1.117.229.249.674.316 1.002.15.182-.092.19-.093.229-.02.032.06.086.075.274.075.209 0 .236-.01.258-.09.031-.118.032-2.805.001-2.887-.019-.049-.085-.063-.294-.063-.148 0-.281.012-.295.027M1.937 9.7c-.229.116-.257.121-.257.041 0-.073-.137-.111-.344-.094l-.156.013-.01 1.465-.011 1.465.091.025c.117.031.366.032.447.001.053-.021.063-.103.063-.5 0-.262.006-.476.014-.476.007 0 .073.029.145.065.314.157.69.118.926-.095.202-.181.296-.365.354-.687.102-.561-.135-1.131-.532-1.281-.201-.076-.516-.051-.73.058m5.24.018a2 2 0 0 1-.236.11 1 1 0 0 0-.045-.088c-.036-.065-.086-.08-.26-.08H6.42l-.011 1.05-.01 1.05h.276c.215 0 .282-.014.301-.063.013-.035.024-.394.024-.799 0-.825-.013-.789.314-.842.12-.019.192-.008.265.04l.101.066v.736c0 .404.011.764.024.799.019.049.086.063.3.063h.276v-1.602l.107-.041c.202-.076.428-.087.513-.023.074.055.081.119.1.853l.02.793h.56l.011-.832c.009-.744.003-.851-.065-1.003-.145-.328-.624-.411-1.069-.187-.229.116-.237.117-.316.045-.231-.209-.603-.227-.964-.045m3.314-.016q-.534.267-.54.998c-.002.346.055.561.204.767.225.31.754.437 1.265.305l.28-.072.012-.212.012-.212-.152.032a3 3 0 0 1-.481.032c-.299 0-.339-.009-.43-.101a.6.6 0 0 1-.138-.228l-.036-.127h.37c.663 0 .943-.186.943-.624 0-.415-.305-.66-.821-.66-.223 0-.326.021-.488.102m8.834-.062c-.24.057-.455.24-.585.5-.107.214-.12.279-.119.6 0 .322.013.382.118.573.064.117.169.25.232.295.272.194.751.243 1.149.118l.22-.069v-.178c0-.174-.003-.179-.12-.169-.67.058-.895.014-1.003-.197-.122-.234-.097-.253.333-.253.31 0 .423-.016.549-.08.196-.098.341-.306.341-.487 0-.499-.508-.796-1.115-.653m2.101-.001c-.592.189-.849 1.015-.521 1.672.143.284.346.434.675.495.491.091.932-.105 1.138-.505.089-.174.102-.248.102-.6 0-.375-.008-.415-.124-.621-.185-.328-.405-.451-.828-.466a2 2 0 0 0-.442.025m-17.758.026c-.015.016-.028.494-.028 1.063v1.036l.29-.012.29-.012.011-.745.011-.745.124-.025c.068-.014.208-.025.311-.025.275 0 .33-.056.315-.321L4.98 9.66l-.183-.012c-.155-.01-.214.01-.391.131-.184.127-.21.135-.23.072-.051-.166-.087-.191-.282-.203-.108-.006-.21.001-.226.017m1.631.024c-.011.029-.016.502-.01 1.052l.011.999h.56V9.66l-.271-.012c-.195-.008-.276.003-.29.041m7.446-.017c-.011.018.154.491.368 1.05l.389 1.018h.584l.377-.991c.207-.544.377-1.017.377-1.05 0-.047-.059-.059-.281-.059-.331 0-.271-.094-.544.85-.107.368-.203.67-.215.67s-.107-.302-.214-.67c-.274-.944-.214-.85-.542-.85-.154 0-.288.015-.299.032m2.423.016c-.035.035-.048.312-.048.997 0 .522.011.977.024 1.012.035.092.557.092.592 0 .013-.035.024-.484.024-.997s-.011-.962-.024-.997c-.03-.078-.493-.09-.568-.015m-4.017.374c.063.044.089.103.089.199 0 .198-.122.266-.446.251l-.254-.012.007-.139c.014-.28.376-.459.604-.299m-8.742.057c.155.121.201.281.185.637-.011.245-.034.345-.098.431-.113.153-.314.2-.54.129l-.176-.056-.011-.564-.011-.564.131-.042c.214-.068.411-.058.52.029m15.026-.035.127.045-.011.564-.011.564-.153.058c-.2.076-.41.025-.523-.128-.072-.097-.084-.169-.084-.513v-.401l.131-.116c.142-.128.303-.15.524-.073m2.397.004c.082.082.058.3-.041.37-.125.087-.631.088-.631.001 0-.109.11-.329.186-.374.101-.058.427-.056.486.003m2.14-.005c.168.077.245.264.247.597.001.353-.066.541-.223.622-.412.213-.724-.227-.596-.842.071-.34.308-.497.572-.377m-5.483 2.641c-.437.066-.929.31-.929.461 0 .053.051.056.37.028.596-.053.965-.038 1.091.044.105.069.108.082.089.337-.012.154-.09.478-.185.77a10 10 0 0 0-.165.53c0 .014.036.026.079.026.108 0 .383-.354.544-.7.219-.471.349-1.128.258-1.299a.4.4 0 0 0-.174-.14c-.176-.073-.677-.102-.978-.057m-10.064.177c-.04.104.641.701 1.275 1.118a7.91 7.91 0 0 0 7.13.798c.841-.313 1.858-.931 1.882-1.145.009-.075-.012-.12-.069-.15-.067-.036-.181-.005-.632.173-1.249.493-2.234.696-3.554.733a9.9 9.9 0 0 1-3.601-.526c-.64-.212-1.58-.633-2.053-.92-.256-.156-.342-.174-.378-.081" fill-rule="evenodd" style="paint-order:fill"/></svg>