<svg viewBox="0 0 24 24" xmlns="http://www.w3.org/2000/svg"><path d="M10.104 2.502A8.67 8.67 0 0 0 4.08 6.28c-1.585 2.4-1.782 5.573-.505 8.18 1.262 2.577 3.794 4.342 6.744 4.699.865.105 2.148.009 2.981-.221.065-.018.108.023.22.21.245.407.702.985 1.011 1.278.917.872 1.987 1.231 3.355 1.126 1.934-.148 3.21-1.51 3.377-3.602l.028-.35h-1.278l-.069.25c-.166.602-.528.933-1.132 1.036-.716.123-1.432-.279-2.097-1.176l-.243-.328.194-.158c.33-.268 1.064-1.028 1.319-1.364a8.1 8.1 0 0 0 1.417-2.913c.196-.749.255-1.24.255-2.127-.001-1.031-.105-1.716-.404-2.64-.974-3.015-3.728-5.258-6.967-5.676-.594-.077-1.625-.078-2.182-.002M12.2 4.183c.921.163 1.702.59 2.236 1.223.703.833 1.129 2.019 1.3 3.614.182 1.703.09 3.7-.231 4.967-.117.465-.339 1.093-.385 1.093-.018 0-.12-.122-.226-.27-.722-1.013-1.669-1.639-2.769-1.831-.433-.076-1.361-.076-1.832.001a4.4 4.4 0 0 0-1.309.42c-.34.174-.704.424-.704.483 0 .02.111.259.246.53l.246.495.238-.074c.296-.092.879-.099 1.208-.013.8.209 1.481.886 2.16 2.148.104.192.178.366.165.386-.028.046-.649.153-1.067.184-.407.031-1.163-.043-1.617-.158a3.45 3.45 0 0 1-1.784-1.056C7.081 15.255 6.6 13.467 6.6 10.84c.001-3.771.988-5.878 3.061-6.532.705-.222 1.706-.271 2.539-.125" fill-rule="evenodd"/></svg>