<svg viewBox="0 0 24 24" xmlns="http://www.w3.org/2000/svg"><path d="M7.265 3.303c-1.286.2-2.44.772-3.377 1.674-.877.843-1.451 1.815-1.744 2.95-.206.797-.204.739-.204 6.153 0 4.818.004 5.073.075 5.331.187.679.775 1.212 1.485 1.348.17.032 1.04.042 2.98.033l2.74-.012.24-.096a1.9 1.9 0 0 0 .747-.495c.223-.233.409-.58.472-.883.03-.145.04-1.097.032-3.029L10.7 13.46l-.094-.233a2.02 2.02 0 0 0-1.146-1.111c-.237-.093-.262-.094-1.99-.108l-1.75-.013v-1.411c0-1.579.025-1.778.289-2.277.173-.327.657-.814.991-.997.379-.208.635-.271 1.24-.306.574-.033.713-.074.934-.279a1.3 1.3 0 0 0 .2-.265c.081-.15.087-.224.1-1.22.008-.698-.003-1.131-.033-1.267a.89.89 0 0 0-.485-.628c-.2-.099-.243-.105-.774-.101a8 8 0 0 0-.917.059m11.515-.035c-1.469.19-2.793.848-3.782 1.877a6.15 6.15 0 0 0-1.495 2.546c-.269.89-.263.742-.263 6.397 0 4.57.007 5.12.064 5.315a1.87 1.87 0 0 0 1.17 1.273l.266.104 2.72.012c1.878.008 2.8-.002 2.98-.033a1.9 1.9 0 0 0 1.39-1.065l.15-.314v-5.96l-.149-.312a1.88 1.88 0 0 0-1.392-1.065c-.15-.025-.931-.043-1.852-.043h-1.592l.014-1.51c.014-1.43.019-1.522.101-1.741.285-.761.739-1.257 1.43-1.558.3-.131.624-.191 1.03-.191.447 0 .637-.058.868-.266.315-.283.329-.36.314-1.701-.011-1.082-.016-1.141-.101-1.299a.97.97 0 0 0-.528-.448c-.141-.043-1.061-.055-1.343-.018" fill-rule="evenodd"/></svg>