<svg viewBox="0 0 24 24" xmlns="http://www.w3.org/2000/svg"><path d="M3.27 3.318c-.626.2-1.134.769-1.27 1.422q-.042.204-.031 2.983c.011 2.647.015 2.787.09 2.997.18.503.626.964 1.128 1.166.231.093.252.094 2.003.106l1.77.012v1.442c0 1.598-.012 1.702-.258 2.191a2.52 2.52 0 0 1-1.609 1.3 5 5 0 0 1-.717.088c-.562.031-.785.118-.974.379-.182.251-.209.479-.195 1.628.013 1.014.015 1.034.115 1.229a.96.96 0 0 0 .667.502c.273.057 1.237-.002 1.731-.107 2.23-.471 4.038-2.087 4.717-4.216.327-1.027.329-1.069.315-6.78l-.012-4.92-.089-.234c-.229-.6-.625-.991-1.2-1.183-.243-.081-.316-.083-3.1-.081-2.652.002-2.867.007-3.081.076m11.246.017c-.562.198-.943.581-1.166 1.171-.088.232-.089.258-.101 2.934-.009 1.898.001 2.781.033 2.973.094.557.498 1.122.974 1.363.425.215.505.223 2.337.224h1.694l-.018 1.47c-.019 1.631-.024 1.666-.297 2.21-.178.353-.589.786-.947.997-.346.204-.783.316-1.356.347-.528.029-.678.077-.885.282-.251.248-.262.317-.263 1.585-.001 1.271.008 1.329.251 1.583.287.299.608.365 1.423.29a6 6 0 0 0 1.577-.326 6.25 6.25 0 0 0 3.266-2.538c.394-.605.713-1.395.893-2.214.083-.38.085-.463.098-5.563.009-3.558 0-5.242-.029-5.383a1.93 1.93 0 0 0-1.284-1.424c-.229-.072-.407-.076-3.09-.075l-2.846.001z" fill-rule="evenodd"/></svg>