<svg viewBox="0 0 24 24" xmlns="http://www.w3.org/2000/svg"><path d="M7.28 2.643c-1.542.272-2.135 2.352-1.518 5.317.044.209.088.407.098.44.015.046-.082.092-.41.194-1.771.551-3.247 1.453-3.848 2.351-.348.519-.438 1-.283 1.501.273.885 1.184 1.707 2.701 2.438.53.255 1.448.612 1.708.664.136.027.136-.018-.001.632-.278 1.325-.28 2.72-.006 3.612.252.819.764 1.377 1.417 1.546 1.181.306 3.021-.483 4.652-1.995l.25-.232.261.244a11 11 0 0 0 1.979 1.455c.921.508 1.898.709 2.58.53 1.444-.379 2.01-2.524 1.419-5.376a3 3 0 0 1-.072-.422c.007-.006.193-.07.413-.143 1.403-.463 2.549-1.096 3.3-1.824.414-.402.611-.688.749-1.093.258-.759-.063-1.521-.954-2.263-.748-.624-1.812-1.172-3.105-1.597-.279-.092-.45-.169-.45-.203 0-.03.028-.177.063-.327.202-.87.305-2.236.221-2.932-.153-1.262-.583-2.043-1.319-2.394l-.305-.146-.56.001c-.539.002-.576.007-.986.148-.947.325-1.893.915-2.867 1.788l-.389.35-.439-.378C10.49 3.591 9.398 2.95 8.502 2.721c-.37-.095-.925-.13-1.222-.078m9.544.977c.732.429.939 2.142.515 4.27-.039.192-.09.35-.114.349a3 3 0 0 1-.285-.056 20 20 0 0 0-1.84-.304c-.373-.046-.68-.087-.681-.092-.051-.122-.933-1.248-1.407-1.794l-.371-.428.331-.302c1.529-1.391 3.122-2.071 3.852-1.643m-8.478.002c.82.237 1.823.861 2.85 1.774l.176.156-.096.118c-.053.064-.273.322-.49.573-.29.336-1.158 1.449-1.206 1.546-.002.004-.246.036-.542.071a23 23 0 0 0-1.878.296c-.209.043-.392.066-.407.051-.041-.041-.221-1.012-.275-1.482-.07-.611-.03-1.739.075-2.132q.212-.792.667-.998c.241-.11.688-.099 1.126.027m3.962 2.928c.268.304.617.733.822 1.01l.104.14h-1.233c-.816 0-1.224-.014-1.205-.04.282-.382 1.167-1.42 1.21-1.42.016 0 .152.14.302.31m1.552 2.11c.113.034.666.89 1.313 2.028.302.533.667 1.252.667 1.314 0 .128-1.129 2.143-1.652 2.949l-.257.396-.432.027a45 45 0 0 1-2.968 0l-.45-.026-.315-.484c-.587-.9-1.606-2.716-1.606-2.86 0-.07.507-1.04.91-1.74.222-.388.943-1.551.985-1.589.067-.062 3.602-.076 3.805-.015m-5.063.29a46 46 0 0 0-.927 1.602c-.11.205-.205.366-.213.358-.023-.023-.369-.931-.518-1.36-.078-.222-.127-.417-.11-.432.054-.05 1.469-.304 1.745-.314l.114-.004zm6.853-.089c.578.085 1.284.225 1.324.261.043.038-.07.386-.383 1.191-.272.697-.22.687-.53.107-.107-.198-.355-.63-.552-.96l-.376-.63c-.025-.043.054-.038.517.031m-9.306 1.14c.125.363.334.911.465 1.219.362.854.348.755.159 1.187A27 27 0 0 0 6.24 14.3c-.072.22-.135.405-.139.41-.02.026-1.327-.442-1.684-.602-.775-.349-1.499-.818-1.822-1.182-.217-.243-.405-.645-.427-.913a.67.67 0 0 1 .086-.424c.346-.708 1.715-1.561 3.386-2.111.253-.083.464-.147.468-.143s.11.304.236.666m12.099-.487c1.334.448 2.414 1.051 3.008 1.678.557.588.523 1.082-.118 1.715-.597.591-1.666 1.178-2.911 1.599a4 4 0 0 1-.444.134c-.026 0-.124-.22-.218-.49a34 34 0 0 0-.799-1.97l-.089-.201.248-.579c.252-.587.516-1.278.678-1.77.049-.148.11-.27.137-.27s.255.069.508.154m-6.903.624a1.7 1.7 0 0 0-.688.329 1.86 1.86 0 0 0-.763 1.647c.087 1.37 1.494 2.196 2.751 1.614.273-.126.75-.593.876-.858.414-.864.185-1.835-.565-2.4a1.9 1.9 0 0 0-1.611-.332m5.265 4.032c.129.347.235.654.235.684 0 .052-.671.198-1.4.305l-.431.064-.13.021.254-.412c.298-.483.779-1.329.913-1.606l.094-.195.115.255c.063.14.221.538.35.884m-8.892-.64c.132.247.411.733.62 1.08.435.719.453.666-.193.57-.828-.124-1.34-.233-1.34-.285 0-.091.632-1.815.665-1.815.005 0 .116.203.248.45m-.473 2.409c.635.112 1.773.261 1.998.261.135 0 .16.024.506.49.383.516.884 1.129 1.25 1.529l.218.239-.276.255A7.7 7.7 0 0 1 9.105 20.1c-.67.32-.885.388-1.239.392-.615.007-.929-.174-1.164-.672-.346-.732-.368-2.121-.057-3.611.07-.337.097-.408.15-.392.036.011.326.065.645.122m9.913.031c.28 1.116.321 2.765.087 3.52-.142.458-.523.904-.846.992-.535.145-1.5-.18-2.478-.836-.419-.281-1.066-.803-1.305-1.053l-.13-.135.227-.259c.356-.407.987-1.207 1.274-1.615l.263-.373.307-.025c.476-.04 1.446-.184 1.92-.285.627-.135.63-.134.681.069m-4.362.69c-.337.437-.923 1.136-.953 1.138-.048.004-1.238-1.415-1.238-1.476 0-.012.556-.022 1.235-.022h1.235z" fill-rule="evenodd"/></svg>