<svg viewBox="0 0 24 24" xmlns="http://www.w3.org/2000/svg"><path d="m1.84 8.612-.98.57-.009 1.039-.01 1.039.61.344.609.345.011.485.011.485.259.149c.143.082.259.159.259.171 0 .011-.113.085-.25.162l-.25.142-.009.638-.01.639 1.029.584 1.029.584.34-.157.34-.156.328.142c.181.079.352.143.381.143.028 0 .502-.257 1.052-.571l1-.572.011-.624.011-.624-.261-.153c-.144-.084-.261-.165-.261-.181s.117-.094.26-.174l.26-.145.001-.488.001-.488.609-.34.609-.34V9.191l-.96-.56a23 23 0 0 0-1.021-.578c-.034-.01-.488.226-1.01.525-.521.298-.967.542-.99.542s-.471-.243-.993-.54c-.523-.297-.967-.54-.988-.539-.021 0-.479.257-1.018.571m2.13.628.87.497v1.851c0 1.019-.009 1.852-.021 1.852-.011 0-.115-.053-.23-.119l-.21-.118-.174.098a.8.8 0 0 1-.219.099c-.025 0-.343-.171-.706-.38l-.66-.38-.02-.49-.02-.49-.6-.345-.6-.346V9.472l.74-.433.74-.432.12.069zm3.054.019c.379.113.657.449.717.867.056.39-.188.85-.555 1.044-.232.123-.698.124-.926.003-.654-.35-.772-1.216-.231-1.692a.99.99 0 0 1 .995-.222m-4.304.016c-.462.151-.718.489-.718.945 0 .3.093.512.309.708.15.135.477.272.649.272s.499-.137.649-.272a.88.88 0 0 0 .31-.699.94.94 0 0 0-.534-.876c-.172-.089-.511-.128-.665-.078m3.82.082a.89.89 0 0 0-.699.892.9.9 0 0 0 .594.849c.337.119.619.05.886-.217.457-.457.33-1.173-.261-1.471a.96.96 0 0 0-.52-.053m-3.42.407c0 .204-.015.255-.09.317-.088.071-.092.071-.18-.011-.073-.068-.09-.127-.09-.317V9.52h.36zm3.462.014c.087.132.061.257-.074.357-.103.077-.12.079-.219.023-.252-.141-.187-.478.091-.478.102 0 .155.025.202.098m.675-.022c.095.106.066.279-.062.374-.094.07-.118.073-.219.024-.257-.123-.198-.474.079-.474.08 0 .16.03.202.076m-4.477.404c.071.078.07.084-.02.18-.077.082-.132.1-.307.1H2.24v-.36h.234c.183 0 .249.017.306.08m.9.08v.16h-.254c-.203 0-.268-.016-.326-.08-.07-.077-.07-.083 0-.16.058-.064.123-.08.326-.08h.254zm11.503-.005c-.012.02.002.056.032.081.041.034.066.032.099-.009.025-.03.033-.066.019-.081-.038-.037-.124-.032-.15.009m.314.018a2.5 2.5 0 0 0-.009.41c.011.326.019.357.092.357.064 0 .083-.031.092-.15.017-.195.09-.192.203.01.057.101.119.16.168.16.094 0 .097-.039.01-.19-.064-.112-.063-.12.02-.203q.17-.17-.011-.349c-.081-.081-.138-.098-.321-.098q-.223 0-.244.053m.783.367v.424l.29-.012c.238-.01.292-.024.303-.082.011-.06-.019-.07-.21-.07-.211 0-.223-.005-.223-.1 0-.093.013-.1.2-.1.144 0 .2-.016.2-.056q.002-.104-.268-.104c-.112 0-.136-.013-.116-.063a.4.4 0 0 0 .024-.08c0-.009.091-.017.203-.017.172 0 .201-.011.19-.07-.011-.058-.065-.072-.303-.082l-.29-.012zm.72 0c0 .393.005.42.08.42.064 0 .08-.027.08-.135 0-.127.009-.136.163-.156a.5.5 0 0 0 .24-.092c.078-.07.101-.237.046-.324-.048-.075-.237-.133-.432-.133H17zm.76.02v.4h.26c.233 0 .26-.008.26-.08 0-.068-.027-.08-.18-.08h-.18v-.32c0-.293-.007-.32-.08-.32-.075 0-.08.027-.08.4m.527-.21a.8.8 0 0 1 .152.39c.018.169.035.202.111.213.081.011.09-.004.091-.16.001-.128.037-.23.142-.393.139-.218.139-.22.049-.234-.055-.008-.107.013-.131.055a2 2 0 0 1-.104.149c-.061.079-.064.078-.148-.065-.064-.107-.113-.145-.19-.145h-.103zm-3.467-.11c.014.022.06.04.102.04.104 0 .098.034-.029.168-.076.079-.148.112-.24.112-.073 0-.133.02-.133.044 0 .027.077.039.21.031.253-.015.322.022.378.205l.044.14.003-.16a.5.5 0 0 0-.056-.237c-.052-.069-.051-.089.004-.174q.141-.21-.144-.209c-.099 0-.154.016-.139.04m-11.7.385v.255h-.36v-.227c0-.177.019-.248.085-.318.079-.085.091-.086.18-.028.084.055.095.093.095.318m3.458-.296a.4.4 0 0 1 .062.177c0 .089-.169.254-.26.254s-.26-.165-.26-.254c0-.153.11-.266.26-.266.095 0 .154.027.198.089m.669-.023c.108.098.093.272-.032.371a.4.4 0 0 1-.162.083c-.085 0-.253-.185-.253-.278 0-.199.293-.315.447-.176m8.707.069c.016.087-.055.144-.184.144-.074.001-.09-.021-.09-.122 0-.114.009-.121.13-.11.089.009.134.036.144.088m1.486-.035c.071.086-.022.188-.157.172-.079-.009-.106-.038-.116-.122-.011-.098.001-.11.105-.11.065 0 .141.027.168.06m-13.541.662c-.052.084.048.122.285.11.178-.009.236-.027.236-.072 0-.075-.476-.11-.521-.038m9.954.509c-.046.03-.493 1.629-.493 1.767 0 .109.102.121 1.007.121.645.001.839-.011.882-.053.03-.03.159-.447.288-.925.19-.71.223-.877.178-.905-.067-.042-1.796-.047-1.862-.005m2.084 0c-.036.024-.177.456-.177.542 0 .015.126.027.28.027s.28.013.28.03c-.001.017-.072.3-.16.63s-.159.614-.16.631c0 .018.174.027.386.02l.386-.011.154-.56c.084-.308.149-.586.144-.618s-.055-.071-.11-.086c-.056-.016.08-.03.309-.032.463-.005.443.009.543-.374l.06-.23-.946.001c-.52 0-.965.013-.989.03m2.066.053a36 36 0 0 0-.483 1.799c0 .024.373.034.97.028l.97-.011.045-.14c.025-.077.058-.198.073-.27l.028-.13h-.556c-.306 0-.567-.01-.579-.022-.012-.013-.013-.058-.002-.1.019-.072.059-.078.498-.078h.477l.058-.139c.109-.261.11-.261-.418-.261-.386 0-.48-.011-.498-.06-.013-.033-.065-.064-.115-.069-.05-.004.232-.018.627-.03l.718-.021.074-.254c.042-.14.07-.26.063-.266s-.44-.026-.961-.042l-.949-.029zm2.081-.01c-.039.074-.484 1.73-.484 1.801q0 .045.377.045c.325 0 .381-.01.399-.07.073-.245.184-.676.184-.716 0-.027-.041-.056-.09-.066-.079-.015-.077-.018.017-.023.12-.006.131.023.176.485.014.149.038.27.052.27.014-.001.106-.125.204-.278.099-.152.184-.272.19-.266.005.005-.025.134-.068.287-.098.351-.073.377.364.377h.309l.041-.13c.022-.072.116-.409.208-.75s.18-.647.198-.68.245-.121.525-.2l.493-.14-.659-.012a10 10 0 0 0-.872.013l-.212.025-.224.338c-.124.185-.23.331-.237.324a2.4 2.4 0 0 1-.055-.31c-.023-.163-.055-.308-.071-.322s-.187-.036-.38-.047c-.298-.017-.356-.01-.385.045m-8.964.028c.099.029.257.073.352.098.143.037.168.058.15.122l-.045.158c-.021.075-.003.08.26.08.179 0 .283.016.283.044 0 .024-.082.333-.182.686s-.174.663-.164.688c.019.052.658.283.691.251.027-.027.415-1.456.415-1.529 0-.03-.032-.062-.07-.072s-.005-.021.074-.023c.079-.003.257-.017.395-.031.232-.024.254-.035.301-.15.028-.068.063-.182.079-.254l.027-.13-1.373.004c-1.213.004-1.352.011-1.193.058m3.71.548c-.01.028-.05.176-.09.33s-.087.299-.104.321c-.041.055-.356.024-.356-.035 0-.026.034-.167.077-.314l.076-.268-.106-.039c-.086-.031-.046-.039.207-.042.236-.002.31.01.296.047M3.79 13.86c.324.187.609.34.634.34a1 1 0 0 0 .228-.102l.182-.101.202.111.203.112v.53c.001.292-.007.53-.016.53s-.102-.037-.208-.082l-.191-.082-.31.142a3 3 0 0 1-.342.142c-.018 0-.374-.196-.792-.435l-.76-.434-.011-.341-.012-.342.272-.16c.149-.089.285-.163.302-.164s.296.149.619.336" fill-rule="evenodd"/></svg>