<svg viewBox="0 0 24 24" xmlns="http://www.w3.org/2000/svg"><path d="M3.85 2.791 1.12 4.378v5.573l1.68.954 1.68.954v2.614l.759.434c.417.238.759.442.759.453-.001.011-.342.215-.759.453l-.759.434v3.378l2.805 1.597c1.543.879 2.826 1.592 2.85 1.585s.454-.194.955-.416l.91-.404.91.404c.5.222.93.409.955.416s1.307-.706 2.85-1.585l2.805-1.597v-3.378l-.759-.434c-.417-.238-.759-.442-.759-.453-.001-.011.341-.215.758-.453l.76-.433V11.86l1.68-.955 1.68-.955V4.379l-2.736-1.59C18.64 1.915 17.388 1.2 17.362 1.2s-1.229.677-2.674 1.505c-1.446.828-2.646 1.506-2.668 1.506-.022.001-1.233-.677-2.69-1.505-1.458-.828-2.673-1.505-2.7-1.504s-1.278.716-2.78 1.589m5.47 1.514 2.627 1.506.027 1.321c.014.727.026 3.009.026 5.072v3.751l-.617-.353-.616-.353-.514.294c-.282.162-.534.295-.559.296-.025 0-.889-.483-1.92-1.074L5.9 13.689l-.011-1.316-.01-1.317-1.68-.953-1.679-.952V5.172l2.03-1.183c1.117-.651 2.055-1.185 2.086-1.186.031-.002 1.239.674 2.684 1.502m8.509.197c.592.149 1.261.623 1.615 1.143.189.279.371.722.438 1.067.069.355.028 1.037-.082 1.368a2.9 2.9 0 0 1-1.94 1.866c-.372.113-1.145.103-1.54-.019a2.84 2.84 0 0 1-1.723-1.472 2.6 2.6 0 0 1-.276-1.235c0-.481.083-.844.287-1.257.136-.278.237-.411.53-.704.481-.48.94-.72 1.563-.817.294-.045.82-.017 1.128.06M6.28 4.621a2.8 2.8 0 0 0-1.185.629c-.582.545-.868 1.186-.869 1.95A2.63 2.63 0 0 0 6.88 9.852c.766-.001 1.405-.285 1.948-.866.93-.994.915-2.578-.033-3.607a2.85 2.85 0 0 0-1.086-.682c-.411-.131-1.034-.164-1.429-.076m10.18.214a2.43 2.43 0 0 0-1.582 1.345c-.194.41-.254.725-.229 1.191.057 1.053.772 1.943 1.811 2.254.363.108.998.099 1.36-.02.443-.145.738-.322 1.041-.625a2.468 2.468 0 0 0-.651-3.975 3 3 0 0 0-.5-.185c-.338-.08-.948-.072-1.25.015m-9.1 1.081v.636l-.223.204c-.123.112-.241.204-.263.204s-.146-.094-.277-.209l-.237-.209V5.28h1zm9.143-.2c.39.177.525.653.285 1.009q-.213.314-.555.315c-.271 0-.447-.084-.591-.283a.53.53 0 0 1-.122-.389c0-.544.496-.873.983-.652m1.858.014a.67.67 0 0 1 .36.788c-.084.311-.354.529-.655.528-.431 0-.707-.272-.705-.694.001-.283.123-.496.355-.619a.64.64 0 0 1 .645-.003M8.82 7.2v.46l-.618.011-.617.011-.213-.21c-.116-.115-.212-.234-.212-.263 0-.03.085-.152.19-.272l.19-.217.64.01.64.01zm-2.431-.231c.116.114.211.227.21.25 0 .022-.098.145-.217.272l-.217.231-.613-.011L4.94 7.7l-.011-.47-.012-.47h1.26zm10.228.566c.427.326.357 1.01-.124 1.21-.622.26-1.213-.414-.882-1.005.19-.34.694-.443 1.006-.205m1.771-.051c.5.242.494.993-.01 1.237-.682.33-1.326-.494-.838-1.074.21-.249.54-.312.848-.163m-11.244.181.216.185v1.312l-.49-.011-.49-.011-.011-.625-.011-.625.224-.205c.124-.113.252-.205.285-.205s.158.083.277.185m2.362 1.768c-.094.105-.083.27.023.345.07.049.208.062.66.062.518 0 .578-.007.651-.08.096-.096.102-.191.018-.311-.06-.085-.087-.089-.674-.089-.542 0-.619.008-.678.073m-.287 7.651 1.668.963.553-.318.552-.319.543.305.543.305.001 1.45c.001.835-.014 1.45-.035 1.45-.02 0-.264-.102-.541-.226l-.506-.226-.883.393c-.485.216-.905.392-.932.392s-1.006-.547-2.176-1.215l-2.127-1.216.01-.895.011-.895.78-.454c.429-.249.8-.455.825-.456s.797.432 1.714.962" fill-rule="evenodd"/></svg>