<svg viewBox="0 0 24 24" xmlns="http://www.w3.org/2000/svg"><path d="M11.298 2.161c-1.25.103-2.31.492-2.883 1.058-.252.249-.386.452-1.176 1.779-.971 1.633-1.101 1.883-1.265 2.422-.102.332-.11.414-.111 1.06-.002.69 0 .705.13 1.08.156.45.3.72.588 1.1.117.154 2.388 2.692 5.047 5.639 3.236 3.588 4.887 5.389 4.993 5.449.223.125.462.155.669.081.351-.124 2.926-1.19 3.014-1.248.156-.102.302-.397.322-.651a.67.67 0 0 0-.074-.419c-.058-.12-.777-.95-1.972-2.278-5.562-6.182-9.509-10.601-9.534-10.674-.017-.051.479-.282.898-.419.61-.2 1.154-.272 2.056-.272s1.446.072 2.056.272c.359.117.904.361.904.403 0 .045-.237.326-1.14 1.352-.462.525-.872.996-.911 1.047l-.072.093 1.508 1.672c.83.92 1.519 1.676 1.532 1.68.03.009 1.332-1.448 1.555-1.742.232-.305.504-.872.616-1.285.13-.479.129-1.424-.002-1.9s-.246-.697-1.238-2.38c-.817-1.386-.938-1.57-1.208-1.842a2.3 2.3 0 0 0-.623-.469c-.96-.494-2.325-.719-3.679-.608m-5.485 14.64c-1.481 1.642-2.305 2.586-2.365 2.71a.67.67 0 0 0-.074.419c.021.257.167.549.327.654.054.035.669.296 1.368.58s1.343.55 1.431.593c.364.176.734.139 1.014-.101.191-.163 3.626-3.969 3.626-4.017 0-.043-2.987-3.359-3.025-3.359-.016 0-1.052 1.134-2.302 2.521" fill-rule="evenodd"/></svg>