<svg viewBox="0 0 24 24" xmlns="http://www.w3.org/2000/svg"><path d="M1.72 11.94v3.14H3.4V13h.502l.753 1.04.753 1.04h.936c.515 0 .936-.01.936-.023s-.38-.547-.844-1.187a50 50 0 0 1-.861-1.208c-.009-.023.025-.067.075-.098.357-.223.716-.654.871-1.047.391-.992-.249-2.128-1.43-2.539-.405-.141-.855-.177-2.181-.178H1.72zm2.604-1.999c.246.124.376.246.496.464.098.18.117.261.117.496.001.24-.017.314-.121.5a1.16 1.16 0 0 1-.649.518 2.3 2.3 0 0 1-.457.041H3.4V9.828l.394.022c.256.014.442.046.53.091m4.197.222c-.794.207-1.492.87-1.746 1.657-.451 1.396.298 2.831 1.705 3.266a2.7 2.7 0 0 0 1.44 0 2.36 2.36 0 0 0 1.101-.665c.516-.517.754-1.079.753-1.781-.001-.996-.531-1.852-1.428-2.307-.497-.252-1.246-.322-1.825-.17m3.599 2.457v2.46h1.68v-1.979l.99.989.991.99H17.9l-1.28-1.28-1.28-1.28 1.07-1.07 1.07-1.07v1.622c0 1.726.013 1.872.204 2.246.201.393.636.725 1.121.854a2.35 2.35 0 0 0 2.141-.456l.245-.199.363.317c.339.295.375.316.545.316h.181v-4.92H20.6v3.242l-.163.177a.84.84 0 0 1-.743.292c-.191-.016-.245-.038-.337-.141-.177-.199-.197-.404-.197-2.052V10.16h-3.419l-.971.97-.97.969V10.16h-1.68zm-2.682-1.281c.557.288.762 1.382.4 2.129-.345.709-.956.668-1.304-.088-.155-.336-.182-.928-.06-1.331.184-.605.59-.904.964-.71" fill-rule="evenodd"/></svg>