<svg viewBox="0 0 24 24" xmlns="http://www.w3.org/2000/svg"><path d="M17.32 2.764a3.6 3.6 0 0 0-1.847.911c-.947.889-1.341 2.203-.978 3.265.22.643.65 1.446 1.263 2.36l.242.36-1.17.023c-1.333.027-1.404.04-2.05.358-.872.43-1.494 1.162-1.801 2.119-.147.46-.184 1.235-.08 1.705.158.712.423 1.213.914 1.724.478.498.935.777 1.607.981.267.081.385.086 2.5.108 2.007.02 2.235.029 2.377.093.632.285.905.998.611 1.596a1.22 1.22 0 0 1-.559.563l-.169.09-4.388.02-4.387.02-.288.42a29 29 0 0 1-1.187 1.594c-.116.141-.21.272-.21.292 0 .022 2.163.032 5.31.025l5.31-.012.388-.107c.998-.274 1.795-.911 2.255-1.801a3.514 3.514 0 0 0-1.883-4.893c-.547-.206-.707-.218-2.856-.218-1.71 0-2.02-.009-2.207-.064a1.14 1.14 0 0 1-.846-1.146c.003-.469.249-.843.687-1.046.176-.081.247-.084 2.09-.095l1.909-.012.392-.468c1.807-2.159 2.91-3.984 3.085-5.104.073-.472-.074-1.226-.343-1.765-.231-.461-.735-1.031-1.181-1.335a3.9 3.9 0 0 0-1.09-.486c-.376-.096-1.049-.132-1.42-.075m1.062 2.335c.406.199.633.572.633 1.041 0 1.151-1.479 1.607-2.113.651-.664-1 .403-2.219 1.48-1.692m-12.848 6.96c-.782.142-1.396.478-1.962 1.074a3.5 3.5 0 0 0-.93 2.012c-.068.592.05 1.11.433 1.915.504 1.058 1.74 2.819 2.921 4.162l.136.155.18-.199a43 43 0 0 0 1.454-1.818c.591-.807 1.228-1.836 1.479-2.388.274-.603.363-.925.384-1.398.033-.724-.15-1.367-.571-1.999-.766-1.151-2.181-1.76-3.524-1.516m1.151 2.431c.399.235.611.594.608 1.03-.005.697-.551 1.201-1.248 1.151a1.02 1.02 0 0 1-.755-.365c-.233-.253-.302-.429-.305-.786-.003-.352.087-.578.326-.818.268-.269.474-.344.894-.328.242.01.34.033.48.116" fill-rule="evenodd"/></svg>