<svg viewBox="0 0 24 24" xmlns="http://www.w3.org/2000/svg"><path d="M10.54 1.828C7.924 2 6.259 2.473 4.9 3.431c-1.783 1.257-2.764 3.404-3.059 6.696-.111 1.243-.085 3.128.061 4.39.285 2.454.988 4.179 2.195 5.385.272.272.59.54.823.695.949.631 2.237 1.1 3.731 1.36 1.95.338 4.722.346 6.669.02q2.734-.46 4.309-1.82c1.097-.947 1.889-2.522 2.29-4.555.387-1.958.413-4.976.062-6.998-.36-2.07-1.153-3.689-2.313-4.72-1.302-1.156-3.295-1.841-5.946-2.043-.485-.037-2.684-.046-3.182-.013m-2.5 8.031c.533.169 1.043.55 1.323.986a2.37 2.37 0 0 1 .3 1.732c-.254 1.078-1.167 1.783-2.309 1.783H7v-.868l.35-.024c.399-.026.615-.093.866-.265.378-.26.618-.789.569-1.254a1.4 1.4 0 0 0-.754-1.113L7.78 10.7H5.94l-.01 2.49-.011 2.49h-.882l.012-2.59.011-2.59.118-.214a1.05 1.05 0 0 1 .585-.482c.084-.025.506-.036 1.097-.028.776.011 1.002.027 1.18.083m5.1.024c.554.172 1.13.647 1.391 1.147.261.499.269.56.269 2.017v1.313h-.88v-1.258c0-1.175-.006-1.274-.083-1.48-.108-.29-.406-.612-.725-.785-.241-.131-.27-.137-.672-.137-.403 0-.43.006-.673.137-.494.268-.782.734-.782 1.263 0 .414.1.667.371.942.277.282.541.389 1.047.425l.357.025v.868h-.334c-.924 0-1.732-.461-2.102-1.201a2.32 2.32 0 0 1 .078-2.218c.358-.593 1.01-1.037 1.676-1.14.295-.046.766-.01 1.062.082m3.38 1.217.574 1.179-.233.501c-.128.275-.244.5-.257.5-.019 0-1.588-3.183-1.637-3.323-.008-.022.191-.037.483-.037h.496zm3.393-1.144c-.007.019-.661 1.351-1.452 2.96l-1.439 2.924h-.491c-.27 0-.491-.012-.491-.026s.651-1.346 1.446-2.96l1.446-2.934h.497c.275 0 .492.016.484.036" fill-rule="evenodd"/></svg>