<svg viewBox="0 0 24 24" xmlns="http://www.w3.org/2000/svg"><path d="M10.061 4.483c-1.065.146-2.315.578-3.701 1.279-2.466 1.247-4.124 2.928-4.432 4.493-.104.527.024 1.009.432 1.619.428.638 1.116 1.244 2.545 2.24.355.247.713.507.796.579l.151.131-.529.287c-1.452.789-2.348 1.576-2.627 2.306-.205.538-.17 1.224.082 1.618.261.407.561.537 1.242.538.77.001 1.492-.286 2.085-.828.469-.428.742-.84.932-1.41.24-.716.251-1.54.028-2.152l-.092-.254.537-.308c.295-.169.545-.299.556-.288.011.01-.01.115-.045.233a5.8 5.8 0 0 0-.181 1.246c0 .736.374 1.672.739 1.845a.92.92 0 0 0 .635.008c.246-.103.491-.486.864-1.347l.182-.423v.523c0 .467.01.542.094.713.141.286.416.389.679.252.187-.096.462-.427.685-.823.413-.733.99-1.908 1.322-2.691l.336-.791.113.449c.066.266.194.619.312.866l.199.417-.15.205a28 28 0 0 1-.665.822c-.605.725-.665.816-.665 1.007 0 .246.098.296.574.295.337-.001.456-.019.699-.107.587-.213 1.016-.551 1.204-.952.091-.194.103-.269.1-.64-.002-.334-.02-.465-.09-.64a1.5 1.5 0 0 1-.087-.269c0-.026.115-.224.256-.44.141-.215.41-.667.597-1.005l.34-.614.046.222c.067.322.214.766.361 1.088l.128.281-.297.299c-.56.563-.841 1.088-.847 1.585-.004.266.005.297.113.41.155.161.336.192.619.105a2.7 2.7 0 0 0 1.098-.622c.45-.427.575-.765.483-1.301a3 3 0 0 0-.09-.384c-.041-.104-.037-.107.226-.189.618-.193 1.475-.212 2.157-.047 1.072.259 1.743 1.062 1.528 1.83-.051.181-.3.477-.59.702-.191.149.046.205.304.072.403-.208.71-.65.754-1.086.028-.279-.069-.696-.233-1.003-.156-.295-.609-.729-.942-.906-.524-.277-.957-.375-1.649-.373a4.1 4.1 0 0 0-1.784.389c-.07.031-.411-.734-.456-1.024-.077-.486-.057-.654.167-1.434.047-.164.044-.178-.044-.25-.076-.062-.159-.076-.439-.076-.415 0-.626.053-.706.174a2 2 0 0 0-.141.421c-.103.412-.277.792-.773 1.68-.538.962-.476.901-.621.615-.241-.478-.264-1.137-.061-1.781.149-.474.134-.489-.456-.489-.547 0-.672.047-.729.275-.101.405-.227.725-.759 1.926-.715 1.611-1.22 2.659-1.283 2.659-.103 0-.007-.644.24-1.616.134-.525.243-1.007.243-1.07 0-.21-.341-.336-.6-.22-.051.023-.06-.034-.06-.384 0-.361-.011-.428-.094-.561-.123-.198-.27-.269-.554-.268-.451.002-.967.306-1.517.892-.307.327-.341.35-1.285.865l-.97.529-.27-.248a23 23 0 0 0-.99-.814c-1.503-1.179-1.909-1.718-1.915-2.545-.004-.559.114-.92.483-1.474.637-.958 2.139-2.045 3.952-2.862 2.02-.91 4.115-1.074 5.162-.405.375.24.519.557.489 1.076-.038.64-.343 1.216-.991 1.865-.808.81-1.828 1.341-3.08 1.604-.548.116-1.343.128-1.712.026-.361-.099-.659-.256-.868-.456-.197-.189-.227-.201-.295-.12-.063.076.034.34.201.547.18.224.603.502.945.621.991.345 2.779.134 4.126-.487.921-.423 1.865-1.303 2.336-2.175.318-.588.499-1.339.448-1.855-.109-1.113-.855-1.822-2.261-2.152-.268-.063-.518-.083-1.18-.094-.462-.007-.965.004-1.119.024m.416 8.454c.103.123-.128.938-.622 2.199-.325.828-.492 1.169-.638 1.307-.092.086-.099.087-.174.02-.166-.151-.217-.922-.099-1.495.175-.851.725-1.775 1.194-2.008.192-.095.275-.1.339-.023m6.507 1.647c.043.167-.009.549-.096.719a1.2 1.2 0 0 1-.519.494c-.146.073-.174.077-.194.025-.034-.089.099-.477.251-.728.152-.253.444-.614.497-.614.019 0 .047.047.061.104m-10.588.909a2.55 2.55 0 0 1-.879 2.413c-.504.431-1.154.643-1.493.488-.262-.119-.293-.617-.067-1.099.299-.641.662-.96 2.263-1.999a.4.4 0 0 1 .106-.054c.014-.001.046.112.07.251m7.867.037c-.038.238-.182.464-.452.711-.216.197-.474.349-.519.304-.011-.011.143-.201.342-.423s.42-.484.491-.583.137-.179.147-.179.006.077-.009.17" fill-rule="evenodd"/></svg>