<svg viewBox="0 0 327.524 106.44" xmlns="http://www.w3.org/2000/svg"><path d="M24.412 7.406C16.666 9.282 9.92 14.565 7.636 20.544c-1.644 4.305-2.014 10.068-.893 13.924 2.435 8.375 9.396 12.468 27.78 16.331 12.685 2.666 17.248 4.305 19.894 7.146 2.9 3.114 2.965 9.447.139 13.713-2.787 4.208-8.883 7.195-16.048 7.864l-3.403.318-1.991 4.023-1.99 4.023h4.821c5.46 0 11.829-1.406 16.348-3.609 4.109-2.003 9.041-6.762 10.871-10.487 1.374-2.798 1.522-3.661 1.522-8.867 0-5.34-.122-6.006-1.647-8.991-2.955-5.782-9.715-9.576-21.515-12.076-13.151-2.786-15.684-3.402-18.805-4.573-6.224-2.334-9.111-6.621-8.324-12.362.958-6.994 6.79-11.278 16.363-12.02l4.282-.332 2.627-3.597c1.445-1.978 2.512-3.782 2.372-4.009-.433-.701-12.293-.365-15.627.443m259.175-.214c-3.92.748-9.011 3.339-12.212 6.217-7.773 6.989-9.14 19.96-2.859 27.115 3.723 4.24 10.315 7.181 21.616 9.644 12.626 2.751 15.456 3.516 18.711 5.054 2.434 1.15 3.836 2.236 4.836 3.747 1.274 1.926 1.389 2.538 1.21 6.467-.176 3.872-.377 4.564-1.872 6.434-3.482 4.357-8.956 6.984-15.96 7.659l-3.446.333-1.876 3.725c-1.032 2.049-1.876 3.854-1.876 4.012s2.026.282 4.503.277c12.477-.026 23.047-5.479 27.277-14.07 1.644-3.339 1.791-4.064 1.791-8.835 0-6.034-1.136-9.231-4.53-12.751-3.959-4.106-10.119-6.542-23.792-9.409-5.139-1.078-10.817-2.448-12.619-3.045-6.709-2.224-9.552-5.542-9.552-11.146 0-7.945 6.084-13.004 16.525-13.74l4.244-.299 2.443-3.496c1.344-1.922 2.444-3.729 2.444-4.015 0-.665-11.362-.573-15.006.122M134.831 11.19v4.094h57.862V7.096h-57.862zm-30.78 16.55c-.302.488-27.083 71.111-27.083 71.419 0 .104 1.816.19 4.035.19h4.035l.809-2.047c.445-1.126 5.414-14.452 11.044-29.614 5.629-15.161 10.388-27.733 10.577-27.937.188-.203 5.117 12.57 10.954 28.386 5.836 15.815 10.85 29.308 11.141 29.984.482 1.116.9 1.228 4.595 1.228 3.019 0 4.001-.176 3.818-.682-.136-.376-6.236-16.588-13.556-36.028l-13.31-35.345h-3.392c-1.865 0-3.516.2-3.667.446m89.734 5.012v5.459h7.642V27.294h-7.642zm46.399 11.069v16.528l3.412 1.486c1.876.818 3.596 1.486 3.821 1.486s.409-8.106.409-18.014V27.294h-7.642zm-80.539-14.753c-.143.375-.197 13.578-.119 29.34l.142 28.659h8.188l.141-29.341.141-29.341h-4.115c-2.79 0-4.201.22-4.378.683m34.14 31.749c0 14.967.593 19.597 3.231 25.234 4.151 8.872 13.122 14.022 24.308 13.955 8.223-.048 14.372-2.573 19.114-7.847 3.127-3.478 4.292-5.692 5.733-10.894 1.701-6.135 1.658-6.283-2.302-8.071-1.877-.846-3.46-1.503-3.519-1.46-.058.044-.372 1.792-.696 3.885-1.156 7.457-4.762 12.639-10.682 15.349-7.503 3.435-18.195 1.142-22.784-4.887-4.148-5.448-4.761-8.695-4.761-25.243V47.491h-7.642zM8.188 68.824a397 397 0 0 0-3.701 1.314c-1.018.376.84 3.775 3.96 7.245 2.49 2.769 8.636 7.227 9.964 7.227.373 0 1.45-1.527 2.393-3.395 1.591-3.152 1.645-3.435.751-3.957-3.816-2.229-6.261-4.309-7.908-6.727-1.051-1.542-2.034-2.794-2.184-2.783s-1.624.495-3.275 1.076m258.103.16c-1.704.644-3.269 1.341-3.478 1.55-.628.628 2.181 4.886 5.245 7.95 2.604 2.604 7.812 6.126 9.058 6.126.275 0 1.285-1.593 2.246-3.541l1.746-3.541-2.229-1.138c-2.943-1.501-6.745-5.049-7.586-7.078-.777-1.877-.882-1.883-5.002-.328" fill-rule="evenodd" style="paint-order:fill"/></svg>