<svg viewBox="0 0 24 24" xmlns="http://www.w3.org/2000/svg"><path d="M2.725 3.003c-.403.08-.761.366-.939.75-.084.182-.086.231-.086 1.807v1.62l.099.2c.138.281.432.556.702.657l.222.083h18.554l.222-.083c.27-.101.564-.376.702-.657l.099-.2V3.94l-.112-.228c-.134-.273-.434-.556-.698-.658-.182-.071-.556-.074-9.39-.08-5.06-.003-9.279.01-9.375.029m14.228 1.701c.726.362.682 1.391-.073 1.733-.609.275-1.317-.196-1.319-.877 0-.249.126-.563.286-.71a.99.99 0 0 1 1.106-.146m2.653.038c.095.066.226.198.293.292.104.149.122.214.133.479.012.288.005.321-.119.526a.957.957 0 0 1-1.682-.055c-.113-.218-.119-.622-.014-.837.183-.374.497-.555.93-.538.245.011.314.03.459.133M2.575 9.483c-.194.057-.499.279-.643.47-.245.322-.257.425-.244 2.133L1.7 13.62l.111.226c.188.382.523.628.968.71.333.062 18.109.062 18.442 0 .445-.082.78-.328.968-.71l.111-.226v-3.24l-.111-.226a1.4 1.4 0 0 0-.597-.602l-.172-.092-9.36-.007c-5.548-.003-9.411.009-9.485.03m14.245 1.601c.32.087.66.547.66.893 0 .401-.322.849-.68.944-.608.161-1.188-.234-1.232-.84-.051-.702.557-1.186 1.252-.997m2.682.051q.538.25.538.871c0 .666-.59 1.095-1.253.911-.189-.053-.445-.279-.558-.494-.119-.227-.119-.621.001-.849.103-.196.377-.442.548-.491.23-.067.512-.047.724.052M2.551 15.94a1.46 1.46 0 0 0-.627.474c-.242.352-.249.413-.236 2.107L1.7 20.06l.112.228c.141.286.442.562.719.659.2.07.617.073 9.469.073s9.269-.003 9.469-.073c.277-.097.578-.373.719-.659l.112-.228v-3.24l-.099-.2a1.45 1.45 0 0 0-.622-.622l-.199-.098-9.34-.007c-7.843-.006-9.364.001-9.489.047m14.392 1.652c.697.358.701 1.36.008 1.705a.95.95 0 0 1-1.391-.859.953.953 0 0 1 1.383-.846m2.651.036c.122.075.231.19.316.332.11.183.13.255.13.47 0 .296-.059.458-.245.669-.18.205-.398.299-.697.3a.954.954 0 0 1-.703-1.613.97.97 0 0 1 1.199-.158" fill-rule="evenodd"/></svg>