<svg viewBox="0 0 24 24" xmlns="http://www.w3.org/2000/svg"><path d="M10.874 2.763c-.526.077-1.075.402-1.598.945-.398.414-.702.859-1.016 1.487-.228.457-.543 1.353-.62 1.765l-.042.22-.949.292c-1.07.329-1.258.407-1.322.548-.047.103-1.513 11.248-1.484 11.276.009.009 2.474.443 5.477.964l5.63.978.17.032V4.882l-.126.025a5 5 0 0 0-.35.095l-.223.069-.122-.308c-.178-.447-.32-.67-.616-.966-.346-.346-.627-.483-1.036-.508-.29-.017-.316-.026-.467-.169a1.3 1.3 0 0 0-.768-.359 3 3 0 0 0-.292-.035zm.634.658.145.06-.194.124c-.69.438-1.379 1.563-1.621 2.647-.028.127-.065.24-.081.25-.065.04-1.487.461-1.519.45-.059-.02.271-.94.504-1.407.311-.622.623-1.072 1.017-1.469.355-.358.601-.527.94-.644.25-.086.617-.091.809-.011m1.438.582c.315.152.735.723.87 1.18.026.086.043.078-.782.32-.055.017-.07-.031-.094-.312a5.7 5.7 0 0 0-.194-1.081c-.067-.219-.05-.228.2-.107m-.794.227c.103.33.155.637.189 1.113l.026.362-.931.287c-.512.157-.94.278-.951.267-.034-.034.116-.465.294-.844.298-.635.626-1.052 1.047-1.331.103-.068.2-.124.215-.124s.065.122.111.27m3.328 8.923c0 7.688.003 8.091.07 8.071.038-.011 1.092-.276 2.34-.587 1.841-.46 2.27-.579 2.269-.632 0-.036-.457-3.142-1.015-6.902-.863-5.812-1.026-6.845-1.087-6.89-.053-.039-.256-.053-.774-.053h-.702l-.55-.549-.551-.55zm-3.62-4.597c.351.051.58.12.581.176.001.026-.119.513-.267 1.081-.252.968-.274 1.031-.352 1.008-.543-.159-.714-.189-1.102-.192-.526-.005-.817.074-1.048.283-.196.177-.272.341-.272.589 0 .351.176.538 1.066 1.134 1.218.815 1.601 1.391 1.644 2.47.06 1.507-.713 2.628-2.013 2.917-.409.091-1.26.063-1.705-.055a4.05 4.05 0 0 1-1.441-.738l-.109-.091.183-.779c.101-.428.197-.793.213-.811.016-.017.161.05.322.149.769.474 1.48.617 1.846.37.292-.197.397-.497.296-.846-.094-.322-.27-.521-.831-.941-.61-.455-.831-.664-1.034-.972-.277-.423-.337-.675-.336-1.408.001-.617.006-.654.132-1.02.19-.553.441-.946.858-1.344.682-.65 1.633-.997 2.769-1.01.198-.002.468.011.6.03" fill-rule="evenodd"/></svg>