<svg viewBox="0 0 24 24" xmlns="http://www.w3.org/2000/svg"><path d="M19.315 3.707a.6.6 0 0 0-.17.175c-.059.101-.065.803-.065 8.118 0 7.341.005 8.017.065 8.118.138.233.244.261 1.051.276.968.018 1.132-.003 1.318-.174l.146-.134V3.914l-.149-.137-.15-.137-.97.001c-.827.001-.987.011-1.076.066m-4.153 3.126a.6.6 0 0 0-.209.209c-.07.131-.073.415-.073 6.537 0 6.274.002 6.404.078 6.529.161.264.198.272 1.22.272 1.024 0 1.088-.014 1.247-.275.073-.121.075-.326.075-6.552V7.126l-.083-.113c-.171-.233-.269-.253-1.238-.253-.776 0-.896.009-1.017.073m-4.234 3.168c-.262.159-.248-.127-.248 5.148 0 5.354-.02 4.975.28 5.15.129.075.208.081 1.04.081s.911-.006 1.04-.081c.3-.175.28.204.28-5.15 0-5.275.014-4.989-.248-5.148-.122-.075-.2-.081-1.072-.081s-.95.006-1.072.081M6.84 13.085c-.174.069-.275.199-.321.41-.031.143-.04 1.155-.032 3.345.012 2.993.017 3.146.088 3.265.159.261.223.275 1.247.275 1.022 0 1.059-.008 1.22-.272.075-.124.078-.227.078-3.389 0-3.081-.004-3.268-.073-3.397-.14-.26-.236-.282-1.226-.279-.485.001-.926.02-.981.042m-4.284 3.206c-.241.163-.237.124-.226 2.042l.01 1.753.146.134c.186.17.35.192 1.318.174.635-.012.753-.024.861-.089.26-.158.255-.115.255-2.046v-1.748l-.155-.156-.156-.155h-.958c-.932 0-.963.003-1.095.091" fill-rule="evenodd"/></svg>