<svg viewBox="0 0 24 24" xmlns="http://www.w3.org/2000/svg"><path d="M11.08 2.34c-.745.103-1.284.275-1.989.637a5.2 5.2 0 0 0-2.788 3.766A15 15 0 0 0 6.16 8.48v.26h-.53c-.457 0-.56.013-.75.09-1.059.431-1.389 1.713-.683 2.65.212.281.496.514 1.183.969.523.346.542.39.338.798-.469.934-1.331 1.721-2.678 2.445-.658.353-.9.679-.899 1.208q.002.875 1.105 1.41c.228.111.567.251.754.311.525.17.547.186.699.519.149.327.396.605.656.737.277.142.596.201 1.284.241.681.039 1.158.116 1.483.239.102.039.432.219.733.4.834.502 1.361.723 2.125.89.324.071 1.716.071 2.04 0 .759-.166 1.271-.38 2.114-.882.304-.181.638-.362.743-.404.319-.125.75-.196 1.464-.239.864-.052 1.176-.13 1.513-.378.155-.114.365-.408.447-.625.098-.256.203-.334.646-.479.64-.21 1.175-.49 1.446-.757.326-.32.467-.618.467-.983 0-.54-.257-.877-.944-1.237-1.319-.691-2.189-1.491-2.661-2.445-.125-.253-.141-.313-.104-.395.026-.055.298-.268.637-.496.691-.466 1.039-.803 1.211-1.175.451-.971-.013-2.055-1.009-2.358-.236-.072-.347-.082-.708-.065l-.427.021-.048-.825a14 14 0 0 0-.106-1.145c-.295-1.636-1.237-2.953-2.686-3.754-1.124-.621-2.569-.873-3.935-.686m1.76 1.119a4.5 4.5 0 0 1 1.385.419c.542.257.85.471 1.24.859.491.488.843 1.07 1.033 1.703.181.605.263 1.918.189 3.039-.024.376-.026.646-.004.687.071.131.184.119.724-.08.825-.303 1.098-.338 1.405-.18.164.085.284.371.25.597-.042.278-.289.511-1.136 1.071-.807.533-.992.693-1.028.885-.06.317.255 1.141.684 1.789.192.291.426.566.795.933.579.578 1.007.896 1.77 1.319.277.154.525.312.549.35.033.054.029.097-.016.18-.088.159-.716.458-1.316.628-.849.241-.96.327-1.044.818-.076.446-.134.48-.915.528-1.414.087-1.824.205-2.85.82a10 10 0 0 1-.72.394c-1.092.514-2.475.53-3.577.043a12 12 0 0 1-.802-.443 11 11 0 0 0-.799-.441c-.407-.18-.985-.296-1.697-.341-1.072-.067-1.206-.117-1.261-.47-.091-.586-.17-.658-.98-.889-1.052-.3-1.588-.629-1.397-.859.027-.033.224-.15.438-.26 1.655-.85 2.939-2.279 3.305-3.678.085-.327.055-.503-.115-.679-.072-.073-.463-.352-.87-.621s-.815-.57-.907-.67c-.293-.318-.313-.681-.052-.931.108-.104.157-.119.411-.132.298-.015.449.024 1.303.333.305.11.458.109.501-.003.013-.035.005-.449-.018-.919-.092-1.864.103-2.998.654-3.818.728-1.083 1.826-1.77 3.168-1.982a7 7 0 0 1 1.7.001" fill-rule="evenodd"/></svg>