<svg viewBox="0 0 24 24" xmlns="http://www.w3.org/2000/svg"><path d="M11.46 2.16c-1.869.118-3.393.951-4.346 2.375-.435.65-.653 1.167-.779 1.845-.064.339-.074.589-.071 1.64.002.682.023 1.456.047 1.72s.029.495.011.513a.6.6 0 0 1-.187.069c-.215.049-.594-.018-.966-.17-.429-.175-.705-.174-1.067.004-.423.208-.584.537-.444.904.13.342.581.635 1.382.902.912.303 1.247.641 1.118 1.127-.07.265-.492 1.051-.789 1.469-.341.481-.977 1.147-1.384 1.45-.644.479-1.128.71-1.914.911-.539.138-.611.196-.611.495 0 .172.022.241.115.363q.404.529 1.897.805c.293.054.582.098.641.099a.4.4 0 0 1 .16.034c.029.018.105.252.169.519.14.584.192.695.372.781.179.085.258.082.818-.024.601-.114 1.569-.123 1.963-.018.365.097.794.333 1.471.809.662.465 1.321.814 1.774.938.443.121 1.286.182 1.745.125.783-.096 1.381-.359 2.41-1.061 1.127-.769 1.416-.875 2.385-.873.4 0 .702.026 1.056.089.284.051.566.08.66.067.221-.03.354-.185.437-.511l.136-.533.071-.277.54-.106c1.573-.31 2.28-.698 2.28-1.253 0-.24-.149-.37-.512-.45-.568-.125-1.201-.378-1.625-.65-.946-.605-1.762-1.534-2.351-2.677-.211-.408-.232-.472-.232-.702 0-.231.012-.268.137-.414.172-.2.48-.364 1.043-.553.572-.191.872-.352 1.127-.605.223-.221.282-.38.239-.645-.055-.343-.506-.657-.982-.684-.229-.013-.314.004-.625.125-.467.183-.781.241-.99.185l-.158-.042.025-.288c.162-1.906.114-3.349-.14-4.169-.253-.82-.99-1.864-1.733-2.456-1.148-.913-2.581-1.311-4.323-1.202" fill-rule="evenodd"/></svg>