<svg viewBox="0 0 24 24" xmlns="http://www.w3.org/2000/svg"><path d="M1.607 10.415c-.329.326-.452.473-.434.52.022.059.223.065 2.132.065h2.108l.46-.455c.329-.326.452-.473.434-.52-.022-.059-.223-.065-2.132-.065H2.067zm6.651.641c-.388.169-.486.67-.187.955.168.16.294.189.829.189.396 0 .507.012.557.063.073.073.08.151.022.26-.038.07-.089.077-.601.077h-.56l-.18.166c-.107.099-.166.182-.145.203.02.02.379.03.799.023.702-.011.771-.019.875-.096.344-.257.346-.739.004-.983-.12-.085-.18-.094-.711-.107-.319-.007-.603-.032-.63-.055-.064-.052-.065-.24-.002-.303.033-.033.227-.048.612-.048h.564l.148-.152c.081-.083.148-.173.148-.2 0-.071-1.376-.064-1.542.008m2.379.061-.117.117v1.532l.117.117.117.117h1.565l.13-.117.131-.116v-1.533l-.131-.117-.13-.117h-1.565zM13.2 12v1h1.576l.112-.107c.21-.202.178-.213-.588-.213h-.7v-.777c0-.427-.011-.805-.024-.84-.017-.044-.077-.063-.2-.063H13.2zm2.534-.96c-.199.08-.214.154-.214 1.091v.873l.19-.012.19-.012.012-.37.011-.37h1.234l.011.37.012.37h.36l.011-.82c.007-.555-.004-.856-.036-.932-.084-.202-.198-.228-.983-.225-.392.001-.751.018-.798.037m2.426.96v1h.176c.123 0 .183-.019.2-.063.013-.035.024-.341.024-.68 0-.371.015-.617.039-.617.021 0 .302.307.625.682l.587.682.184-.012.185-.012v-1.96h-.36l-.011.69c-.008.513-.023.69-.06.689-.027-.001-.31-.316-.629-.7l-.58-.698-.19-.001h-.19zm2.854-.96c-.199.08-.214.155-.214 1.089V13h.176c.213 0 .224-.021.224-.443v-.317h1.24v.317c0 .422.011.443.224.443h.176v-1.766l-.117-.117-.117-.117-.753.003c-.414.001-.792.018-.839.037m-3.927.346c.055.05.073.124.073.299 0 .287.012.282-.7.267l-.52-.012-.012-.259c-.017-.35.003-.361.606-.361.39 0 .493.012.553.066m5.292-.001c.048.048.062.125.053.31l-.012.245h-1.2l-.012-.259c-.017-.35.002-.361.617-.361.397 0 .501.012.554.065m-10.259.055c.071.071.08.133.08.531 0 .643.015.629-.654.629-.359 0-.545-.015-.578-.048s-.048-.219-.048-.578c0-.463.009-.535.07-.571.038-.022.29-.041.56-.042.438-.001.499.008.57.079m-10.947.104c-.017.045.107.196.421.51l.446.446 2.05.011c1.128.007 2.09.002 2.14-.01s.09-.046.09-.074-.204-.253-.454-.499l-.454-.448H3.305c-1.895 0-2.11.006-2.132.064m.411 1.932c-.305.306-.428.456-.411.5.022.057.242.064 2.132.064h2.107l.454-.448c.25-.246.454-.471.454-.5 0-.042-.408-.052-2.151-.052h-2.15z" fill-rule="evenodd"/></svg>