<svg viewBox="0 0 24 24" xmlns="http://www.w3.org/2000/svg"><path d="M14.572 1.833c-.401.301-.722.566-.714.59.013.038 5.582 7.542 5.665 7.633.046.05 1.564-1.092 1.529-1.15-.127-.216-5.677-7.625-5.709-7.623-.024.001-.371.249-.771.55m-3.371 3.215c-.575.693-.6.731-.532.796.153.147 7.267 6.076 7.29 6.076.04 0 1.181-1.401 1.181-1.45 0-.038-7.274-6.15-7.319-6.15-.009 0-.288.327-.62.728M8.582 9.181c-.217.473-.386.868-.378.877.021.02 8.605 4.025 8.649 4.035.047.01.836-1.701.798-1.733S9.029 8.32 8.998 8.32c-.013 0-.2.387-.416.861m-1.438 4.422c-.105.508-.185.929-.177.936.007.008 2.092.448 4.633.979 2.541.532 4.648.975 4.683.985.053.015.095-.135.255-.904.106-.507.181-.933.168-.946-.026-.026-9.204-1.97-9.309-1.972-.05-.001-.102.188-.253.922M2.92 18.92v3.84h17.24v-7.68h-1.92v5.76H4.84v-5.76H2.92zm3.809-.97.011.95h9.6l.011-.95.01-.95H6.719z" fill-rule="evenodd"/></svg>