<svg viewBox="0 0 24 24" xmlns="http://www.w3.org/2000/svg"><path d="m12.42 7.707-.73.157-.29.064v.596c0 .328.012.596.028.596.081 0 1.397-.294 1.423-.318.017-.015.026-.289.02-.608l-.011-.58zm-6.1.698-.631.14-.291.064.011 2.565.011 2.566.106.226c.282.602.942.902 1.752.799.193-.025.421-.07.507-.099l.155-.054.011-.571.011-.571-.091.029c-.05.016-.2.038-.332.049-.339.028-.517-.051-.619-.276-.072-.157-.078-.269-.079-1.302l-.001-1.13h1.12V9.6H6.84v-.64c0-.743.056-.683-.52-.555M2.814 9.521c-.619.112-1.094.454-1.33.957-.091.195-.104.273-.104.642 0 .493.066.679.336.947.226.225.443.347.986.553.564.214.778.33.853.463a.32.32 0 0 1-.057.373c-.231.231-.956.153-1.77-.19l-.328-.139v1.312l.14.058c.527.22 1.314.332 1.869.264 1.118-.136 1.691-.681 1.682-1.601-.007-.794-.412-1.204-1.587-1.603-.607-.206-.807-.449-.56-.68.095-.089.133-.097.49-.094.408.004.869.106 1.167.258a1 1 0 0 0 .197.079c.028 0 .042-.236.042-.681v-.681l-.11-.042c-.473-.182-1.442-.281-1.916-.195m12.707.023c-.201.054-.4.155-.63.32-.087.063-.089.061-.115-.1L14.75 9.6h-1.31v6.791l.65-.135c.357-.075.69-.145.74-.157.09-.02.09-.023.09-.84 0-.45.008-.819.018-.819s.085.045.167.101c.515.349 1.403.297 1.963-.115q.9-.662.9-2.286c0-.786-.156-1.347-.514-1.85-.458-.644-1.22-.938-1.933-.746m4.49-.003c-.801.173-1.398.816-1.658 1.783-.073.274-.089.435-.087.876.006 1.046.316 1.743.966 2.174.782.519 1.987.55 2.998.078l.13-.061v-.536c0-.294-.011-.535-.025-.535s-.19.058-.39.129c-.346.121-.396.128-.946.13-.546.001-.593-.005-.779-.101a.89.89 0 0 1-.447-.611l-.023-.147h2.9l-.021-.63c-.015-.484-.04-.699-.107-.93-.367-1.26-1.324-1.877-2.511-1.619m-9.665.02a.97.97 0 0 0-.454.328l-.084.119-.027-.134c-.06-.297-.001-.274-.704-.274H8.44v5.08h1.48v-3.479l.163-.119c.194-.14.526-.218.776-.18l.181.027V9.57l-.125-.025a1.4 1.4 0 0 0-.569.016M11.4 12.14v2.54h1.48V9.6H11.4zm9.385-1.383c.261.118.455.437.455.749v.134h-1.529l.028-.189c.052-.344.224-.587.501-.707a.61.61 0 0 1 .545.013m-4.873.1c.408.213.642.792.598 1.475-.057.878-.551 1.366-1.199 1.186a.9.9 0 0 1-.27-.143l-.121-.102v-2.228l.122-.086a1 1 0 0 1 .23-.119c.176-.054.524-.044.64.017" fill-rule="evenodd"/></svg>