<svg viewBox="0 0 24 24" xmlns="http://www.w3.org/2000/svg"><path d="M3.056 2.256c-.23.073-.501.269-.631.457-.239.344-.225-.146-.224 8.163 0 7.278.003 7.64.075 7.985.247 1.197 1.111 2.235 2.216 2.661.589.227.759.258 1.408.255.535-.002.639-.014.957-.112a3.6 3.6 0 0 0 1.557-.903 3.7 3.7 0 0 0 1.032-1.782l.094-.36V10.9c0-7.497-.002-7.726-.076-7.918a1.4 1.4 0 0 0-.602-.656L8.66 2.22l-2.72-.008c-2.137-.006-2.755.003-2.884.044M7.08 5.881v1.24l-1.21-.01L4.66 7.1l-.011-1.23-.01-1.23H7.08zm7.1-1.028a2 2 0 0 0-.26.105c-.055.028-.788.737-1.63 1.576l-1.53 1.525v5.174c0 2.845.015 5.168.034 5.16a610 610 0 0 0 4.133-4.133c4.534-4.556 4.253-4.241 4.253-4.78 0-.522.054-.455-2.035-2.552-1.499-1.504-1.928-1.912-2.095-1.994-.25-.123-.633-.159-.87-.081m-7.1 5.927V12H4.64V9.56h2.44zm5.739 7.339L9.137 21.8h5.807c6.67 0 6.062.036 6.482-.381.392-.389.374-.228.374-3.302 0-2.361-.007-2.649-.068-2.838-.089-.277-.383-.598-.661-.724l-.211-.095-2.18-.011-2.18-.011zm-6.516-.779c.612.359.578 1.267-.06 1.59-.378.191-.744.13-1.05-.174-.753-.75.191-1.955 1.11-1.416" fill-rule="evenodd"/></svg>