<svg viewBox="0 0 24 24" xmlns="http://www.w3.org/2000/svg"><path d="M5.753 5.022 4.475 6.284l-.308-.279c-.169-.153-.37-.344-.447-.425-.274-.288-.492-.331-.744-.146-.231.17-.688.659-.738.791-.093.246-.051.303 1.018 1.371l1.016 1.015.208.02.208.02L6.51 6.83l1.821-1.822-.02-.206c-.022-.233-.073-.297-.601-.767-.288-.255-.324-.275-.495-.275h-.184zm4.128.029c-.295.156-.321.247-.321 1.128 0 .855.027.964.277 1.131l.136.091 5.724-.011c5.651-.01 5.724-.011 5.832-.09a.8.8 0 0 0 .193-.248c.077-.155.082-.224.07-.927-.013-.831-.022-.865-.287-1.063-.111-.082-.125-.082-5.781-.092l-5.67-.011zm-4.14 6.069-1.283 1.279-.359-.364c-.495-.502-.628-.595-.851-.595-.173 0-.193.014-.573.387-.43.423-.51.565-.438.783.054.164 1.929 2.046 2.103 2.111.288.107.274.119 2.133-1.734.953-.95 1.758-1.776 1.79-1.835a.7.7 0 0 0 .057-.258c0-.138-.037-.187-.452-.602l-.452-.452h-.391zm4.14.051c-.304.16-.326.243-.312 1.176.012.902.028.957.314 1.103.129.066.471.07 5.837.06 5.629-.01 5.701-.011 5.809-.09a.8.8 0 0 0 .193-.248c.077-.155.082-.224.07-.927-.013-.831-.022-.865-.287-1.063-.111-.082-.125-.082-5.781-.092l-5.67-.011zm-5.717 5.49a1.85 1.85 0 0 0-.82.483c-1.071 1.072-.467 2.848 1.054 3.093.501.08 1.066-.106 1.466-.484.387-.366.576-.804.576-1.333 0-.727-.388-1.327-1.064-1.648-.256-.122-.349-.144-.647-.157a1.8 1.8 0 0 0-.565.046m5.717.63c-.304.16-.326.243-.312 1.176.012.902.028.957.314 1.103.129.066.488.07 5.801.07h5.664l.132-.09c.294-.2.3-.224.3-1.13 0-.895-.005-.916-.275-1.118-.111-.082-.125-.082-5.781-.092l-5.67-.011z" fill-rule="evenodd"/></svg>