<svg viewBox="0 0 24 24" xmlns="http://www.w3.org/2000/svg"><path d="M6.483 1.643a5.73 5.73 0 0 0-3.934 2.433A6.7 6.7 0 0 0 1.82 5.62c-.243.845-.231.562-.249 5.9-.01 3.15-.001 5.115.025 5.502.107 1.549.677 2.791 1.755 3.823.772.738 1.617 1.184 2.769 1.46.279.067.67.072 5.66.085 3.743.009 5.463 0 5.7-.031 2.547-.329 4.569-2.356 4.879-4.889.033-.264.042-1.899.032-5.71-.016-5.944.007-5.448-.295-6.358-.283-.851-.754-1.583-1.444-2.244-.775-.742-1.619-1.187-2.772-1.463-.28-.066-.664-.072-5.72-.079-2.981-.004-5.535.008-5.677.027M5.3 7.836c.088.04.203.12.255.177l.096.104.075-.095c.115-.147.391-.262.628-.262.186 0 .212.011.247.103.021.056.039.189.039.296 0 .156-.028.234-.145.407-.255.378-.251.396.28 1.256.505.816.538.914.363 1.077-.121.111-.578.281-.915.34-.913.158-2.183-.159-2.183-.546 0-.051.205-.423.455-.826.251-.404.468-.772.483-.819.026-.085-.021-.205-.241-.606-.106-.196-.118-.305-.055-.532.041-.149.043-.15.25-.149.116 0 .279.033.368.075m3.684.104c.077.059.235.254.351.434.116.179.287.394.378.476.145.13.193.15.362.15.26 0 .495-.088.697-.261.216-.185.34-.177.441.031.091.187.05.342-.156.583l-.14.164.166.401c.092.221.175.402.186.402.01 0 .071-.031.136-.069.129-.077.244-.04.269.086.018.094-.082.196-.402.408-.551.366-1.284.541-1.912.455a3.2 3.2 0 0 1-1.184-.419c-.415-.263-.529-.412-.408-.533.077-.077.163-.057.325.077.145.119.154.121.208.05.077-.101.285-.638.32-.827l.029-.153-.135.082c-.235.144-.405.106-.689-.153-.178-.162-.2-.261-.104-.477.092-.209.599-.894.732-.99.12-.087.356-.049.53.083m6.227-.035c.302.151.523.344.606.529.072.159.072.166-.039.653-.102.448-.112.557-.106 1.192.003.384.017.749.03.81.024.108.02.111-.154.111h-.177l.019-.63c.017-.517.009-.657-.043-.781-.129-.307-.269-.222-.649.393-.315.508-.534.751-.796.879-.2.097-.253.105-.707.102-.531-.004-.927-.054-1.14-.143-.104-.043-.135-.08-.135-.158 0-.081.046-.132.21-.235.372-.234.902-.426 1.18-.427.072 0 .196.035.276.078.143.077.147.077.294.002.082-.042.231-.167.332-.279.221-.247.322-.526.409-1.141.072-.501.14-.738.269-.928a1 1 0 0 1 .101-.132c.007 0 .106.047.22.105m3.684-.026c.523.086.934.451 1.059.941.059.228.137 1.398.106 1.582a.9.9 0 0 1-.47.615l-.206.103h-1.177c-.767 0-1.231-.016-1.33-.046a.9.9 0 0 1-.519-.458c-.085-.175-.088-.214-.061-.804.016-.341.045-.72.064-.841.093-.566.505-1.001 1.036-1.091.267-.045 1.225-.046 1.498-.001m-1.612.857c-.074.089.047.467.208.65.509.58 1.539.249 1.563-.502.006-.175 0-.185-.109-.197-.213-.024-.305.022-.305.154q0 .12-.137.27c-.119.13-.16.149-.317.149-.244 0-.388-.112-.469-.364-.061-.188-.07-.196-.224-.208q-.159-.012-.21.048M9.54 10.398a1 1 0 0 0-.206.074c-.093.05-.294.274-.294.327 0 .019.127.055.282.081.283.048.765.025.95-.045.092-.034.092-.036.02-.158-.131-.223-.465-.347-.752-.279m-2.394 2.067c.251.119.32.384.163.619-.124.183-.287.231-.799.234l-.43.002v1.371c0 1.501.003 1.484-.24 1.609a.38.38 0 0 1-.401-.001c-.233-.12-.239-.164-.239-1.637V13.32l-.43-.002c-.236-.001-.491-.024-.566-.05a.445.445 0 0 1-.024-.83c.044-.018.698-.034 1.454-.035 1.192-.003 1.392.006 1.512.062M11 12.46a.437.437 0 0 1 .124.696l-.116.124H8.84v.64h.85c.473 0 .917.019 1.002.043.268.074.387.392.24.64-.128.216-.235.237-1.208.237H8.84v.64h2.168l.116.124a.433.433 0 0 1-.001.605l-.116.131H8.193l-.116-.131-.117-.13v-1.682c0-1.112.014-1.709.043-1.762a.5.5 0 0 1 .17-.157c.119-.073.21-.078 1.419-.078 1.068 0 1.312.01 1.408.06m1.723-.018c.043.023.296.369.563.77.266.4.497.742.513.76s.256-.31.533-.727c.276-.418.543-.781.591-.807.052-.028.193-.04.348-.03.232.015.272.03.374.145l.115.128-.001 1.71c-.001 1.281-.014 1.724-.05 1.771-.154.195-.39.249-.586.133-.216-.127-.221-.154-.243-1.294l-.02-1.059-.372.528c-.403.572-.482.65-.668.65s-.265-.078-.668-.65l-.372-.528-.02 1.059c-.022 1.152-.033 1.208-.262 1.313-.186.084-.335.057-.482-.09l-.136-.136v-1.699c0-1.674.001-1.7.086-1.807a.5.5 0 0 1 .17-.143c.12-.048.495-.047.587.003m4.312.015c.226.117.223.104.245 1.359.019 1.123.023 1.171.115 1.357.137.278.331.394.699.418.322.021.496-.038.606-.205.063-.096.074-.171.24-1.626.127-1.112.123-1.092.247-1.216a.42.42 0 0 1 .488-.087c.251.13.251.126.237 1.509L19.9 15.22l-.112.24c-.272.583-.844.899-1.628.899-.925 0-1.54-.429-1.7-1.184-.043-.201-.059-.564-.059-1.347-.001-1.191.013-1.266.252-1.369.164-.072.245-.072.382-.002" fill-rule="evenodd"/></svg>