<svg viewBox="0 0 24 24" xmlns="http://www.w3.org/2000/svg"><path d="M4.58 7.861a4.23 4.23 0 0 0-3.401 3.414c-.398 2.272 1.142 4.47 3.41 4.865 2.866.5 5.371-2.005 4.871-4.871-.153-.88-.541-1.603-1.217-2.269a4.14 4.14 0 0 0-1.994-1.102c-.396-.09-1.278-.109-1.669-.037m2.543 2.39c.21.141.323.368.306.612-.013.18-.118.383-.947 1.819-.512.889-.961 1.639-.997 1.666-.083.063-.247.064-.329.001-.035-.027-.483-.776-.996-1.664-1.033-1.788-1.05-1.831-.884-2.157a.8.8 0 0 1 .233-.267l.15-.101h3.329zm8.988-.029q-.557.135-1.001.58c-.842.842-.818 2.154.055 2.977.969.914 2.475.728 3.203-.396a2.1 2.1 0 0 0-.01-2.257c-.499-.747-1.399-1.109-2.247-.904m-5.182.448.011.43.63.011.629.011.011 1.589.01 1.589.45.011.45.012v-3.201l.63-.011.63-.011.011-.43.012-.43h-3.486zm8.271 1.589v2.021h.919l.01-1.234.011-1.234.973 1.234.974 1.234h.793v-4.04h-.919l-.01 1.229-.011 1.23-.961-1.22-.962-1.219-.408-.011-.409-.012zM3.768 10.728a.17.17 0 0 0-.048.1c0 .029.214.435.475.902.261.468.549.997.639 1.177.247.493.263.48.233-.191a34 34 0 0 1-.027-1.306v-.73h-.612c-.423 0-.627.015-.66.048m1.792 1.26c0 .804.014 1.293.037 1.27.02-.021.165-.278.322-.572.156-.293.445-.819.643-1.169.197-.349.358-.659.358-.688 0-.13-.094-.149-.728-.149H5.56zm11.55-.812c.394.201.62.557.644 1.011.021.415-.068.654-.35.936-.354.352-.765.445-1.219.275-.782-.292-1.017-1.366-.433-1.971a1.36 1.36 0 0 1 .588-.352c.198-.052.565-.004.77.101" fill-rule="evenodd"/></svg>