<svg viewBox="0 0 24 24" xmlns="http://www.w3.org/2000/svg"><path d="M10.81 2.383c-3.204.388-6.075 2.425-7.489 5.314-.7 1.43-1.001 2.726-1.001 4.303q0 2.96 1.621 5.381a9.7 9.7 0 0 0 7.047 4.26c.66.072 1.977.032 2.607-.08 1.999-.354 3.718-1.223 5.14-2.599 1.495-1.446 2.454-3.266 2.826-5.367.112-.63.152-1.947.08-2.607a9.73 9.73 0 0 0-1.926-4.856c-.375-.501-1.342-1.47-1.84-1.841-1.421-1.063-3.028-1.711-4.737-1.911a12 12 0 0 0-2.328.003m5.161 5.485c.33.157.613.436.769.758.148.307.185.824.082 1.14-.038.115-1.016 1.855-2.175 3.866-1.603 2.784-2.14 3.683-2.244 3.763-.116.089-.177.105-.403.105s-.287-.016-.403-.105c-.104-.08-.647-.991-2.243-3.762-1.159-2.011-2.138-3.751-2.175-3.866-.051-.153-.064-.297-.052-.538.029-.551.289-1 .732-1.266.412-.248.263-.239 4.221-.231l3.62.008zM8.437 9.037c-.083.083-.117.156-.117.251 0 .101.268.616 1.093 2.093.6 1.078 1.286 2.332 1.522 2.789s.438.83.447.83.018-1.368.018-3.04V8.92H8.554zm4.164 2.952v3.071l.444-.86c.244-.473.937-1.743 1.539-2.822.785-1.405 1.096-1.998 1.096-2.088a.4.4 0 0 0-.096-.238l-.097-.112-1.443-.011-1.444-.012z" fill-rule="evenodd"/></svg>