<svg viewBox="0 0 24 24" xmlns="http://www.w3.org/2000/svg"><path d="M9.58 2.637c-.401.071-.692.325-.949.828L8.46 3.8H6.597c-2.072 0-2.084.001-2.393.266a1.17 1.17 0 0 0-.018 1.771c.348.306-.293.283 7.814.283 8.239 0 7.493.032 7.864-.338a1.147 1.147 0 0 0 0-1.644c-.343-.343-.31-.338-2.461-.338l-1.863-.001-.177-.34c-.202-.387-.377-.581-.663-.733l-.2-.106-2.38-.006c-1.309-.003-2.452.007-2.54.023M4.96 7.364c0 .144.762 12.255.782 12.429.09.787.646 1.402 1.41 1.562.299.063 9.397.063 9.696 0a1.78 1.78 0 0 0 1.41-1.562c.02-.174.782-12.285.782-12.429 0-.032-1.957-.044-7.04-.044s-7.04.012-7.04.044" fill-rule="evenodd"/></svg>