<svg viewBox="0 0 24 24" xmlns="http://www.w3.org/2000/svg"><path d="M3.928 2.021c-.92.2-1.652.916-1.891 1.85-.075.293-.077.523-.076 8.105 0 8.691-.019 8.087.281 8.697a2.5 2.5 0 0 0 1.622 1.288c.302.077.477.079 8.136.079s7.834-.002 8.136-.079a2.5 2.5 0 0 0 1.825-1.825c.077-.302.079-.477.079-8.136s-.002-7.834-.079-8.136a2.48 2.48 0 0 0-1.283-1.619c-.616-.304-.003-.284-8.698-.281-6.437.002-7.844.012-8.052.057m6.159 2.652c.246.122.449.324.584.58l.109.207v11.962l-.133.269a1.06 1.06 0 0 1-.316.409c-.336.258-.361.26-2.614.26-2.369 0-2.312.008-2.68-.358-.39-.388-.357.212-.357-6.519 0-3.894.014-5.953.041-6.05.06-.215.275-.513.466-.647.312-.219.368-.223 2.633-.214l2.08.008zm8.633-.004c.271.134.45.299.581.537l.119.214v7.08l-.09.169a1.22 1.22 0 0 1-.563.559l-.227.112h-2.12c-1.961 0-2.132-.005-2.274-.072a1.55 1.55 0 0 1-.632-.639l-.094-.209V8.98c0-3.288.003-3.449.076-3.638a1.26 1.26 0 0 1 .853-.739c.083-.02 1.06-.034 2.171-.03 2 .007 2.022.008 2.2.096" fill-rule="evenodd"/></svg>