<svg viewBox="0 0 24 24" xmlns="http://www.w3.org/2000/svg"><path d="M1.521 10.89c0 2.683 0 2.68.269 3.23.2.408.712.924 1.105 1.113.596.287 1.275.363 1.875.21.364-.094.615-.216.932-.456l.238-.18.012.296.011.297H7V8.48H5.96v2.292c0 2.531-.003 2.567-.252 2.982a1.694 1.694 0 0 1-2.991-.133l-.137-.279-.011-2.431-.011-2.431H1.52zM8 11.94v3.46h1v-.597l.293.211c.345.247.615.371.981.448a2.65 2.65 0 0 0 3.089-1.882c.1-.363.119-.959.04-1.26-.263-1.007-.963-1.728-1.924-1.981-.313-.083-.931-.094-1.239-.022a3 3 0 0 0-.992.484l-.208.166V8.48H8zm8.026-1.597c-.406.099-.852.359-1.189.695a2.58 2.58 0 0 0-.784 1.684c-.046.59.2 1.351.588 1.818.829.997 2.289 1.266 3.432.633.259-.144.807-.625.807-.71 0-.025-.154-.161-.342-.3l-.342-.253-.208.208a1.74 1.74 0 0 1-1.756.443c-.29-.09-.646-.327-.806-.537-.141-.185-.346-.619-.346-.734v-.09h4.08v-.378c0-.47-.051-.719-.225-1.098-.308-.673-.963-1.218-1.659-1.383-.317-.074-.938-.073-1.25.002m5.763.021a1.4 1.4 0 0 0-.653.378l-.176.176v-.558h-1v5.04h1v-3.267l.122-.245c.209-.417.522-.604 1.068-.639l.33-.02v-.909l-.27.004a2.5 2.5 0 0 0-.421.04m-4.625.875c.477.178.856.6.977 1.091l.028.11h-3.091l.027-.11a1.7 1.7 0 0 1 .417-.728 1.57 1.57 0 0 1 1.642-.363m-5.714.07a1.736 1.736 0 0 1 .831 2.37c-.327.646-1.099 1.05-1.785.932-.936-.16-1.548-.929-1.485-1.863.047-.68.5-1.268 1.166-1.512.157-.058.293-.072.603-.064.354.009.431.025.67.137" fill-rule="evenodd"/></svg>