<svg viewBox="0 0 24 24" xmlns="http://www.w3.org/2000/svg"><path d="M3.38 2.376a1.43 1.43 0 0 0-.643.391c-.204.216-.267.321-.351.574-.061.185-.066.873-.056 8.72l.01 8.519.112.24c.181.387.482.657.885.793.182.062.872.067 8.663.067s8.481-.005 8.663-.067c.403-.136.704-.406.885-.793l.112-.24.01-8.519.011-8.519-.084-.252c-.108-.322-.396-.647-.733-.823l-.244-.127-8.54-.008c-6.825-.006-8.572.003-8.7.044m9.84 3.896c.514.113.814.22 1.36.486a5.55 5.55 0 0 1 1.911 1.482 5.95 5.95 0 0 1 1.314 2.88c.073.428.064 1.421-.016 1.86a6 6 0 0 1-2.653 3.988c-.544.349-1.285.641-2.016.796-.606.129-1.642.129-2.24.001-1.872-.402-3.389-1.581-4.176-3.247-.269-.568-.397-1-.523-1.768l-.025-.15h4.084v.482c0 .458.005.486.098.58l.098.098h1.57c1.556 0 1.57-.001 1.661-.087l.093-.087v-3.18l-.105-.083c-.103-.081-.148-.083-1.662-.083h-1.557l-.098.098c-.094.094-.098.121-.098.6v.502H6.155l.027-.19c.273-1.938 1.429-3.58 3.125-4.438a5.7 5.7 0 0 1 1.793-.596c.467-.077 1.652-.046 2.12.056" fill-rule="evenodd"/></svg>