<svg viewBox="0 0 24 24" xmlns="http://www.w3.org/2000/svg"><path d="M17.964 1.663a2 2 0 0 0-.842.483c-.839.778-.858 2.072-.042 2.898.411.417.844.597 1.437.595 1.507-.004 2.469-1.707 1.714-3.034-.248-.436-.748-.817-1.246-.949-.263-.071-.745-.067-1.021.007M12.88 3.584c-.493.06-1.006.154-1.39.255-.429.113-1.304.439-1.379.514-.057.057 1.651 2.976 1.728 2.954 1.5-.432 2.578-.406 3.767.089 1.548.646 2.603 1.982 3.011 3.814l.025.11h1.719c1.559 0 1.719-.006 1.719-.065a8.73 8.73 0 0 0-2.112-4.912l-.131-.149-.289.119a4 4 0 0 1-.5.163 3.7 3.7 0 0 1-1.198-.016c-1.122-.265-2.068-1.268-2.248-2.386-.022-.136-.056-.264-.075-.283s-.204-.071-.411-.116c-.294-.063-.563-.083-1.236-.094a18 18 0 0 0-1 .003M8.519 5.286c-.359.252-.863.731-1.282 1.217A8.5 8.5 0 0 0 5.7 9.159l-.144.419.112.078c.209.145.631.605.767.834.606 1.03.521 2.373-.212 3.339-.143.19-.547.581-.654.634-.006.003.054.192.133.421.404 1.173 1.179 2.373 2.105 3.257.36.344.982.843 1.013.813.021-.022 1.7-2.961 1.7-2.977 0-.007-.176-.189-.391-.405a5.1 5.1 0 0 1-1.451-2.85c-.075-.51-.03-1.411.094-1.885.256-.983.698-1.745 1.431-2.47.277-.275.327-.342.292-.399-.023-.037-.407-.698-.853-1.468l-.82-1.41a2.5 2.5 0 0 0-.303.196M3.54 10.019c-.402.088-.693.25-1.003.559-.529.527-.734 1.236-.556 1.92a2.045 2.045 0 0 0 2.849 1.336c.29-.137.669-.473.846-.748.51-.795.384-1.835-.305-2.522-.509-.508-1.14-.696-1.831-.545m15.098 2.711-.119.47c-.141.548-.523 1.352-.847 1.78a5.06 5.06 0 0 1-2.841 1.881c-.808.207-1.979.173-2.736-.081a2 2 0 0 0-.317-.091c-.034.034-1.698 2.964-1.698 2.99 0 .072 1.019.429 1.603.561 1.065.24 2.503.271 3.617.077l.256-.045.026-.186a2.94 2.94 0 0 1 .917-1.799c.838-.784 1.909-.998 3.009-.6l.329.119.131-.149a8.73 8.73 0 0 0 2.05-4.422c.034-.234.062-.445.062-.47 0-.033-.476-.045-1.72-.045-.946 0-1.721.005-1.722.01m-.674 5.693c-.333.09-.6.252-.885.536-1.095 1.095-.617 2.933.878 3.377.327.097.843.084 1.163-.03 1.212-.429 1.722-1.764 1.113-2.911-.234-.443-.749-.847-1.248-.979-.263-.071-.745-.067-1.021.007" fill-rule="evenodd"/></svg>