<svg viewBox="0 0 24 24" xmlns="http://www.w3.org/2000/svg"><path d="M3.853 2.457c-.682.165-1.273.766-1.411 1.434-.03.147-.04 2.603-.033 8.229l.011 8.02.093.23c.195.483.635.922 1.119 1.118l.228.092h16.28l.23-.093a2.12 2.12 0 0 0 1.118-1.119l.092-.228.011-8.02c.007-5.626-.003-8.082-.033-8.229-.142-.688-.765-1.3-1.47-1.447-.325-.067-15.954-.055-16.235.013m13.389 3.659c.48.151.814.441 1.04.904.207.424.256.72.253 1.5-.002.63-.013.739-.11 1.096-.356 1.306-1.291 2.921-2.813 4.854-1.628 2.069-2.958 3.178-4.161 3.47-.93.226-1.629-.215-2.223-1.402-.26-.52-.346-.784-.771-2.374-.693-2.587-.918-3.316-1.22-3.951-.195-.409-.477-.725-.688-.772-.176-.039-.313.023-.861.386-.259.172-.343.21-.386.175-.078-.065-.595-.748-.589-.779.002-.014.396-.379.876-.81C7.094 7.058 7.621 6.647 8.24 6.346c.327-.16.355-.166.723-.165.35.001.405.012.647.131.449.221.787.685.985 1.352.047.156.176.831.287 1.5.481 2.893.795 4.054 1.187 4.399.179.157.341.154.591-.011.353-.234 1.018-1.173 1.496-2.112.348-.685.424-.939.424-1.42 0-.353-.012-.42-.1-.574-.214-.375-.733-.501-1.383-.334a6 6 0 0 0-.392.11c-.09.036-.083.007.123-.522.599-1.542 1.606-2.449 2.952-2.658.388-.061 1.158-.022 1.462.074" fill-rule="evenodd"/></svg>