<svg viewBox="0 0 24 24" xmlns="http://www.w3.org/2000/svg"><path d="M16.3 2.198a1.6 1.6 0 0 0-.284.113c-.09.047-1.95 1.714-4.133 3.706L7.914 9.638l-.96-.729C4.431 6.993 4.393 6.965 4.201 6.924a.84.84 0 0 0-.571.08c-.06.032-.388.309-.73.615-.419.377-.647.611-.701.722a.84.84 0 0 0 .011.73c.058.105.619.65 1.58 1.532.82.753 1.49 1.383 1.49 1.401s-.684.658-1.52 1.422c-1.679 1.536-1.667 1.522-1.632 1.952.025.295.094.383.805 1.026.627.565.715.628.96.683.309.07.389.021 2.239-1.373.964-.727 1.774-1.312 1.801-1.302s1.802 1.615 3.946 3.567a569 569 0 0 0 4.019 3.642c.188.142.555.233.816.203.24-.029.36-.083 3.046-1.38 1.482-.716 1.593-.776 1.785-.98.366-.388.335.303.335-7.444 0-7.842.036-7.115-.374-7.514-.237-.23-.328-.278-2.375-1.252-1.17-.557-2.205-1.031-2.3-1.052a1.1 1.1 0 0 0-.531-.004m.62 9.805c0 2.444-.015 4.438-.034 4.43-.019-.007-1.34-1.003-2.937-2.213-2.375-1.799-2.894-2.21-2.852-2.252.084-.087 5.761-4.404 5.793-4.406.017-.001.03 1.997.03 4.441" fill-rule="evenodd"/></svg>