<svg viewBox="0 0 24 24" xmlns="http://www.w3.org/2000/svg"><path d="M8.2 2.044c-2.343.132-3.661.574-4.638 1.555-.957.961-1.37 2.211-1.527 4.621-.068 1.035-.068 6.525 0 7.56.155 2.391.563 3.638 1.503 4.596.97.988 2.296 1.436 4.689 1.582 1.77.108 6.913.084 8.213-.038 2.124-.201 3.401-.744 4.261-1.812.458-.569.722-1.121.94-1.966.25-.971.307-1.603.366-4.112.05-2.097.003-5.569-.087-6.49-.211-2.142-.738-3.376-1.811-4.238-.97-.779-2.264-1.139-4.529-1.261-.883-.047-6.525-.045-7.38.003m5.18 2.593c1.244.252 2.478.838 3.42 1.626 2.618 2.19 3.41 5.951 1.903 9.037a7.54 7.54 0 0 1-5.409 4.107c-.678.128-1.944.13-2.614.003-3.223-.61-5.544-2.932-6.128-6.13-.115-.631-.124-1.825-.018-2.46A7.62 7.62 0 0 1 7.8 5.742a7.8 7.8 0 0 1 2.506-1.061c.643-.137.871-.156 1.774-.144.697.009.943.028 1.3.1M7.92 8.275c-.39.128-.741.46-.853.806-.094.292-.085.612.026.879.05.121.557 1.03 1.126 2.02.57.99 1.421 2.475 1.892 3.3.472.825.911 1.557.977 1.626s.212.177.326.24c.184.102.245.114.566.114.426 0 .658-.092.919-.363.096-.099.478-.722.947-1.542l1.931-3.375c.629-1.1 1.163-2.066 1.185-2.147.154-.568-.086-1.125-.608-1.414-.193-.107-.25-.119-.574-.119-.292 0-.394.017-.542.09a1.25 1.25 0 0 0-.638 1.55l.147.397c.111.303.144.782.075 1.083-.247 1.063-1.307 1.756-2.35 1.535-.59-.125-1.02-.462-1.429-1.121a102 102 0 0 1-1.598-2.777c-.188-.356-.328-.506-.61-.656a1 1 0 0 0-.533-.146 1.6 1.6 0 0 0-.382.02" fill-rule="evenodd"/></svg>