<svg viewBox="0 0 24 24" xmlns="http://www.w3.org/2000/svg"><path d="M1.447 2.971c.019.076 10.527 18.069 10.552 18.069.023 0 10.5-17.937 10.543-18.05.025-.066-.179-.07-3.932-.07h-3.959L13.337 5c-.723 1.144-1.324 2.08-1.336 2.08-.011 0-.526-.932-1.142-2.07L9.738 2.94l-4.152-.01c-3.381-.008-4.15-.001-4.139.041m7.834 6.147c1.485 2.574 2.708 4.679 2.719 4.679.011-.001 1.233-2.106 2.716-4.679l2.695-4.678h1.255c.69 0 1.254.012 1.254.027 0 .039-7.897 13.571-7.92 13.571-.015.001-4.063-6.916-7.668-13.103l-.289-.495h2.54z" fill-rule="evenodd"/></svg>