<svg viewBox="0 0 24 24" xmlns="http://www.w3.org/2000/svg"><path d="M12.18 2.181C8.6 2.649 5.474 4.946 4.386 7.91c-.298.809-.419 1.446-.526 2.75-.142 1.742-.193 2.055-.402 2.487-.25.515-.563.708-1.254.773a2 2 0 0 0-.537.113c-.512.226-.793.88-.606 1.411.14.396 1.091 1.433 1.819 1.983a10.2 10.2 0 0 0 2.747 1.469c.003.002-.019.103-.05.223-.182.701.058 1.543.595 2.086a2.25 2.25 0 0 0 1.652.685c1.098-.007 2.062-.827 2.231-1.897l.045-.285 1.196.026c.659.014 1.419.026 1.691.026h.493v.11c.002.363.264.934.594 1.293a2.2 2.2 0 0 0 1.666.732c1.019.001 1.851-.623 2.204-1.655.095-.278.098-.965.006-1.249l-.061-.189.365-.197c.86-.465 1.472-.925 2.208-1.662.772-.772 1.215-1.378 1.666-2.275a8 8 0 0 0 .86-3.37 8.1 8.1 0 0 0-.846-3.958c-1.374-2.805-4.337-4.813-7.642-5.179-.494-.055-1.834-.043-2.32.02m2.38 1.157a8.84 8.84 0 0 1 4.142 1.671c1.616 1.199 2.707 2.911 3.042 4.771.088.491.101 1.754.022 2.24a7 7 0 0 1-.687 2.16c-.349.702-.693 1.184-1.278 1.792a8.5 8.5 0 0 1-2.223 1.687l-.362.189-.245-.158c-.378-.244-.75-.349-1.231-.347-.431.002-.661.059-1.066.261-.272.136-.667.492-.837.755l-.123.19-.287.027c-.158.015-1.029.014-1.937-.001l-1.65-.028-.123-.192c-.456-.71-1.377-1.122-2.222-.994a2.1 2.1 0 0 0-.95.362c-.129.087-.258.157-.288.157-.106 0-.988-.362-1.422-.584-.991-.507-1.929-1.259-2.542-2.038l-.126-.161.396-.048c1.129-.135 1.789-.732 2.131-1.929.149-.521.218-.997.326-2.265.135-1.576.232-2.058.577-2.858C6.635 5.59 9.35 3.71 12.344 3.326c.446-.058 1.751-.05 2.216.012m-4.027 4.52c-.538.168-.801.572-.765 1.175.023.372.116.573.37.797.554.488 1.484.288 1.763-.379.103-.244.119-.601.041-.873-.055-.191-.111-.279-.282-.445a1.09 1.09 0 0 0-1.127-.275m5.115.018a1.03 1.03 0 0 0-.608.507c-.086.168-.1.248-.1.576 0 .432.058.596.294.832.427.427 1.223.41 1.625-.035.273-.303.366-.751.243-1.178-.055-.191-.111-.279-.282-.445-.33-.322-.731-.41-1.172-.257m-5.883 3.59c-.215.109-.293.27-.272.554.04.516.393 1.184.895 1.691 1.121 1.134 2.902 1.504 4.558.948.972-.326 1.792-1.024 2.235-1.901.201-.4.278-.698.224-.876a.6.6 0 0 0-.711-.401c-.207.047-.319.178-.448.521-.25.669-.674 1.111-1.377 1.437-.522.242-.801.299-1.469.3s-.911-.05-1.42-.298c-.659-.322-1.131-.844-1.325-1.465-.131-.422-.248-.543-.544-.564a.64.64 0 0 0-.346.054" fill-rule="evenodd"/></svg>