<svg viewBox="0 0 24 24" xmlns="http://www.w3.org/2000/svg"><path d="M9.32 2.323c-.579.056-1.037.275-1.459.698a2.33 2.33 0 0 0-.701 1.637c0 .379 1.217 8.838 1.3 9.036.094.226.392.523.631.632l.209.094 2.792.02 2.792.02 1.21 2.577c.86 1.831 1.253 2.626 1.359 2.747.221.254.533.393.891.394l.29.002 1.405-.7c.773-.385 1.447-.745 1.498-.8a.58.58 0 0 0 .144-.547 8 8 0 0 0-.352-.753c-.49-.953-.56-.97-1.658-.417-.396.2-.735.349-.754.33a106 106 0 0 1-1.108-2.321c-.591-1.258-1.124-2.36-1.183-2.45a1.3 1.3 0 0 0-.273-.283c-.332-.24-.319-.239-3.139-.239h-2.572l-.02-.09a16 16 0 0 1-.142-1.03c0-.076.055-.078 2.377-.089 2.33-.011 2.379-.013 2.488-.093.266-.199.274-.23.287-1.081.012-.744.009-.785-.077-.937a.6.6 0 0 0-.255-.24c-.16-.077-.247-.08-2.673-.08-1.379 0-2.508-.005-2.51-.01l-.092-.618-.09-.608.202-.046a2.7 2.7 0 0 0 1.096-.592c.479-.463.719-.982.757-1.636.086-1.496-1.159-2.674-2.67-2.527M6.06 9.034c-1.312.634-2.477 1.8-3.098 3.102-1.029 2.157-.856 4.607.468 6.604 1.492 2.252 4.282 3.387 6.917 2.816 1.967-.426 3.684-1.744 4.568-3.505l.165-.328-.489-1.042-.488-1.041h-.936l-.028.17c-.084.506-.416 1.276-.741 1.714-1.59 2.146-4.68 2.348-6.503.426a4.23 4.23 0 0 1-.42-5.32c.312-.451.67-.792 1.302-1.242.076-.053.074-.078-.099-1.301-.096-.686-.185-1.247-.197-1.246-.011 0-.201.087-.421.193" fill-rule="evenodd"/></svg>