<?xml version="1.0" encoding="utf-8"?>
<svg viewBox="0 0 24 24" xmlns="http://www.w3.org/2000/svg">
  <defs/>
  <path class="st0" d="M 19.37 7.28 L 4.63 7.28 C 2.775 7.28 1.271 8.784 1.271 10.639 L 1.271 13.361 C 1.271 15.216 2.775 16.72 4.63 16.72 L 19.37 16.72 C 21.225 16.72 22.729 15.216 22.729 13.361 L 22.729 10.639 C 22.729 8.784 21.225 7.28 19.37 7.28 Z M 7.734 14.268 L 6.551 14.268 L 6.017 11.952 L 5.483 14.268 L 4.3 14.268 L 3.126 9.489 L 4.504 9.489 L 4.938 11.611 L 5.45 9.489 L 6.585 9.489 L 7.094 11.611 L 7.53 9.489 L 8.908 9.489 L 7.734 14.268 Z M 10.744 14.243 L 9.439 14.243 L 9.439 10.828 L 10.744 10.828 L 10.744 14.243 Z M 10.092 10.56 C 9.693 10.56 9.372 10.238 9.372 9.841 C 9.372 9.443 9.693 9.12 10.092 9.12 C 10.488 9.12 10.811 9.443 10.811 9.841 C 10.811 10.238 10.488 10.56 10.092 10.56 Z M 21.993 13.361 C 21.993 14.807 20.815 15.983 19.37 15.983 L 11.113 15.983 C 11.113 15.983 12.551 14.98 12.551 13.088 C 12.551 11.197 12.551 10.902 12.551 10.902 C 12.551 9.308 13.843 8.016 15.437 8.016 L 19.37 8.016 C 20.815 8.016 21.993 9.193 21.993 10.639 L 21.993 13.361 Z M 14.237 9.489 L 14.237 10.794 L 14.237 14.243 L 15.494 14.243 L 15.494 12.792 L 17.911 12.792 L 17.911 11.631 L 15.494 11.631 L 15.494 10.794 L 18.254 10.794 L 18.254 9.489 L 15.494 9.489 L 14.237 9.489 Z M 19.046 10.828 L 20.353 10.828 L 20.353 14.243 L 19.046 14.243 L 19.046 10.828 Z M 19.7 9.12 C 19.302 9.12 18.98 9.443 18.98 9.841 C 18.98 10.238 19.302 10.56 19.7 10.56 C 20.096 10.56 20.419 10.238 20.419 9.841 C 20.419 9.443 20.096 9.12 19.7 9.12 Z" style=""/>
</svg>