<svg viewBox="0 0 24 24" xmlns="http://www.w3.org/2000/svg"><path d="M1.416 7.95c.012.039.501 1.879 1.087 4.09a474 474 0 0 0 1.083 4.05c.01.017.113.03.229.03.707 0 1.256-.297 1.517-.82.153-.308.266-.716.808-2.92.276-1.122.522-2.094.547-2.16.108-.281.267-.337.389-.136.042.068.313 1.089.604 2.27.588 2.384.698 2.767.889 3.085.249.416.733.652 1.346.658l.336.003 1.086-4.1 1.087-4.1-.218-.012c-.602-.034-1.247.319-1.487.813-.044.092-.341 1.181-.66 2.42-.319 1.24-.588 2.261-.597 2.27-.009.01-.035-.052-.057-.137l-.501-1.917c-.253-.97-.505-1.884-.56-2.031-.181-.48-.418-.754-.804-.932-.205-.094-.293-.11-.6-.111-.469-.001-.713.082-.994.338-.223.204-.409.513-.525.871-.038.117-.289 1.059-.558 2.094-.466 1.795-.49 1.874-.533 1.728-.024-.085-.291-1.117-.592-2.294s-.583-2.209-.626-2.294c-.249-.493-.847-.826-1.483-.826-.205 0-.232.009-.213.07m12.504-.029c-.404.071-.647.236-.783.535-.105.232-.176.615-.177.956v.232l.174-.12c.096-.066.298-.169.45-.23.55-.22.856-.65.856-1.201V7.88l-.17.005a3 3 0 0 0-.35.036m1.31-.012c-.06.009-.11.024-.11.034s.606.913 1.347 2.007 1.347 2.017 1.348 2.05-.605.964-1.346 2.068a117 117 0 0 0-1.349 2.03c0 .036.734.025.946-.015.724-.138.949-.347 1.974-1.843.6-.874.703-1 .821-1 .111 0 .088-.029.861 1.095.316.459.707.977.87 1.15.455.484.845.635 1.638.635h.375l-1.381-2.056-1.38-2.056 1.374-2.034 1.373-2.034-.245-.037c-.309-.046-.871.02-1.127.133-.412.183-.671.477-1.627 1.855-.618.89-.712.985-.856.866-.035-.029-.244-.315-.466-.635-.989-1.428-1.354-1.87-1.684-2.035-.332-.165-.925-.244-1.356-.178M14.264 9.4c-.133.134-.746.48-.851.48-.076 0-.346.262-.398.386-.045.107-.055.655-.055 2.993v2.861h.236c.532 0 1.008-.261 1.149-.63.067-.175.074-.391.086-2.79.007-1.43.007-2.793.001-3.028l-.012-.428z" fill-rule="evenodd"/></svg>