<svg viewBox="0 0 24 24" xmlns="http://www.w3.org/2000/svg"><path d="M17.771 2.63c-.015.039-.893 2.153-1.953 4.699s-1.917 4.639-1.906 4.65 1 .021 2.197.021h2.175l.093-.21c.076-.172 3.749-9.017 3.812-9.18.016-.04-.438-.05-2.186-.05-2.064 0-2.207.004-2.232.07M1.811 7.21c.01.027 1.013 2.387 2.227 5.243 1.934 4.551 2.203 5.207 2.169 5.3-.021.059-.375.89-.787 1.847l-.768 1.79c-.017.041.382.049 1.97.04l1.991-.01 2.953-7.1c1.624-3.905 2.953-7.114 2.953-7.13.001-.017-.885-.026-1.968-.02l-1.968.01-1.182 2.99c-.753 1.906-1.193 2.972-1.215 2.94-.018-.028-.551-1.373-1.184-2.99l-1.15-2.94-2.03-.01c-1.62-.009-2.027-.001-2.011.04m12.709 5.729a3.3 3.3 0 0 0-.58.218c-1.139.566-1.642 1.885-1.176 3.083a2.4 2.4 0 0 0 1.217 1.306c.708.338 1.447.33 2.159-.023.404-.201.682-.445.934-.821a2.453 2.453 0 0 0-1.354-3.719c-.317-.094-.884-.115-1.2-.044" fill-rule="evenodd"/></svg>