<svg viewBox="0 0 24 24" xmlns="http://www.w3.org/2000/svg"><path d="M1.44 9.728a.9.9 0 0 0 .206.573c.207.235.362.259 1.711.261l1.183.002-1.43 1.411-1.43 1.41.001.178c.002.348.235.668.55.755.093.026.863.042 2.04.042 1.638 0 1.895-.008 1.914-.06.035-.089-.061-.443-.159-.587a.8.8 0 0 0-.246-.21c-.151-.078-.233-.084-1.418-.095l-1.257-.012L4.54 11.96l1.435-1.435-.045-.243c-.055-.294-.162-.455-.383-.573-.165-.088-.188-.089-2.137-.101l-1.97-.012zm6.454-.087a2.39 2.39 0 0 0-1.669 1.235 2.24 2.24 0 0 0-.265 1.116c0 1.475 1.363 2.599 2.803 2.311 1.13-.227 1.928-1.189 1.926-2.323-.003-1.039-.707-1.988-1.689-2.277a3.2 3.2 0 0 0-1.106-.062m8.026 2.339v2.38h.11c.321-.001.629-.176.754-.428.068-.137.078-.282.096-1.432.019-1.214.024-1.288.106-1.44a.86.86 0 0 1 .454-.417.953.953 0 0 1 1.209.409c.085.16.09.226.111 1.448.02 1.221.025 1.288.11 1.447.134.253.419.412.74.413h.11l.001-1.47c0-.808.017-1.541.037-1.627.091-.392.489-.703.899-.703.36.001.738.242.875.558.028.064.053.583.066 1.385l.022 1.283.12.194c.139.224.32.332.615.367l.205.024v-1.557c0-1.696-.013-1.826-.231-2.229-.356-.659-1.209-1.076-1.948-.954-.343.057-.727.237-.958.451l-.183.168-.183-.168c-.383-.353-1-.536-1.516-.451a2.4 2.4 0 0 0-.528.166l-.261.123-.12-.086c-.116-.082-.541-.234-.656-.234-.048 0-.056.358-.056 2.38m-3.075-2.298c-.7.125-1.386.644-1.703 1.288-.463.94-.289 1.968.459 2.719.745.748 1.774.911 2.739.434a2.36 2.36 0 0 0 1.184-1.37c.08-.244.095-.369.093-.753-.003-.401-.018-.499-.116-.76-.281-.753-.835-1.278-1.58-1.497a3 3 0 0 0-1.076-.061m1.024 1.017a1.412 1.412 0 0 1 .611 2.056 1.4 1.4 0 0 1-2.138.28 1.3 1.3 0 0 1-.453-.931c-.034-.532.18-.993.591-1.273a1.43 1.43 0 0 1 1.389-.132m-5.052-.017c.306.115.591.384.752.71.117.238.131.303.131.608s-.014.37-.131.608a1.39 1.39 0 0 1-1.289.808c-.255.002-.339-.016-.56-.121a1.52 1.52 0 0 1-.712-.695c-.095-.193-.108-.266-.106-.6.001-.346.012-.402.126-.621.178-.346.516-.639.852-.742.21-.064.709-.04.937.045" fill-rule="evenodd"/></svg>